<?xml version="1.0" standalone="no"?>
<!DOCTYPE svg PUBLIC "-//W3C//DTD SVG 1.1//EN" "http://www.w3.org/Graphics/SVG/1.1/DTD/svg11.dtd" >
<svg xmlns="http://www.w3.org/2000/svg" xmlns:xlink="http://www.w3.org/1999/xlink" version="1.1">
<metadata>
Created by FontForge 20200427 at Tue Mar 10 18:53:53 2015
 By www
Copyright (c) 2011 Marcus Sterz / FaceType. All Rights Reserved.
</metadata>
<defs>
<font id="MokiW00-Dust" horiz-adv-x="871" >
  <font-face 
    font-family="MokiW00-Dust"
    font-weight="500"
    font-stretch="normal"
    units-per-em="1000"
    panose-1="2 11 7 3 3 2 2 8 2 4"
    ascent="800"
    descent="-200"
    x-height="650"
    cap-height="750"
    bbox="-120 -292 1833 956"
    underline-thickness="50"
    underline-position="-175"
    unicode-range="U+0020-25CA"
  />
<missing-glyph horiz-adv-x="500" 
 />
    <glyph glyph-name=".notdef" horiz-adv-x="500" 
 />
    <glyph glyph-name=".null" horiz-adv-x="0" 
 />
    <glyph glyph-name="nonmarkingreturn" horiz-adv-x="333" 
 />
    <glyph glyph-name="space" unicode=" " horiz-adv-x="400" 
 />
    <glyph glyph-name="exclam" unicode="!" horiz-adv-x="396" 
d="M60 123q0 28 11 53.5t29.5 44t43.5 29.5t54 11q28 0 53.5 -11t44 -29.5t29.5 -44t11 -53.5q0 -29 -11 -54t-29.5 -43.5t-44 -29.5t-53.5 -11q-29 0 -54 11t-43.5 29.5t-29.5 43.5t-11 54zM75 750h246v-430h-246v430zM259 704h1q1 0 1.5 0.5t1.5 0.5q8 0 10 -3t2 -8
q0 -3 -0.5 -6t-0.5 -6q0 -8 5.5 -14t26.5 -6q0 7 -3.5 18.5t-9 22t-12.5 18t-14 7.5q-6 0 -14 -3.5t-15.5 -9t-13 -11.5t-5.5 -12t8 -18t9 -17zM232 346q5 0 11 7t11.5 16t9 18t3.5 14q0 7 -2 11t-14 4q-3 0 -5.5 -9.5t-5.5 -21.5t-6.5 -23.5t-6.5 -15.5h5zM271 66
q11 0 22 3.5t11 17.5q0 5 -6.5 14.5t-13.5 9.5q-5 0 -7.5 -6t-4 -13.5t-1.5 -15v-10.5zM298 494q12 9 14 19t2 23v10t-1 10q-8 -7 -15.5 -17.5t-7.5 -21.5q0 -8 1.5 -13t6.5 -10zM197 594q14 11 23 23t9 30q-7 0 -13 -5.5t-10.5 -13t-7 -16t-2.5 -14.5v-2q0 -1 1 -2z
M182 378q1 -17 10 -17q7 0 14.5 2.5t7.5 9.5q0 4 -2.5 7.5t-7.5 3.5q-2 0 -11 -2t-11 -4zM238 5q9 4 18 10.5t9 17.5q-1 0 -3.5 0.5t-3.5 0.5q-14 0 -17 -6t-3 -14v-9zM196 108q2 0 7.5 0.5t11 2t9.5 4t4 7.5q0 8 -10 12q-2 -4 -9 -11t-13 -7v-8zM275 546q5 0 12.5 1.5
t10.5 8.5q-3 5 -8 10.5t-12 5.5q-1 0 -1 -0.5t-1 -0.5h-1v-25zM215 441q-11 0 -19 -3t-8 -16q8 0 17.5 4t9.5 15zM290 478q-5 -3 -10.5 -4.5t-10.5 -3.5t-8 -5t-3 -10q0 -1 0.5 -4t0.5 -5zM165 603q8 1 12.5 3t4.5 8t-8 12zM165 408q0 1 -4 1q-8 0 -9.5 -9t-1.5 -16v-6z
M141 43q0 1 0.5 1t0.5 1q0 5 -2.5 9t-5.5 10q0 -1 -0.5 -4t-0.5 -4q0 -5 1 -9t7 -6v2zM236 571h-16q5 -10 16 -10v10zM131 611q-6 0 -10 -2.5t-10 -5.5q1 -1 2 -1h2q9 0 19 8zM259 346h-8v-16zM196 56l6 8h-14zM258 181h-4q-8 0 -13 -9z" />
    <glyph glyph-name="quotedbl" unicode="&#x22;" horiz-adv-x="418" 
d="M190 519h-165v231h165v-231zM393 519h-165v231h165v-231zM177 677l5 21q-9 0 -17.5 -9t-8.5 -18zM117 711q-4 10 -17 10q0 -13 10 -18zM142 591h-11q0 -11 11 -16v16z" />
    <glyph glyph-name="numbersign" unicode="#" horiz-adv-x="822" 
d="M110 670v80h246v-80h110v80h246v-80h80v-218h-80v-154h80v-218h-80v-80h-246v80h-110v-80h-246v80h-80v218h80v154h-80v218h80zM356 298h110v154h-110v-154zM592 638l-7 -2v-13t1.5 -15.5t4 -13t7.5 -5.5q1 0 3.5 0.5t3.5 0.5zM375 618q0 -8 9 -8q8 0 8 8q0 4 -3.5 7.5
t-6.5 3.5q-2 0 -4.5 -3.5t-2.5 -7.5zM556 392q10 0 18.5 5t12.5 14l-26 12zM505 449q0 5 -3.5 19t-10.5 16q-8 -2 -9 -10.5t-1 -13.5z" />
    <glyph glyph-name="dollar" unicode="$" horiz-adv-x="869" 
d="M116 100q23 10 50 10q4 0 7.5 -0.5t7.5 -0.5q-5 3 -15 12t-19.5 19t-17.5 17.5t-9 7.5t-1.5 -1t-2.5 -2q-2 -2 -4 -3zM188 69q2 -2 14.5 -5.5t18.5 -3.5q18 0 18 17q0 6 -6 9.5t-14.5 5.5t-17 3.5t-13.5 4.5q0 -2 -1.5 -8t-1.5 -8v-4.5t1 -4.5zM703 623q-2 6 -7 7t-10 1
q-11 0 -14 -10t-3 -18q9 0 19.5 1.5t20.5 5.5t17 11t9 18zM633 725q-15 0 -26 -12.5t-11 -27.5q20 0 28.5 11t8.5 29zM614 44q-3 -1 -12 -3.5t-12 -4.5q5 -10 10.5 -13.5t13.5 -3.5q7 0 12 3t5 10q0 5 -3.5 8.5t-8.5 3.5h-5zM261 486q-14 0 -22 -15.5t-10 -24.5q1 -1 2 -1h2
q12 0 20.5 11t8.5 22q0 2 -0.5 4.5t-0.5 3.5zM445 663q-8 4 -11 15t-4 17q-6 -8 -9 -17.5t-3 -17.5zM299 34q6 0 15 1t11 9q-4 9 -12 9t-11 -6.5t-3 -12.5zM678 -32q0 -8 -3.5 -17.5t-14.5 -9.5q0 10 5 20t13 15v-8zM92 571q8 0 12 7t4 12t-5 5.5t-11 3.5v-28zM701 3
q0 -17 -19 -20q2 20 19 20zM582 93q-8 -5 -8 -12q0 -6 2.5 -10.5t5.5 -10.5v33zM638 647q4 5 7 11t3 13l-8 5zM445 76q-3 9 -12 9q-4 0 -4.5 -4t-3.5 -9zM103 722q2 2 8 5t8 3t5 -2.5t3 -9.5zM743 76v17l-8 -9zM549 750h266v-218h-498q-19 0 -30.5 -6.5t-11.5 -23.5
q0 -15 11.5 -21.5t30.5 -6.5h235q69 0 122 -12.5t90 -40.5t56 -73t19 -111t-19 -111t-56 -73t-91 -40.5t-124 -12.5v-91h-229v91h-266v218h498q19 0 30.5 6.5t11.5 23.5q0 15 -11.5 21.5t-30.5 6.5h-235q-69 0 -122 12.5t-90 40.5t-56 73t-19 111t19 111t56 73t91 40.5
t124 12.5v91h229v-91z" />
    <glyph glyph-name="percent" unicode="%" horiz-adv-x="1422" 
d="M1124 187q25 0 39.5 9t14.5 29v82q0 20 -14.5 29t-39.5 9h-63q-25 0 -39.5 -9t-14.5 -29v-82q0 -20 14.5 -29t39.5 -9h63zM360 405q25 0 39.5 9t14.5 29v82q0 20 -14.5 29t-39.5 9h-63q-25 0 -39.5 -9t-14.5 -29v-82q0 -20 14.5 -29t39.5 -9h63zM585 265q10 -3 17 -4
t24 -1q-1 11 -12 25.5t-22 14.5q0 -9 -3.5 -16.5t-3.5 -18.5zM999 22h5v10h-12q0 -2 1 -10t2 -10q0 -1 1.5 -2.5l2.5 -2.5v15zM867 55q8 0 14.5 1.5t6.5 9.5q-1 1 -1 2v3l-20 -10v-6zM1292 105q-2 4 -6 6l-8 4v-10h14zM1322 153q-11 0 -20 6q2 -6 2 -7q0 -6 -3.5 -8.5
t-7.5 -3.5t-7.5 -1.5t-3.5 -3.5q0 -6 5 -10t11 -5q0 10 6.5 17t17.5 7v9zM1038 383l-4 8t-5 7h-1q-1 0 -2 1q-8 0 -8 -8q0 -6 7 -7t13 -1zM1074 394l-1 11q-7 0 -10 -7zM1198 432q0 -3 0.5 -10t5.5 -9q8 3 14 5t7 16q-6 0 -10 -3t-9 -6zM254 361h5v10h-12q0 -2 1 -10t2 -10
q0 -1 1.5 -2.5l2.5 -2.5v15zM122 394q8 0 14.5 1.5t6.5 9.5q-1 1 -1 2v3l-20 -10v-6zM547 444q-2 4 -6 6l-8 4v-10h14zM577 492q-11 0 -20 6q2 -6 2 -7q0 -6 -3.5 -8.5t-7.5 -3.5t-7.5 -1.5t-3.5 -3.5q0 -6 5 -10t11 -5q0 10 6.5 17t17.5 7v9zM293 722l-4 8t-5 7h-1
q-1 0 -2 1q-8 0 -8 -8q0 -6 7 -7t13 -1zM461 764q5 3 9 6t10 3q-1 -14 -7 -16t-14 -5q-5 2 -5.5 9t-0.5 10zM382 750q60 0 106.5 -11t79 -35.5t49 -64.5t16.5 -97v-87l250 295h293l-187 -220q12 1 24 1.5t26 0.5h107q60 0 106.5 -11t79 -35.5t49 -64.5t16.5 -97v-116
q0 -57 -16.5 -97t-49 -64.5t-79 -35.5t-106.5 -11h-107q-60 0 -106.5 11t-78.5 35.5t-48.5 64.5t-16.5 97v86l-250 -294h-293l187 220q-12 -2 -24.5 -2h-26.5h-107q-60 0 -106.5 11t-78.5 35.5t-48.5 64.5t-16.5 97v116q0 57 16.5 97t48.5 64.5t78.5 35.5t106.5 11h107z" />
    <glyph glyph-name="ampersand" unicode="&#x26;" horiz-adv-x="839" 
d="M256 627q11 0 14.5 10t3.5 18q0 5 -1 9t-7 6q-4 -11 -7 -21.5t-3 -21.5zM460 779q0 6 12 11q4 -9 16 -9v-15q-3 1 -14.5 4t-13.5 5v4zM554 124q2 -2 8 -5t8 -3t5.5 3t3.5 5q-5 8 -12 8q-9 0 -13 -8zM681 703q1 2 4 8.5t3 8.5t-3 4.5t-4 2.5q-2 0 -5.5 -2.5t-3.5 -4.5
t3.5 -8.5t5.5 -8.5zM482 52l17 16q-2 0 -5 0.5t-4 0.5q-5 0 -9.5 -1t-6.5 -8zM203 132q0 11 -10 16l-5 -20zM503 727q11 7 11 17l-12 4zM253 248q-5 0 -11.5 -7t-11.5 -16t-8.5 -18.5t-3.5 -13.5q0 -7 2 -11t14 -4q3 0 5.5 9t5.5 21t6.5 23.5t6.5 16.5h-5zM422 750v-218h-67
q-20 0 -32 -6.5t-12 -23.5q0 -16 12 -22t32 -6h141v276h246v-276h67v-198h-67v-61q0 -60 -19.5 -101t-56.5 -66.5t-91 -36.5t-123 -11h-127q-146 0 -225.5 52t-79.5 163q0 67 29 108.5t86 63.5q-42 22 -63.5 58t-21.5 90q0 104 79.5 159.5t225.5 55.5h67zM452 218
q19 0 31.5 6.5t12.5 23.5v28h-171q-20 0 -32 -6t-12 -22q0 -17 12 -23.5t32 -6.5h127z" />
    <glyph glyph-name="quotesingle" unicode="'" horiz-adv-x="215" 
d="M190 519h-165v231h165v-231zM130 666q5 0 11 7t11.5 16t9 18t3.5 14q0 7 -2 11t-14 4q-3 0 -5.5 -9.5t-5.5 -21.5t-6.5 -23.5t-6.5 -15.5h5z" />
    <glyph glyph-name="parenleft" unicode="(" horiz-adv-x="466" 
d="M441 0v-203h-85q-73 0 -130 13.5t-96 43.5t-59.5 78.5t-20.5 118.5v648q0 70 20.5 118.5t59.5 78.5t96 43.5t130 13.5h85v-203h-85q-35 0 -56 -11.5t-21 -39.5v-648q0 -28 21 -39.5t56 -11.5h85zM289 844q0 10 -11.5 13.5t-17.5 3.5q-1 -1 -1 -2v-2q0 -8 11.5 -10.5
t18.5 -2.5zM300 676q2 7 6 13.5t10 10.5l8 -15q-5 -5 -9.5 -7t-10.5 -2h-4zM300 893l-8 8q-4 -6 -6.5 -10t-2.5 -10v-2q0 -1 1 -1zM333 725q3 -6 5.5 -10.5t2.5 -10.5q0 -1 -0.5 -1t-0.5 -1v-2q-6 2 -7 6.5t-1 9.5q0 1 0.5 4t0.5 5z" />
    <glyph glyph-name="parenright" unicode=")" horiz-adv-x="466" 
d="M25 750v203h85q73 0 130 -13.5t96 -43.5t59.5 -78.5t20.5 -118.5v-648q0 -70 -20.5 -118.5t-59.5 -78.5t-96 -43.5t-130 -13.5h-85v203h85q35 0 56 11.5t21 39.5v648q0 28 -21 39.5t-56 11.5h-85zM254 17q6 2 12 2q9 0 13 -2q2 -2 4.5 -12t3.5 -12q0 -2 4 -2t6 4t3.5 8.5
t2 8.5t0.5 5q0 2 -1.5 8.5t-4.5 13t-6.5 12t-6.5 5.5q-1 0 -3 -8l-2 -8q-3 -2 -12 -10.5t-13 -12.5zM247 -40q6 12 9 19t5 10q2 4 2 5q0 2 -6 5t-8 3q0 -13 -5.5 -21.5t-5.5 -20.5h9zM335 -47q17 0 17 11q0 3 -2 7.5t-7 4.5q-16 0 -16 -11q0 -4 1.5 -8t6.5 -4zM280 219v18
q-8 0 -18 -4t-10 -14h28zM295 -32q2 -5 7.5 -7.5t10.5 -2.5q0 14 -10 18zM383 209q6 2 12 4.5t6 7.5q0 1 -0.5 2.5t-0.5 2.5q-7 -2 -12 -4.5t-5 -7.5v-5zM155 -32q8 0 19 8q-1 0 -3.5 0.5t-3.5 0.5q-6 0 -10.5 -1t-6.5 -8h5zM383 250h-9q0 -11 9 -17v17zM380 162h-10
q0 -5 3 -9t7 -7v16z" />
    <glyph glyph-name="asterisk" unicode="*" horiz-adv-x="494" 
d="M20 542l38 116l52 -17q24 -8 43.5 -15t35.5 -15q-3 34 -3 85v54h122v-54q0 -26 -1 -47.5t-3 -38.5q16 8 36 15.5t44 15.5l52 17l38 -116l-52 -17q-25 -8 -45 -14t-37 -9q11 -13 24.5 -30t28.5 -37l31 -43l-98 -72l-32 44q-15 20 -27 37.5t-20 32.5q-9 -15 -20.5 -32.5
t-26.5 -37.5l-32 -44l-98 72l31 43q15 20 28 37t25 30q-17 3 -37.5 9t-44.5 14zM191 579q0 2 -1 5q-2 6 -10 6q-8 -17 -9 -24q-1 -4 -1 -8q8 0 14.5 6.5t6.5 14.5zM366 612l-11 -34q9 0 15.5 6.5t6.5 15.5zM344 599l9 9l-9 11l-9 -4zM283 430q-1 0 -1.5 0.5t-1.5 0.5
q-5 0 -8.5 -1.5t-6.5 -8.5q1 -1 2 -1h3q11 0 15 10h-2zM146 573q0 -2 2 -3.5t3 -1.5q2 1 4 3q5 5 5 7l-9 5zM214 585q0 1 -1 2q-3 3 -4 3q-2 -4 -2.5 -6.5t-1.5 -4.5q-1 -3 -1 -4q10 0 10 10z" />
    <glyph glyph-name="plus" unicode="+" horiz-adv-x="594" 
d="M174 474v146h246v-146h149v-198h-149v-146h-246v146h-149v198h149zM406 274q-4 6 -16.5 7.5t-20.5 1.5q0 -1 0.5 -5.5l1 -9t2.5 -8.5t5 -4q4 0 14 8t14 10zM284 342q6 4 7.5 16.5t1.5 20.5q-2 0 -9 -2t-7 -8q0 -4 2.5 -13.5t4.5 -13.5z" />
    <glyph glyph-name="comma" unicode="," horiz-adv-x="372" 
d="M55 203h262l-124 -345h-138v345zM181 138q5 0 9.5 3t6.5 7h-16v-10zM197 -197q0 12 1 20.5t8 20.5q8 -2 12 -4t4 -8q0 -10 -10 -24l-15 -21v16zM249 176l8 8q-2 8 -16 8q-9 0 -15.5 -1.5t-16.5 -6.5z" />
    <glyph glyph-name="hyphen" unicode="-" horiz-adv-x="550" 
d="M525 474v-198h-500v198h500zM316 307q3 -7 10.5 -11t17 -6t19 -2.5t16.5 -0.5q0 3 -1 8.5t-3 11.5t-5.5 10.5t-8.5 4.5q-6 0 -22.5 -5t-22.5 -10z" />
    <glyph glyph-name="period" unicode="." horiz-adv-x="376" 
d="M50 123q0 28 11 53.5t29.5 44t43.5 29.5t54 11q28 0 53.5 -11t44 -29.5t29.5 -44t11 -53.5q0 -29 -11 -54t-29.5 -43.5t-44 -29.5t-53.5 -11q-29 0 -54 11t-43.5 29.5t-29.5 43.5t-11 54zM110 60q0 11 -9 15q-5 -2 -6.5 -8.5t-1.5 -11.5zM165 140l-33 -16q-1 -1 -1 -2v-2
q0 -2 4.5 -6.5t10.5 -9.5t12.5 -9t10.5 -4h2q1 0 1 1zM110 108q0 11 -9 16l-2 -12z" />
    <glyph glyph-name="slash" unicode="/" horiz-adv-x="595" 
d="M243 0h-243l352 750h243zM145 265q10 -3 17 -4t24 -1q-1 11 -12 25.5t-22 14.5q0 -9 -3.5 -16.5t-3.5 -18.5zM375 810q3 -1 9 -7t7 -9q0 -6 -5 -12.5t-11 -6.5v35zM399 778l7 8l9 -8h-16z" />
    <glyph glyph-name="zero" unicode="0" horiz-adv-x="986" 
d="M600 750q84 0 150 -15.5t111 -50t68.5 -90.5t23.5 -137v-164q0 -81 -23.5 -137t-68.5 -90.5t-111 -50t-150 -15.5h-214q-84 0 -150 15.5t-111 50t-68.5 90.5t-23.5 137v164q0 81 23.5 137t68.5 90.5t111 50t150 15.5h214zM386 532q-50 0 -78.5 -17t-28.5 -58v-164
q0 -10 1 -15l214 254h-108zM600 218q50 0 78.5 17t28.5 58v164q0 9 -1 14l-215 -253h109zM936 259q-19 0 -32 10q2 -8 2 -11q0 -11 -5.5 -15t-12 -5.5t-12 -3t-5.5 -5.5q0 -9 8 -16t17 -8q1 16 12 28t28 12v14zM732 719q0 -6 1.5 -18t9.5 -14q12 6 19 7t10.5 2.5t4 6
t0.5 18.5q-10 0 -17 -4.5t-15 -9.5zM228 197v-4t1 -4q0 -2 1 -6.5t2.5 -10t3 -10t1.5 -5.5q0 -2 -3 -8t-5 -8q1 -1 2 -1h2q5 0 12.5 2.5t7.5 9.5q0 13 -5.5 22t-5.5 23h-14zM864 598q0 14 -4 26t-20 14q-1 0 -1 -1v-2q0 -11 7 -28t18 -25v16zM886 464q0 -14 7.5 -24.5
t17.5 -17.5q2 0 5.5 3t3.5 5q0 10 -12 22t-22 12zM470 638q-2 4 -8 13.5t-8 11.5h-2q-1 0 -2 1q-5 0 -9 -4.5t-4 -9.5q0 -9 10.5 -10.5t18.5 -1.5h4zM188 98q13 0 23.5 2t10.5 16q0 1 -0.5 4t-0.5 5l-33 -17v-10zM638 61q11 7 16 19t17 21q-2 0 -4.5 0.5t-3.5 0.5
q-13 0 -19.5 -11.5t-6.5 -22.5q0 -1 0.5 -3.5t0.5 -3.5zM405 44h9v17h-20q0 -5 1.5 -17t2.5 -16q0 -2 3 -4.5t4 -3.5v24zM261 108q5 5 14.5 15t9.5 18l-8 7q-3 -10 -9.5 -17.5t-14.5 -14.5zM517 463q1 -1 3 -1h5q5 0 11 3t6 10q0 6 -5 8t-12 4zM181 483q6 0 11 6.5t5 12.5
q-1 3 -7 9t-9 7v-35zM221 148l-24 17l-9 -24zM904 574q-2 8 -6 14t-13 6q0 -7 3 -13.5t11 -6.5h5zM887 181q-3 6 -10 10t-13 6v-16h23zM871 301q11 5 11 19q-14 0 -18 -11zM775 341l-8 24l-8 -24h16zM759 92q10 7 10 16h-18zM505 493q4 4 4 12t-4 12q-2 1 -3 -3.5t-1 -9.5
q0 -11 4 -11zM293 558l-8 -8q4 -9 12 -9h2q1 0 2 1zM197 181q8 4 8 12q0 7 -8 12v-24zM501 479h-11q0 -11 11 -16v16zM936 309h-11q0 -11 11 -15v15zM526 663v10q-11 0 -16 -10h16zM221 486l-9 8l-7 -8h16z" />
    <glyph glyph-name="one" unicode="1" horiz-adv-x="482" 
d="M432 750v-750h-246v532h-171v218h417zM353 825q11 0 19.5 -3t8.5 -16q0 -1 -0.5 -3.5t-0.5 -3.5q-8 3 -17.5 9t-9.5 17zM308 692q9 -5 9 -16q0 -2 -1 -5t0 -2q6 4 11 8t5 10q0 4 -2 8t-7 4q-2 0 -8 -2.5t-7 -4.5zM380 626q0 14 -8 26q-2 -2 -5 -8t-3 -9q0 -5 7 -7t9 -2z
M311 715q14 0 21 6q0 2 -5 5t-6 3q-10 0 -10 -14z" />
    <glyph glyph-name="two" unicode="2" horiz-adv-x="879" 
d="M557 474q19 0 30.5 6.5t11.5 21.5q0 17 -11.5 23.5t-30.5 6.5h-498v218h498q69 0 122 -12.5t90 -40.5t56 -73t19 -111t-19 -111t-56 -73t-90 -40.5t-122 -12.5h-243q-34 -3 -34 -28v-30h540v-218h-785v237q0 66 19 111t56 73t90 40.5t122 12.5h235zM117 132q18 0 18 22
q-10 0 -18 -5.5t-8 -16.5h8zM125 205l-8 -8q4 -9 11 -9q1 0 2.5 0.5t2.5 0.5zM551 301h-2q-1 0 -2 1q-7 0 -12 -8l7 -9zM631 422l-16 -8q4 -10 16 -10v18zM547 805q1 2 7 8t9 7q1 0 2 0.5t2 0.5q6 0 9.5 -5t6 -11.5t3.5 -13t1 -9.5q0 -6 -10.5 -8t-13.5 -2q-1 0 -3.5 0.5
t-3.5 0.5q-3 3 -6 13.5t-3 18.5zM415 598q0 14 -9 25q-7 -2 -8.5 -10.5t-1.5 -14.5h19zM647 408q2 1 2.5 4.5t0.5 7.5q0 9 -3 12q-2 1 -3 -4t-1 -10q0 -9 4 -10zM333 705q-8 0 -17 -5.5t-14 -12.5q3 -8 13 -9.5t18 -1.5v29zM719 678l9 9l-25 16l-8 -8zM519 719q1 -4 8 -4
q5 0 8 4q0 4 -7 4q-3 0 -6 -1t-3 -3z" />
    <glyph glyph-name="three" unicode="3" horiz-adv-x="879" 
d="M108 276v198h416q20 0 32 6t12 22q0 17 -12 23.5t-32 6.5h-474v218h474q146 0 225.5 -55.5t79.5 -159.5q0 -54 -22 -90t-64 -58q57 -22 86.5 -63.5t29.5 -108.5q0 -111 -79.5 -163t-225.5 -52h-504v218h504q20 0 32 6.5t12 23.5q0 16 -12 22t-32 6h-446zM259 65
q0 1 -0.5 5t-2 8.5t-3.5 8t-6 3.5q-3 0 -8 -7t-9.5 -15.5t-8 -16.5t-3.5 -10q0 -1 3.5 -4t5.5 -4q11 -5 25.5 -11t26.5 -6q4 0 9.5 6t10 14.5t7.5 16.5t3 12h-50zM69 506q6 0 11 -5t8.5 -12t5.5 -14.5t2 -12.5q0 -3 -3 -12.5t-5 -11.5q-7 3 -10.5 12.5t-5.5 20.5t-2.5 20.5
t-0.5 14.5zM357 142q-6 0 -16 -2t-10 -10q0 -11 12.5 -12.5t23.5 -1.5zM319 708q6 0 10 4t5.5 10t2 11.5t0.5 8.5q-23 0 -23 -22v-6t1 -6h4zM356 705q0 6 -1.5 12t-7.5 7l-8 -49q2 0 3 -0.5t2 -0.5q8 0 10 8t2 16v7zM711 174q5 2 8.5 2.5t6.5 3t4.5 7t2.5 15.5q-1 0 -4 0.5
t-4 0.5q-10 0 -13 -3.5t-3 -9.5t2 -16zM773 571v27q-9 0 -17.5 -9t-8.5 -18h26zM154 65q1 1 1 3q0 3 -5.5 4.5t-7.5 1.5q-8 0 -10 -7.5t-2 -13.5q0 -8 8 -12zM259 711q-9 0 -13 -8t-4 -16q0 -6 5.5 -10t11.5 -4v38zM375 769q-10 5 -10 18q13 0 17 -10zM446 89q0 11 -11 16
v-16h11zM518 31v16l-16 -16h16zM733 491h-11q0 -11 11 -16v16zM259 435h-10q0 -11 10 -16v16zM677 143q5 0 9.5 3t6.5 7h-16v-10zM652 137h-15q2 -5 6 -7.5t9 -2.5v10zM418 105q-1 0 -2 1q-9 0 -12 -9q0 -1 1 -1h2q9 0 12 9h-1zM612 150q0 7 -8 12v-5q0 -7 8 -12v5zM604 113
q5 2 6.5 5t1.5 7v4q-8 -4 -8 -12v-4zM347 65q8 4 8 12v4q-8 -4 -8 -12v-4zM211 378v17l-9 -17h9z" />
    <glyph glyph-name="four" unicode="4" horiz-adv-x="891" 
d="M773 98v-98h-246v98h-507v188l395 464h358v-434h88v-218h-88zM527 316v221l-189 -221h189zM655 265q-6 -3 -16.5 -4t-20.5 -2.5t-18 -5t-9 -13.5q0 -2 -0.5 -2.5t-0.5 -2.5q0 -11 9 -19t20 -8q7 0 13.5 4t12 8.5t11 8.5t11.5 4q8 0 16 -5t12 -12q1 2 1 8.5v8.5
q0 14 -3 18.5t-9 4.5q-5 0 -12 -1.5t-17 -1.5v12zM723 136q7 0 11 3t10 5q-2 2 -5.5 8t-3.5 8q0 1 2.5 6t5.5 10.5t5.5 10t2.5 6.5v2q0 1 0.5 1t0.5 1l-1 2v1q-1 2 -5.5 4.5t-9.5 5t-10 4.5t-7 2q-11 0 -13.5 -8t-2.5 -15q0 -15 5.5 -30t10.5 -27h4zM719 281q11 7 18.5 21
t7.5 27q0 10 -10.5 22t-15.5 18q-8 -4 -8 -12q0 -10 8.5 -16t8.5 -16v-4l-24 -24zM697 115q0 9 -5 23.5t-16 14.5q-13 0 -13 -13q0 -16 10 -20.5t24 -4.5zM273 377q-5 0 -13.5 -2.5t-17 -6.5t-15 -9t-6.5 -10v-2q0 -2 1 -2q3 4 10.5 6t12.5 2q3 -1 5.5 -6t2.5 -10zM486 216
q4 -3 8 -7q3 -3 6 -6.5t3 -6.5q0 -1 2.5 -3t1.5 -3q6 8 7.5 20t3.5 23zM643 684q-11 0 -14 -9.5t-3 -18.5q22 0 22 19q0 1 -2.5 4.5t-2.5 4.5zM784 297q-5 -4 -11.5 -5.5t-11.5 -3.5t-8.5 -6t-3.5 -12q16 0 23 6.5t12 20.5zM704 430q10 0 18.5 5t12.5 14l-26 12zM653 487
q0 5 -3.5 19t-10.5 16q-8 -2 -9 -10.5t-1 -13.5zM759 149q0 -8 10 -11t15 -9q1 1 1.5 3.5t0.5 4.5q0 16 -21 16h-6v-4zM513 -73v12q0 11 1 18.5t8 18.5l7 -9zM278 273q0 1 0.5 4t0.5 4q0 5 -1 9.5t-9 6.5l-7 -8zM527 699q2 -5 12 -5q9 0 12 5q1 2 -3.5 3t-9.5 1
q-11 0 -11 -4zM262 321h-10q0 -12 10 -16v16zM302 433v9h-24zM688 691l-9 8v-17z" />
    <glyph glyph-name="five" unicode="5" horiz-adv-x="870" 
d="M548 474q69 0 122 -12.5t90 -40.5t56 -73t19 -111t-19 -111t-56 -73t-90 -40.5t-122 -12.5h-498v218h498q19 0 30.5 6.5t11.5 23.5q0 15 -11.5 21.5t-30.5 6.5h-498v474h761v-218h-540v-58h277zM175 559q7 0 9.5 -6t4.5 -12.5t5.5 -12.5t12.5 -6q11 0 19.5 4t20.5 12v4
q-1 9 -7.5 11.5t-14.5 2.5t-14.5 -1t-11.5 -1q-1 0 -4 4t-5 5q-1 0 -7 0.5t-8 0.5v-5zM545 643q0 9 -2.5 22.5t-15.5 13.5q0 -11 3.5 -25t14.5 -20v9zM135 514q-3 5 -4 10t-6 5l-6 -7v-24zM639 452q0 -9 5.5 -15t13.5 -6q0 9 -5 15t-14 6zM568 201q8 1 13.5 5.5t5.5 12.5
q-6 0 -12.5 -3t-6.5 -11v-4zM376 102q5 0 13 1t10 9l-18 -3zM713 345q-4 9 -12 9q-1 0 -1 -0.5t-1 -0.5h-2q4 -9 12 -9q1 0 2 0.5t2 0.5zM681 426l-8 8l-8 -8h16z" />
    <glyph glyph-name="six" unicode="6" horiz-adv-x="872" 
d="M33 513q0 66 19 111t56 73t90 40.5t122 12.5h498v-218h-498q-19 0 -30 -6.5t-11 -23.5v-97q25 37 76.5 53t128.5 16h71q69 0 122 -12.5t90 -40.5t56 -73t19 -111t-19 -111t-56 -73t-90 -40.5t-122 -12.5h-235q-69 0 -122 12.5t-90 40.5t-56 73t-19 111v276zM313 276
q-34 -3 -34 -28q0 -17 11 -23.5t30 -6.5h235q19 0 30.5 6.5t11.5 23.5q0 15 -11.5 21.5t-30.5 6.5h-242zM405 385q10 15 20.5 22t26.5 7q0 8 -5 11t-11.5 5l-13 4t-9.5 8q-12 -14 -12 -27zM221 104l-8 25q-4 -3 -11 -7.5t-14 -10t-12 -12t-5 -13.5q2 0 10 0.5t17 2t16 4
t7 7.5v4zM610 458q-11 0 -16 -13t-5 -19q0 -2 0.5 -6.5t0.5 -8.5q2 14 16.5 21t23.5 10q-1 2 -7 8.5t-9 7.5h-4zM381 56q2 -5 5 -6.5t7 -1.5q5 0 7.5 1.5t4.5 6.5q-4 8 -12 8t-12 -8zM132 74q0 9 -5 12t-11 3h-4t-4 -1q5 -16 20 -16zM783 329q-6 10 -18 10q0 -5 2 -10.5
t7 -7.5zM136 112q8 0 12 8l-8 9l-8 -17h4zM537 742l-13 -7l7 -9zM536 724l-26 -25q8 0 17 6t9 13v6z" />
    <glyph glyph-name="seven" unicode="7" horiz-adv-x="811" 
d="M796 750v-188l-478 -562h-293l452 532h-453v218h772zM365 155q-7 -2 -13.5 -5.5t-10.5 -10.5q5 -10 10 -13t14 -3q1 0 4 0.5t4 0.5q2 13 3 26.5t5 29.5l-8 8l-8 8v-41zM608 417q1 0 2.5 1.5t3.5 2.5q2 2 8 11.5t8 12.5q-5 7 -12.5 11.5t-15.5 4.5q-1 0 -2 -1t-3 -2
q-2 -2 -4 -3q15 -17 15 -38zM682 461q12 0 12 12q0 7 -1.5 18t-10.5 11q-4 0 -6 -3.5t-3.5 -8t-2 -8.5t-0.5 -5q0 -16 12 -16zM278 44q0 6 -2.5 16.5t-10.5 10.5l-5 -3l3 -19zM188 139l8 -4t8 -3q6 0 8 7.5t2 10.5q-5 0 -14 -1.5t-12 -9.5zM293 49q5 0 13 1.5t11 8.5h-24
v-10zM622 477q2 0 5 3t3 5t-3 8t-5 8v-24zM774 590h-10q0 -5 3 -9.5t7 -6.5v16zM357 694q1 -4 8 -4t8 4q0 4 -7 4q-3 0 -6 -1t-3 -3zM662 509l8 8h-16z" />
    <glyph glyph-name="eight" unicode="8" horiz-adv-x="873" 
d="M518 750q146 0 225.5 -55.5t79.5 -159.5q0 -54 -22 -90t-64 -58q57 -22 86.5 -63.5t29.5 -108.5q0 -111 -79.5 -163t-225.5 -52h-223q-146 0 -225.5 52t-79.5 163q0 67 29 108.5t86 63.5q-42 22 -63.5 58t-21.5 90q0 104 79.5 159.5t225.5 55.5h163zM548 218q20 0 32 6.5
t12 23.5q0 14 -9.5 20t-26.5 8h-231q-20 0 -32 -6t-12 -22q0 -17 12 -23.5t32 -6.5h223zM355 532q-20 0 -32 -6.5t-12 -23.5q0 -16 12 -22t32 -6h163q20 0 32 6t12 22q0 17 -12 23.5t-32 6.5h-163zM591 101q12 2 26.5 9.5t14.5 21.5q0 1 -0.5 2t-0.5 3v4q-1 1 -5 4.5t-4 6.5
q0 5 0.5 13.5t0.5 15.5t-1 8q-2 4 -12.5 6.5t-18.5 2.5q0 -2 -0.5 -10.5t-0.5 -10.5v-12q0 -4 1 -8q0 -2 3.5 -12t3.5 -12t-2.5 -5t-4.5 -3q-3 0 -9.5 2t-14 5.5t-13 8.5t-5.5 10q0 2 2 6q-4 -3 -7.5 -9t-7 -11.5t-8 -10t-9.5 -4.5t-9 3q3 -5 11 -10.5t13 -5.5q2 0 8.5 3.5
t8.5 3.5q1 0 8 -3.5t9 -3.5q5 0 13 1t10 1v-10zM151 370q0 -20 12 -25t31 -5q0 11 -6 28t-20 18l-2 -9zM667 227q21 0 21 25q0 5 -1 10t-8 7q-2 0 -5 -3t-3 -5q-1 -4 -2.5 -17t-1.5 -17zM574 516q9 0 18 8.5t9 17.5h-27v-26zM655 318l-17 31q-9 -12 -9 -31h26zM551 181
q6 2 7 7.5t1 12.5v6.5t-1 5.5q-2 -2 -4.5 -11.5t-2.5 -12.5q0 -1 -0.5 -1t-0.5 -1v-2v-2q0 -1 1 -2zM607 631v16h-9v-16h9zM536 14v16q-10 -5 -10 -16h10zM598 575l-7 24v-24h7z" />
    <glyph glyph-name="nine" unicode="9" horiz-adv-x="872" 
d="M839 237q0 -66 -19 -111t-56 -73t-90 -40.5t-122 -12.5h-498v218h498q19 0 30 6.5t11 23.5v97q-25 -38 -77 -53.5t-128 -15.5h-71q-69 0 -122 12.5t-90 40.5t-56 73t-19 111t19 111t56 73t90 40.5t122 12.5h235q69 0 122 -12.5t90 -40.5t56 -73t19 -111v-276zM551 474
q19 0 30.5 6.5t11.5 21.5q0 17 -11 23.5t-30 6.5h-235q-19 0 -30.5 -6.5t-11.5 -23.5q0 -15 11.5 -21.5t30.5 -6.5h234zM638 332q4 0 12 2.5t16.5 6.5t15 9.5t6.5 10.5q0 6 -9 10q0 13 -4.5 24t-24.5 11q-2 0 -3 -1l-9 -7q4 -6 8.5 -8t8.5 -4t6.5 -5.5t2.5 -11.5
q0 -5 -1.5 -12.5t-11.5 -7.5h-4q1 1 1 4q0 5 -5.5 7.5t-9.5 4.5zM421 598l15 21t10 24q0 6 -4 8t-12 4q-7 -12 -8 -20.5t-1 -20.5v-16zM92 728q-5 10 -6.5 16.5t-1.5 15.5q0 14 8 16l8 -8zM719 189q0 -1 4 -1q6 0 9 6t3 11q0 2 -3 4.5t-5 2.5zM598 735q-6 -4 -10 -11t-6 -13
q1 -1 2 -1h2q7 0 10 5.5t3 11.5q0 1 -0.5 3.5t-0.5 4.5zM751 607q6 7 7.5 11.5t1.5 12.5q0 1 -0.5 3.5t-0.5 3.5q-6 -1 -7.5 -6.5t-1.5 -12.5v-6t1 -6zM438 374h-5q-5 0 -8.5 -3.5t-3.5 -8.5v-4z" />
    <glyph glyph-name="colon" unicode=":" horiz-adv-x="396" 
d="M60 123q0 28 11 53.5t29.5 44t43.5 29.5t54 11q28 0 53.5 -11t44 -29.5t29.5 -44t11 -53.5q0 -29 -11 -54t-29.5 -43.5t-44 -29.5t-53.5 -11q-29 0 -54 11t-43.5 29.5t-29.5 43.5t-11 54zM60 469q0 28 11 53.5t29.5 44t43.5 29.5t54 11q28 0 53.5 -11t44 -29.5t29.5 -44
t11 -53.5q0 -29 -11 -54t-29.5 -43.5t-44 -29.5t-53.5 -11q-29 0 -54 11t-43.5 29.5t-29.5 43.5t-11 54zM281 454l8 31q-14 0 -18 -12.5t-4 -18.5h14zM180 156q0 5 -0.5 11.5t-4.5 8.5q-11 -3 -11 -15zM239 241l-27 -9q-2 -2 -4 -5l-2 -4q-1 -1 -1 -2q0 -2 4.5 -6.5
t10.5 -9.5t12.5 -9t10.5 -4h2q1 0 1 1z" />
    <glyph glyph-name="semicolon" unicode=";" horiz-adv-x="406" 
d="M65 469q0 28 11 53.5t29.5 44t43.5 29.5t54 11q28 0 53.5 -11t44 -29.5t29.5 -44t11 -53.5q0 -29 -11 -54t-29.5 -43.5t-44 -29.5t-53.5 -11q-29 0 -54 11t-43.5 29.5t-29.5 43.5t-11 54zM79 203h262l-124 -345h-138v345zM113 413q4 0 7.5 2t3.5 7q0 4 -3.5 7.5t-7.5 3.5
q-5 0 -7 -3.5t-2 -7.5q0 -9 9 -9zM283 461l6 24h-4q-11 0 -14.5 -12.5t-3.5 -18.5zM217 -39q1 -1 3 -1h5q5 0 11 3t6 10q0 6 -5 8t-12 4zM205 -9q4 4 4 12t-4 12q-2 1 -3 -3.5t-1 -9.5q0 -11 4 -11zM201 -23h-11q0 -11 11 -16v16z" />
    <glyph glyph-name="less" unicode="&#x3c;" horiz-adv-x="519" 
d="M25 277v195l464 218v-243l-154 -73l154 -72v-243zM352 441q0 -4 5 -7.5t12 -3.5t11 3.5t4 7.5q0 3 -5 8.5t-11.5 11t-13 9.5t-10.5 5q0 -12 4 -19.5t4 -14.5zM245 470q0 -7 5 -9.5t10 -2.5q14 0 14 12q0 8 -14 8q-5 0 -10 -2t-5 -6zM288 477q0 -4 5 -7.5t9 -3.5
q5 0 14 4.5t17 6.5q-5 8 -15.5 11.5t-15.5 3.5q-4 0 -9 -4t-5 -11z" />
    <glyph glyph-name="equal" unicode="=" horiz-adv-x="604" 
d="M574 346v-198h-544v198h544zM574 602v-198h-544v198h544zM185 182q6 4 7.5 16.5t1.5 20.5q-2 0 -9 -2t-7 -8q0 -4 2.5 -13.5t4.5 -13.5zM430 420q4 -2 13.5 -4.5t13.5 -2.5q0 9 -2 15t-2 8q-8 0 -13.5 -5t-9.5 -11zM330 97q0 -4 -3 -12t-7.5 -16.5t-10 -14.5t-9.5 -6
q-12 0 -26.5 6t-25.5 11q-2 1 -5.5 4t-3.5 4q0 2 3.5 10t8 16.5t9.5 15.5t8 7q8 0 12.5 -7.5t5.5 -9.5z" />
    <glyph glyph-name="greater" unicode="&#x3e;" horiz-adv-x="519" 
d="M494 473v-196l-464 -218v243l155 73l-155 73v243zM108 127q0 7 -6 11t-11 4q-14 0 -14 -15q0 -14 14 -14q11 0 17 14zM108 147q8 2 11.5 6t3.5 9q0 6 -2 10.5t-5 8.5t-5.5 9t-3.5 14q-3 0 -6 -5.5t-4.5 -13t-2.5 -14t-1 -9.5q0 -6 4 -10.5t11 -4.5z" />
    <glyph glyph-name="question" unicode="?" horiz-adv-x="636" 
d="M236 320v154h60q20 0 32 6t12 22q0 17 -12 23.5t-32 6.5h-261v218h261q73 0 129.5 -11t95.5 -36.5t59.5 -66.5t20.5 -101t-20.5 -101t-59.5 -66.5t-95.5 -36.5t-129.5 -11h-60zM159 123q0 28 11 53.5t29.5 44t43.5 29.5t54 11q28 0 53.5 -11t44 -29.5t29.5 -44t11 -53.5
q0 -29 -11 -54t-29.5 -43.5t-44 -29.5t-53.5 -11q-29 0 -54 11t-43.5 29.5t-29.5 43.5t-11 54zM75 656q0 -7 7 -12t13 -5q1 0 7.5 4.5t8.5 4.5q2 1 8.5 1.5t7.5 0.5q0 3 -1 11t-2 15.5t-3 13.5t-3 6l-13 -9l-6 -29zM483 688q0 -4 -1.5 -9.5t-1.5 -10.5q0 -13 12 -13
q8 0 10.5 5.5t2.5 11.5q0 13 -10 23t-24 10q-7 0 -12 -4.5t-5 -12.5h29zM424 632v2q0 1 0.5 1t0.5 1q0 14 -9.5 33t-23.5 27l-8 -8q6 -10 12 -19q5 -8 10 -16.5t9 -13.5zM170 630q0 3 -0.5 10t-1 15t-1 15t-0.5 9t-3 5.5t-5 3.5q-6 -11 -7 -18.5t-1 -18.5t4 -16t15 -5z
M518 667q7 0 10 -3.5t4.5 -7.5t4 -7.5t8.5 -3.5q0 11 -3 24t-14 19q-5 -2 -7.5 -9t-2.5 -12zM311 704q-4 -10 -11 -17t-7 -18q8 0 17 2t9 13t-8 20zM500 594q8 6 16 13.5t8 19.5q-12 0 -20 -10t-8 -21v-2q0 -1 1 -2zM46 592q2 -4 6.5 -6.5t9.5 -2.5q3 1 9.5 7.5t6.5 8.5z
M212 216q-2 0 -10 -5.5t-8 -7.5t3 -8.5t5 -8.5zM561 623q9 5 9 19q-12 0 -18 -10zM368 637q10 0 16 11h-16v-11z" />
    <glyph glyph-name="at" unicode="@" horiz-adv-x="1224" 
d="M351 547q-35 0 -56 -11.5t-21 -39.5v-496h-229v496q0 70 20.5 118.5t59.5 78.5t96 43.5t130 13.5h522q73 0 130 -13.5t96 -43.5t59.5 -78.5t20.5 -118.5v-242q0 -70 -16 -118.5t-46 -78.5t-72.5 -43.5t-94.5 -13.5q-56 0 -92.5 15t-53.5 53q-20 -38 -58.5 -53t-83.5 -15
h-101q-59 0 -104 10.5t-75.5 34.5t-46.5 63t-16 95v104q0 56 16 95t46.5 63t76 35t104.5 11h99q58 0 103.5 -11t77 -35t47.5 -63t16 -95v-104q0 -25 22 -25q23 0 23 25v293q0 28 -21 39.5t-56 11.5h-522zM575 307q-11 0 -18.5 -3.5t-8.5 -11.5v-71q0 -16 22 -18h79
q12 0 19.5 4t7.5 14v68q0 10 -7.5 14t-19.5 4h-74zM282 686q4 0 5.5 3.5t1.5 7.5t-1 8t-6 4t-8 -4t-3 -8t3 -7.5t8 -3.5zM120 151q5 0 7 3t2 6q0 10 -9 10q-5 0 -5 -10q0 -3 1.5 -6t3.5 -3zM720 468q-4 -2 -9 -5t-5 -4q0 -5 5 -5q4 0 6 1zM645 438q0 -19 14 -19q5 0 12 2.5
t13 5.5t10.5 6.5t4.5 6.5q0 11 -7.5 16t-8.5 14q-3 0 -9 -4t-12.5 -9t-11.5 -10.5t-5 -8.5zM411 165q11 3 22.5 7.5t11.5 15.5q0 2 -1 4.5t-1 4.5q-13 -3 -22.5 -7.5t-9.5 -15.5v-9zM421 246l-27 -3q0 -22 17 -32zM415 64l-29 11q0 -10 6 -17t13 -13z" />
    <glyph glyph-name="A" unicode="A" horiz-adv-x="935" 
d="M608 750l352 -750h-258l-46 98h-377l-46 -98h-258l352 750h281zM563 296l-96 203l-95 -203h191zM388 541q0 9 7 10.5t14 1.5h6.5t5.5 -1t3.5 -9.5t3.5 -8.5q8 0 11.5 1.5t4.5 1.5q10 -6 14 -11t7 -9t6.5 -7.5t13.5 -5.5v5q0 5 -7.5 17.5t-9.5 17.5q10 -4 15 -4
q16 0 29.5 12t20.5 25q-2 6 -6.5 7t-9.5 1q-9 0 -16 -4t-13.5 -8.5t-13 -8.5t-13.5 -4q-26 0 -48.5 5.5t-51.5 5.5q0 -11 9.5 -20t17.5 -14v4zM614 568q0 1 1 5l2 8t2.5 7.5l1.5 3.5q1 2 6.5 2t11.5 0.5t11 2.5t5 8t-6 8.5t-12 3.5v50q-5 0 -10.5 -4.5t-10.5 -10.5
t-8.5 -12.5t-3.5 -10.5q0 -8 5 -12.5t5 -11.5q0 -5 -2.5 -6.5t-6 -2t-6 -2t-2.5 -5.5q0 -8 4.5 -16t4.5 -16q0 -2 -0.5 -2.5t-0.5 -2.5zM690 -18q-1 -8 -7.5 -17t-15 -16.5t-18 -12.5t-17.5 -5q0 3 4.5 12.5t10 20t10.5 19l5 8.5q6 0 8.5 -6t3.5 -11zM275 207q0 -2 3.5 -5
t5.5 -3q11 0 14 6t3 17t-1 20.5t-8 20.5zM590 195q0 10 -4 23.5t-17 13.5q-8 0 -11 -11.5t-3 -17.5q23 0 35 -20v12zM315 181q13 0 23 9t10 25q-2 2 -11.5 4.5t-12.5 3.5q-5 -11 -7 -21t-2 -21zM372 641q-2 1 -8 3.5t-7 4.5q-2 1 -8.5 8.5t-9.5 7.5t-8.5 -3t-6.5 -5
q5 -6 12 -15t7 -19q8 0 16 5.5t13 12.5zM701 231q9 6 17.5 8t18.5 2q0 3 -5 7t-11 8.5t-12 8.5t-8 6q-6 -2 -7 -6t-1 -9q0 -13 8 -25zM654 440q-6 -2 -7.5 -4.5t-1.5 -7.5q0 -8 3.5 -14.5t12.5 -6.5q6 0 11.5 2.5t5.5 10.5l-1 2v2q-2 3 -11 9t-12 7zM327 551q0 1 -1 4.5
t-2 5.5q-2 1 -6.5 5.5t-9.5 10t-9.5 9.5t-6.5 6q-1 -1 -1 -3v-4q0 -16 10 -25t26 -9zM758 139q-3 8 -9.5 13t-14.5 7l-8 -17q-1 0 -1 -1v-2h33zM464 214q0 10 -11 16.5t-16 8.5q-1 -1 -1 -3.5v-4.5q0 -11 10 -14t18 -3zM557 484q0 -9 3 -20t15 -11q0 12 -6 22.5t-12 20.5
v-12zM637 293q-7 0 -19.5 -4t-12.5 -18q8 6 16 8t16 2v12zM726 167q2 2 5 11.5t3 12.5q0 2 -3 5t-5 3t-5 -3t-3 -5q0 -3 3 -12.5t5 -11.5zM684 530q0 -8 5 -14.5t12 -11.5q0 2 0.5 4.5t0.5 3.5q0 18 -18 18zM661 157q8 0 13.5 5.5t5.5 12.5h-19v-18zM541 416v4q0 7 -8 12
l-8 -8zM260 247h-11q0 -9 11 -16v16zM645 344q11 4 11 15h-11v-15zM260 207v10q-11 0 -16 -10h16z" />
    <glyph glyph-name="B" unicode="B" horiz-adv-x="910" 
d="M552 750q146 0 225.5 -55.5t79.5 -159.5q0 -54 -22 -90t-64 -58q57 -22 86.5 -63.5t29.5 -108.5q0 -111 -79.5 -163t-225.5 -52h-532v750h502zM296 276v-58h286q20 0 32 6.5t12 23.5q0 16 -12 22t-32 6h-286zM296 532v-58h256q20 0 32 6t12 22q0 17 -12 23.5t-32 6.5
h-256zM610 377q5 4 9.5 10.5t9.5 13t11 11.5t14 5q7 0 10 -5t3 -11q0 -17 -9 -25t-20 -13.5t-20 -12t-9 -21.5q0 -6 1 -9q13 16 20.5 21t22.5 5q8 0 14.5 -1t14.5 -8v2q0 1 0.5 1t0.5 1q0 11 -3.5 18.5t-3.5 18.5q17 0 34.5 13t28.5 26q-3 -1 -8.5 -1h-12.5h-12.5t-7.5 1
q-2 0 -5 3t-3 5q-1 4 -2.5 17t-1.5 16q-1 0 -1.5 -0.5t-2.5 -0.5l-32 -8q-12 -2 -14.5 -12.5t-9.5 -19.5q-6 -7 -15 -19t-9 -13zM274 172q0 10 -4.5 14.5t-9.5 7.5t-9.5 6t-4.5 11q0 5 6.5 13.5t14.5 19t14.5 22t6.5 23.5q-9 0 -13 -4.5t-5.5 -11.5t-2.5 -14t-4 -13
q-1 -1 -8 -3.5t-9 -3.5l-14 -14t-9 -11q0 -6 5.5 -18t10.5 -14q1 -1 6 -3t11 -3.5t11 -2.5t7 -1zM295 97l14 -16q0 3 -1.5 12.5t-3.5 11.5q-11 1 -13 8t-2.5 15t-2 15.5t-10.5 10.5q-3 0 -8.5 -4t-10 -9t-8 -11t-3.5 -9q11 0 23 -5.5t12 -18.5q0 -5 -1 -7zM762 634q2 0 2 4
q0 1 -5 4t-11 6.5t-11.5 6.5t-6.5 3q-5 0 -14.5 -6.5t-9.5 -14.5q0 -7 7 -9.5t13 -2.5h2q1 0 2 1zM169 245q0 -13 -7.5 -18t-16.5 -8.5t-16.5 -10t-7.5 -22.5q10 0 20.5 5.5t18.5 14t13 19t5 20.5h-9zM407 45q0 8 2 18t8 17q-8 -4 -18 -10t-19.5 -14t-16 -17t-6.5 -18
q9 0 14 3.5t10 8t10.5 8.5t15.5 4zM434 13q8 7 16.5 8.5t17.5 1.5q0 12 -8.5 21.5t-20.5 9.5h-5v-41zM339 18q-7 10 -8 13.5t-1.5 5.5t-2.5 4t-12 9l-8 8l-8 8q-2 0 -5 -2.5t-3 -4.5q0 -7 5 -14t11.5 -13t14 -10t13.5 -4h4zM563 312q0 -11 7 -17t18 -6q8 0 10 8.5t2 15.5
q0 3 -0.5 4t-0.5 2v1q-11 -5 -18 -6.5t-18 -1.5zM754 117q8 0 17 7.5t9 15.5t-7.5 10.5t-14.5 2.5q-1 0 -1 -0.5t-1 -0.5h-2v-35zM65 537q6 0 17 2.5t14 6.5q1 0 1.5 4.5t0.5 7.5q0 2 -0.5 6t-1.5 6q-8 -3 -20.5 -11t-12.5 -18v-2q0 -2 2 -2zM561 333q1 -1 5 -1.5t6 -0.5
q9 0 14.5 2.5t5.5 14.5q0 5 -4 7t-8 2q-1 0 -1 -0.5t-1 -0.5h-2q-2 -2 -8 -11.5t-7 -11.5zM735 743q-6 2 -15.5 6.5t-9.5 12.5q0 5 1.5 8t6.5 5q10 -5 13.5 -10.5t3.5 -14.5v-7zM63 650q4 11 10.5 25.5t6.5 30.5l-4 8t-5 8q1 -3 1 -9q0 -14 -4.5 -25.5t-4.5 -25.5v-12z
M650 168q5 12 17 16.5t23 4.5q0 4 -0.5 6.5t-0.5 3.5v1q-11 -3 -25.5 -8t-21.5 -16zM506 401q3 10 10 17t7 18q-9 0 -15 -5.5t-11 -13.5q9 -5 9 -16zM779 325q11 0 14 13.5t3 21.5l-10 3zM313 -46q0 9 4 18t15 9l2 -18zM674 306q-3 0 -9.5 -2.5t-6.5 -7.5t4.5 -12t11.5 -7
v29zM128 606q-1 1 -1 2v2q-5 -2 -14.5 -7t-9.5 -13v-2q0 -1 1 -2q5 2 14.5 7t9.5 13zM748 176q0 5 -4 11t-10 6q-1 0 -1 -0.5t-1 -0.5h-2l2 -21zM835 209q-18 0 -18 -19q8 0 14.5 5.5t11.5 13.5h-8zM674 696q5 0 9 3t7 7q-5 9 -12 9h-4v-19zM682 273q-6 -5 -10 -11.5
t-6 -12.5q0 -1 4 -1q8 0 10.5 7.5t2.5 12.5q0 1 -0.5 2.5t-0.5 2.5zM304 369q6 3 11.5 8t5.5 12q-1 1 -1 2v2q-5 -4 -10.5 -8.5t-5.5 -11.5v-4zM826 610v24q-7 -2 -8.5 -10.5t-1.5 -13.5h10zM749 428q6 2 7 6.5t1 9.5q0 2 -0.5 5t-0.5 4q-6 -2 -7 -6.5t-1 -9.5q0 -2 0.5 -5
t0.5 -4zM739 112q0 5 -1 9t-8 6v-7q0 -6 1 -10t8 -6v8zM566 418q4 4 4 12q0 9 -4 13q-2 1 -3 -4t-1 -10q0 -10 4 -11zM216 586q-2 6 -6.5 7t-9.5 1q-1 0 -4 -0.5t-4 -0.5q6 -3 10.5 -5.5t9.5 -2.5h2q1 0 2 1zM552 380l-8 8l-8 -15zM601 428v9l-17 -9h17z" />
    <glyph glyph-name="C" unicode="C" horiz-adv-x="848" 
d="M753 532q-4 6 -11 8q0 -6 1 -8h-275q11 11 15 11h5q2 2 4.5 12.5t4.5 11.5q1 2 12 4.5t12 4.5q1 1 2 6.5t2 12.5t2 13t2 8q0 1 4 3.5t4 3.5v2q0 1 0.5 1.5t0.5 1.5q0 5 -4 8.5t-9 3.5q-7 0 -10.5 -8t-5 -17.5t-2.5 -19t-2 -12.5q-6 -9 -17.5 -13t-23.5 -8.5t-21 -11
t-9 -18.5h-48q-50 0 -78.5 -17t-28.5 -58v-164q0 -41 28.5 -58t78.5 -17h426v-218h-426q-84 0 -150 15.5t-111 50t-68.5 90.5t-23.5 137v164q0 70 18 121.5t52.5 86.5t85 54.5t116.5 26.5q-8 -3 -16.5 -7t-12.5 -6q2 -8 4 -12.5t8 -4.5q11 0 21 8.5t15 16.5q0 3 -5 6
q31 3 67 3h426v-218h-59zM349 25q0 -1 3 -3.5t5 -3.5l8 8l8 8q1 2 3.5 8.5t3.5 7.5q2 2 8.5 4.5t8.5 3.5v2q0 1 0.5 1t0.5 1q0 8 -8.5 15t-16.5 7l-4 -19l-24 -7q0 6 -2.5 11.5t-2.5 12.5q3 6 11 14t16.5 18t15 20.5t6.5 19.5q0 1 -6.5 4t-9.5 4q-1 0 -1.5 0.5t-1.5 0.5
q0 -16 -7.5 -28t-16 -23.5t-16 -23t-7.5 -26.5q0 -2 0.5 -10t0.5 -10q3 -1 12.5 -3.5t12.5 -4.5v-9zM253 582q14 14 16 38q0 7 -3.5 15t-8 16.5t-8.5 17t-5 15.5q-1 0 -1 0.5t-1 0.5t-2 1q-5 0 -7.5 -4t-4 -9.5t-1.5 -11v-9.5q0 -9 6 -16.5t11 -15.5q-2 -8 -2 -11
q0 -11 5.5 -15t5.5 -12zM171 202q8 -5 17 -15t9 -21q0 -8 -5.5 -15.5t-11.5 -12.5q1 0 3.5 -0.5t4.5 -0.5q6 0 11 3.5t9.5 7.5l9 8t10.5 6q-2 6 -6.5 14t-10.5 16.5t-12 15.5t-11 10zM300 197q7 0 11.5 -4t8.5 -9.5t8.5 -9.5t10.5 -4q31 0 31 30q-22 0 -36 6.5t-34 6.5
l-3 -15zM51 267q8 -22 20 -35t38 -13q0 20 -15.5 34t-38.5 14h-4zM710 644q-6 6 -12 12.5t-12 15.5q0 10 8 21q-2 0 -8.5 -2.5t-13.5 -6t-13 -8.5t-6 -11q0 -3 1 -5q6 -12 17.5 -14.5t22.5 -2.5q2 0 8 0.5t8 0.5zM212 90q1 0 4 -0.5t4 -0.5q3 0 10.5 9.5t15 22t14 24.5
t8.5 17q-11 0 -16 -3t-7 -7.5t-3.5 -10t-5.5 -11.5q-1 -1 -8 -3.5t-8 -4.5q-2 -3 -5 -15.5t-3 -16.5zM661 292q0 -21 -6 -35.5t-32 -14.5q0 21 9 33t29 25v-8zM748 780q-8 0 -16 7t-8 15v5l12 8l12 8q8 -3 9.5 -11t1.5 -14zM164 524q-1 3 -2 8.5t-3 10.5q-2 6 -3 13h-18
q0 -12 5 -20.5t5 -19.5q0 -8 -1 -12.5t-5 -9.5q10 10 22 25v5zM220 264q-4 0 -14.5 -4t-10.5 -12q0 -3 1 -5q2 -4 11 -10t13 -6v37zM143 32q-2 -8 -9.5 -15t-15.5 -7v10t1.5 12t4 10t7.5 4t8.5 -4.5t3.5 -9.5zM180 339q-5 8 -11.5 13t-15.5 5v-4.5t1 -9t3.5 -8.5t6.5 -4
q2 0 8 3t8 5zM75 451q4 10 6.5 18t2.5 18q-8 0 -12.5 -8t-4.5 -16q0 -7 8 -12zM308 130q6 4 10 11t6 13q0 1 -3 1q-8 0 -13.5 -6t-5.5 -12l3 -3q0 -1 2 -3zM666 562q1 0 1 1t-0.5 5t-1.5 8.5t-3.5 8.5t-6.5 4q-3 0 -3 -2l0.5 -4t1.5 -8.5t3.5 -8.5t6.5 -4h2zM130 476
q0 -13 10 -16q8 3 8 13l-14 9zM156 578q7 0 12 5t5 13h-17v-18zM152 310q0 -6 3.5 -10t8.5 -9l2 4q1 2 3 3q0 13 -13 17zM260 540q8 5 8 12q0 5 -3.5 8.5t-8.5 3.5h-4zM403 349q0 -8 -6.5 -11t-13.5 -3q0 8 6 12t14 6v-4zM308 677q-5 0 -9 -1t-6 -8l7 -8l16 17h-8zM726 50
q7 -11 16 -11v19zM204 298q7 3 8.5 11.5t1.5 13.5l-8 2zM604 50q0 -11 9 -16l6 20zM753 532q6 -8 6 -12v-4q-13 7 -16 16h10zM573 96q10 0 17 10l-12 4zM67 291q10 4 10 16l-9 3zM171 644l-7 9l-8 -9l2 -7zM765 774h2q1 0 1 0.5t1 0.5q5 0 8.5 -3.5t3.5 -9.5v-4zM344 273
q0 11 10 15v-15h-10zM194 531q-1 0 -2 1q-5 0 -7.5 -1.5t-4.5 -6.5q1 -1 2 -1h2q7 0 12 8h-2zM140 613l-5 -19l12 10z" />
    <glyph glyph-name="D" unicode="D" horiz-adv-x="971" 
d="M411 12q3 0 11 -0.5t17 -1t17.5 -1t11.5 -0.5q0 -1 -0.5 -2.5t-0.5 -2.5t0.5 -2t0.5 -2h-418v750h535q84 0 150 -15.5t111 -50t68.5 -90.5t23.5 -137v-164q0 -81 -23.5 -137t-68.5 -90.5t-111 -50t-150 -15.5h-88q2 6 9 7t7 3q0 10 -5.5 19t-13 15.5t-16.5 11t-15 4.5
v-32q-2 0 -8 2t-13 5.5t-14 7.5t-10 9zM296 532v-314h289q50 0 78.5 17t28.5 58v164q0 41 -28.5 58t-78.5 17h-289zM555 82q-14 0 -16 8t-2 16h34q0 11 3.5 18t8 12.5t8.5 12t4 16.5q-15 0 -23 -5t-13.5 -12t-10.5 -14t-13 -11q-2 -2 -12 -4.5t-12 -4.5q-3 -3 -3 -7
q0 -2 0.5 -4.5t0.5 -4.5q0 -5 -5.5 -8t-25.5 -3q0 -13 3.5 -22t16.5 -9q8 0 11 3t5 7t4.5 7t9.5 3t9 -4t2.5 -9.5t2 -9.5t8.5 -4q11 0 20 10t11 20l2 3q0 2 -3 5t-5 3q-1 0 -7.5 -3.5t-7.5 -4.5h-5zM736 42q4 2 10 7.5t12.5 11.5t14 10.5t13.5 4.5q3 0 7 -2q1 1 2 2.5t4 3.5
q14 13 31 31t27 35l7 15h-31q-2 -29 -18 -46.5t-42 -17.5h-6.5t-6.5 1q-1 -7 -5 -13.5t-8 -12.5t-7.5 -12.5t-3.5 -13.5v-4zM205 -64q-8 0 -17.5 2t-14.5 7q-1 1 -1 5q0 5 0.5 9.5t0.5 7.5q0 5 -9.5 7.5t-14.5 2.5q2 2 8 5t8 3q6 0 13 -5.5t13 -12.5t10.5 -14.5t4.5 -11.5
q0 -1 -0.5 -2.5t-0.5 -2.5zM821 464q-4 3 -7 8.5t-5.5 11t-6 9.5t-9.5 4q-7 0 -14 -9.5t-7 -14.5q0 -7 9 -8.5t19 -1.5q3 0 11 0.5t10 0.5zM708 473q2 -1 5 -1h4q11 0 18 9t7 20q0 6 -5 9t-12 3q-2 0 -5 -3.5t-3 -5.5q-2 -3 -5 -15.5t-4 -15.5zM260 59q0 -14 8.5 -24.5
t22.5 -10.5q0 17 -7 26t-24 9zM680 604l16 16q-2 8 -6.5 9t-9.5 1t-9.5 -1t-6.5 -9zM431 644q-17 0 -17 -12q0 -6 5.5 -10t11.5 -4v26zM237 516q7 5 12.5 7t5.5 4q0 8 -5.5 10t-12.5 3v-24zM808 650q6 0 14 1.5t11 8.5h-25v-10zM447 602q5 0 13 1.5t11 8.5h-24v-10zM527 50
h-9q0 -13 9 -24v24zM849 97q5 0 9 2t6 7h-15v-9zM907 288v-18q4 4 6 5z" />
    <glyph glyph-name="E" unicode="E" horiz-adv-x="862" 
d="M516 161q-5 0 -8 4t-4.5 9t-2 9.5t-1.5 6.5q-1 1 -4 1t-6.5 -0.5t-5.5 -0.5q-3 1 -4.5 4.5t-3.5 6.5l51 5q-6 2 -13 4.5t-12 7.5h310v-218h-762v750h762v-218h-516v-58h458v-198h-458v-58h176q-14 -14 -18.5 -19t-4.5 -6q0 -6 9.5 -13t21 -13t22 -10t12.5 -4zM679 697
q1 0 2 0.5t2 0.5l2 -1h2q1 -1 3 -4.5t4.5 -8t5 -8t4.5 -3.5q3 0 12 4t11 4q3 0 13 -3t12 -5q-1 2 -1 7.5v12.5v12.5t1 7.5q0 2 3 4.5t5 3.5q3 -2 7.5 -8.5t8.5 -14t7 -13.5t5 -6q4 0 4 2q8 13 8 32q-5 16 -16.5 21t-25.5 5q-3 0 -8.5 -0.5t-6.5 -1.5q-6 -6 -11 -18t-5 -22
q-13 13 -25 15t-27 2h-22.5t-13.5 -1q-1 0 -7.5 -4t-8.5 -4q-4 2 -13 9t-11 11q0 -15 7 -21.5t17 -11.5l21 -10.5t19 -17.5zM121 437q10 -8 20.5 -15t23.5 -7q1 0 4 0.5t4 0.5q-2 2 -5 11.5t-3 12.5q0 2 4 8.5t4 7.5t0.5 3.5t0.5 4.5q0 10 -5 21.5t-16 11.5q-8 0 -10.5 -7.5
t-2.5 -13.5t1 -7.5t2 -3.5t2 -7t1 -18h-29zM726 58v12.5t1 7.5l9 16v17q-8 -12 -14.5 -18.5t-18.5 -6.5q-8 0 -16 8t-9 7q-8 -10 -8 -19q0 -8 7 -11t16 -6t18.5 -8.5t14.5 -17.5v19zM348 391q-1 0 -2 1q-10 0 -20 -8.5t-16 -16.5q7 -4 17.5 -6t14.5 -10l8 40h-2zM85 600
q1 -2 5 -9t8.5 -14.5t9.5 -13.5t9 -6l-4 47zM607 629q11 0 23 8t12 20l-26 7zM543 54q-1 2 -1 8q0 11 6.5 22t19.5 11q4 0 7 -1q-2 6 -5 7t-8 1q-11 0 -23.5 -13t-12.5 -23q0 -6 5 -8t12 -4zM519 631q14 0 16 11.5t2 21.5l-28 -5zM188 -47q2 3 11.5 12.5t12.5 11.5
q0 -1 0.5 -5.5t0.5 -6.5q0 -8 -1 -14t-8 -14q-16 3 -16 16zM470 624q3 28 24 40q-1 1 -5.5 1h-6.5q-12 0 -16 -4t-4 -16q0 -7 1 -13t7 -8zM795 796q0 -16 -7.5 -22t-21.5 -6h-3h-3q-1 0 -1 1q8 11 15.5 19t20.5 8zM165 520q0 2 0.5 6t0.5 6q0 12 -8 16.5t-25 4.5zM559 456
q-8 -10 -11 -23.5t-5 -24.5q13 5 15 13t2 19v8t-1 8zM725 228q-2 0 -5.5 3t-3.5 5q0 5 3.5 17t13.5 12q0 -11 -2 -18.5t-6 -18.5zM687 301q0 -19 16 -19h3q2 0 3 0.5t2 0.5q-7 5 -10 15t-11 10h-2q-1 0 -1 -1v-6zM679 22q10 5 15 13.5t5 18.5h-12zM406 88q0 1 0.5 1t0.5 1
q0 6 -2.5 10t-6.5 11q-8 -5 -8 -13q0 -6 4.5 -8t11.5 -3v1zM519 320q7 4 12.5 10.5t5.5 15.5q-18 0 -18 -19v-7zM694 151q0 -8 5 -13.5t13 -5.5v19h-18zM510 593q7 2 14 5.5t10 10.5h-24v-16zM517 424q0 -12 10 -16v16h-10zM414 134q-4 9 -12 9h-4v-9h16zM237 -34q4 -4 4 -8
q0 -6 -4 -8q-3 0 -3 8t3 8z" />
    <glyph glyph-name="F" unicode="F" horiz-adv-x="885" 
d="M852 750v-218h-556v-58h498v-218h-498v-256h-246v750h802zM136 175q-2 2 -8 8.5t-8 7.5q-1 0 -2 0.5t-2 0.5t-2 -0.5t-2 -0.5q-3 -2 -12 -11.5t-12 -12.5q1 0 2 0.5t3 0.5q6 0 16 -2.5t19 -6.5t16 -8.5t8 -7.5q2 -6 2 -14.5t1 -16t5.5 -13t15.5 -5.5q1 0 4 0.5t5 0.5
q0 3 -1.5 11t-3 17t-2.5 17t-2 11q-2 10 -5 13t-7.5 4t-11.5 1.5t-16 5.5zM260 -72q-1 2 -1 6v6q0 14 5.5 21.5t20.5 14.5q6 -2 7 -6.5t1 -9.5q0 -12 -11.5 -20t-21.5 -12zM385 231q0 -2 -0.5 -6.5t-1 -10.5t-1 -11t-0.5 -7t-3.5 -4.5t-5.5 -2.5q-6 2 -7 5.5t-1 8.5
q0 11 4.5 19.5t15.5 8.5zM241 121q0 -11 4.5 -15.5t10.5 -4.5q8 0 12.5 3.5t4.5 14.5zM72 328q1 -1 2 -1h2q9 2 17.5 9.5t10.5 15.5q-1 0 -4 0.5t-4 0.5q-11 0 -16 -7t-8 -18zM284 234q-6 0 -15 -5.5t-9 -11.5q0 -7 5.5 -10.5t11.5 -3.5zM209 100q11 0 14.5 9t3.5 17l-15 -3
zM369 296v27q-7 0 -11 -7t-5 -13zM313 135q-6 2 -7 5.5t-1 8.5v10l16 -16zM104 576l8 -7l8 23zM378 277q-2 0 -3.5 -5t-1.5 -7q0 -1 2 -1.5t4 -0.5q6 0 6 7zM236 -88q0 4 8 4t8 -4q-1 -4 -8 -4t-8 4zM373 151q5 0 7.5 -1.5t4.5 -6.5q-1 -1 -2 -1h-2q-8 0 -12 9h4zM289 167
l-8 8v-16z" />
    <glyph glyph-name="G" unicode="G" horiz-adv-x="945" 
d="M662 218v157h246v-375h-522q-84 0 -150 15.5t-111 50t-68.5 90.5t-23.5 137v164q0 81 23.5 137t68.5 90.5t111 50t150 15.5h522v-218h-522q-50 0 -78.5 -17t-28.5 -58v-164q0 -41 28.5 -58t78.5 -17h276zM558 642q2 4 9 8t14 7.5l12 6t5 3.5l-24 47q0 -12 -7.5 -14
t-16.5 -2q-1 1 -7.5 5t-8.5 4t-5 -3.5t-3 -5.5q0 -16 8 -16q5 0 11.5 3t12.5 3v-46zM463 630l4 6q1 3 3 6q2 2 4.5 11.5t3.5 13.5q-25 0 -30 -2.5t-5 -10.5q-2 0 -2.5 -2t-0.5 -3q0 -4 9 -10t14 -9zM309 147q-5 0 -10.5 -4t-10 -9t-8 -9l-3.5 -4q5 -8 14 -13t18 -5v44z
M102 32h1q1 0 1 0.5t1 0.5q13 0 13 -13q0 -8 -9.5 -13.5t-14.5 -7.5zM108 554q12 0 18.5 11t6.5 22q-1 1 -1 3v4q-13 -25 -31 -40h7zM251 155q0 -11 3 -20t16 -9q0 9 -4 19t-15 10zM181 144l-9 24q-1 0 -4 -2.5t-3 -4.5q0 -7 3 -12t8 -5h5zM253 72v6q-11 0 -16 10l3 -19z
M871 185q-3 8 -12 8q-1 0 -1 -0.5t-1 -0.5h-1l8 -15zM355 767v16l8 -8z" />
    <glyph glyph-name="H" unicode="H" horiz-adv-x="932" 
d="M882 0h-246v266h-340v-266h-246v750h246v-266h340v266h246v-750zM645 372q1 0 4 1q2 0 4 0.5t4 0.5q11 0 16 -9t5 -20q0 -6 -2 -14q12 0 14.5 4.5t2.5 11.5q0 10 -4 18.5t-4 18.5q0 9 3.5 16t8 14t8.5 14t4 16q0 7 -1.5 12t-6.5 12q0 -2 -1 -9t-3 -14t-6 -12.5t-11 -5.5
t-9 4.5t-2 10.5q0 4 0.5 8t0.5 9q0 7 -2.5 12t-10.5 5q-3 0 -9 -6t-12 -13.5t-11 -14t-5 -7.5t2.5 -4t5.5 -7t5.5 -7.5t2.5 -4.5q2 -6 2 -19q0 -12 -1 -23.5t-1 -16.5q1 5 3.5 11t5.5 8zM717 291q-15 2 -26 10.5t-24 8.5q0 -5 0.5 -12.5t2 -14t5 -11.5t9.5 -5q3 0 8.5 2.5
t11 5.5t9.5 6.5t4 5.5v4zM765 195q0 -2 -0.5 -8t-0.5 -8q0 -11 3 -16t8 -7.5l11 -5.5t11 -11q6 1 7.5 6.5t1.5 14.5q0 7 -4.5 12t-11 8.5t-13.5 7t-12 7.5zM833 657q0 3 1.5 14t3.5 14q0 5 7.5 10.5t7.5 6.5q0 4 -2.5 9t-4.5 6q-1 -1 -6.5 -5t-11.5 -9t-10.5 -9t-4.5 -5
q0 -8 6.5 -20t13.5 -12zM820 386q7 0 13.5 5t11 12t7 15t2.5 14q0 13 -13 13q-1 0 -1 -0.5t-1 -0.5h-1q-2 -19 -10 -31t-8 -27zM834 463q15 1 17.5 15.5t2.5 27.5q0 6 -1 11t-7 7q-2 0 -5 -3t-3 -5q0 -3 -1 -10.5t-1.5 -16t-1 -16t-0.5 -10.5zM835 203l-6 40l-4.5 -3.5
t-9.5 -8t-9 -10.5t-4 -10zM812 379q-12 0 -21.5 -6t-9.5 -19q0 -2 0.5 -3t0.5 -3q2 0 3 -0.5t3 -0.5q13 0 18.5 9.5t5.5 22.5zM733 693h-10q0 -4 0.5 -11t2 -13.5t4 -11.5t7.5 -5q2 0 7 2t5 7zM605 428q-5 -2 -14 -11t-11 -13q0 -8 3.5 -12.5t8.5 -4.5q4 0 6.5 5t4 11.5
t2 13.5t0.5 11zM227 377q12 0 22.5 2.5t10.5 15.5q0 2 -0.5 5t-0.5 4l-32 -16v-11zM639 -25l-12 -6t-14 -3q0 7 3 13.5t7 12.5zM818 537l-13 -5q7 -10 17 -10zM492 364q10 3 10 16l-14 -2zM789 668v11q-11 0 -16 -11h16zM203 420q-1 0 -1 0.5t-1 0.5h-2q-6 0 -8.5 -6
t-3.5 -11z" />
    <glyph glyph-name="I" unicode="I" horiz-adv-x="346" 
d="M296 0h-246v750h246v-750zM155 48q13 0 20.5 8t7.5 19q-10 0 -21 -5.5t-11 -17.5v-4h4zM119 587q8 5 13.5 11t5.5 15q-7 0 -17 -2t-10 -13q0 -7 8 -11zM215 121q0 2 -3.5 3t-8.5 1q-11 0 -11 -4q1 -4 11 -4q9 0 12 4zM136 552q7 0 13.5 5t11 12t7 15t2.5 14q0 13 -13 13
q-1 0 -1 -0.5t-1 -0.5h-1q-2 -19 -10 -31t-8 -27zM128 545q-12 0 -21.5 -6t-9.5 -19q0 -2 0.5 -3t0.5 -3q2 0 3 -0.5t3 -0.5q13 0 18.5 9.5t5.5 22.5z" />
    <glyph glyph-name="J" unicode="J" horiz-adv-x="514" 
d="M115 218q50 0 78.5 17t28.5 58v457h246v-457q0 -81 -23.5 -137t-68.5 -90.5t-111 -50t-150 -15.5h-102v218h102zM278 62q-3 5 -5.5 16t-5.5 22t-7 19t-10 8q-5 0 -11.5 -6t-8.5 -11q0 -7 3.5 -15.5t8.5 -15.5t11.5 -12t12.5 -5h12zM115 -20q5 -2 13.5 -11t10.5 -14
q1 -2 1 -5q0 -7 -6 -9.5t-11 -2.5q-11 0 -13.5 6t-2.5 20q0 2 3 8t5 8zM321 126q-8 -4 -13.5 -15t-5.5 -17q0 -5 3.5 -11t10.5 -6zM29 78q9 4 9 12q0 7 -5 9t-12 4q0 -2 -0.5 -5t-0.5 -4q0 -5 1 -9.5t8 -6.5zM435 632q0 6 -4 14t-8 10q-11 -5 -11 -16zM203 68q6 0 12.5 3
t6.5 11l-1 2v2q-7 -1 -12.5 -5.5t-5.5 -12.5zM423 263q2 2 5 8t3 8t-3 8.5t-5 7.5v-32zM390 592l-7 24q-11 -5 -11 -16zM278 124q5 0 9.5 3t6.5 7h-16v-10zM125 126v17l-8 -9z" />
    <glyph glyph-name="K" unicode="K" horiz-adv-x="892" 
d="M296 409l290 341h293l-300 -352l338 -398h-293l-328 385v-385h-246v750h246v-341zM701 697q-28 0 -28 -25q0 -12 17 -12q1 0 4 3t4 5q1 3 2 14.5t1 14.5zM184 668q0 -2 3 -5t5 -3q5 0 11 2.5t6 9.5l-1 2v1zM252 442q5 0 13 3t10 8l-5 5q-2 0 -10.5 -5.5t-11.5 -10.5h4z
M754 442q-4 0 -5.5 3.5t-1.5 5.5q0 8 7 8q4 -4 4 -9q0 -6 -4 -8zM239 483q4 2 4 8q0 2 -2 5t-3 3q-2 0 -2 -8t3 -8zM550 376q1 -2 1 -8v-13v-12.5t-1 -7.5q-1 -5 -4.5 -7t-8 -3t-8 -3t-3.5 -7q0 -8 10.5 -13.5t13.5 -6.5q5 2 8 8t4.5 12t2 12t1.5 8t5.5 3.5t8.5 3.5t7.5 5
t3.5 8q0 3 -1 5q-2 4 -10.5 13.5t-15.5 9.5q-3 0 -7.5 -2.5t-6.5 -4.5zM470 383q6 -10 13.5 -14.5t15 -6.5t12.5 -4t7 -7q20 11 20 35q-11 0 -14.5 -5.5t-13.5 -5.5q-5 0 -8.5 2.5t-6 6t-5.5 6t-8 2.5q-8 0 -12 -9z" />
    <glyph glyph-name="L" unicode="L" horiz-adv-x="809" 
d="M296 218h505v-218h-751v750h246v-532zM160 623q-13 0 -24 -9q3 -7 11 -8.5t13 -1.5v19zM136 52l-8 16q-10 -7 -10 -16h18zM216 140q3 -5 5 -7t7 -2q7 0 12 9h-24zM168 534h-4q-5 0 -8.5 -3.5t-3.5 -8.5l7 -8zM302 94q14 0 16 11.5t2 21.5l-28 -5zM253 87q3 28 24 40
q-1 1 -5.5 1h-6.5q-12 0 -16 -4t-4 -16q0 -7 1 -13t7 -8zM293 56q7 2 14 5.5t10 10.5l-18 10z" />
    <glyph glyph-name="M" unicode="M" horiz-adv-x="1072" 
d="M776 750h246v-750h-246v405l-240 -282l-240 282v-405h-246v750h246l240 -282zM907 416q4 5 9 11t12 6t11.5 -6t7.5 -11q7 12 13.5 14t12 3t9.5 4.5t6 18.5q0 5 3 20t5 20q-1 0 -4 0.5t-4 0.5q-11 0 -22 -4.5t-19 -12.5v-12q0 -7 -6 -11.5t-13.5 -9t-13.5 -10t-7 -14.5v-7
zM892 230q7 11 14.5 15.5t13.5 9t9.5 11t3.5 21.5q0 2 -0.5 4t-0.5 5v7l-16 9q-1 -20 -10 -36.5t-23 -28.5zM948 104q-1 -1 -2.5 -5.5t-3 -9.5t-2.5 -10t-1 -6q0 -11 4.5 -14.5t11.5 -3.5q12 0 14.5 10.5t2.5 19.5q0 10 -3 15t-14 5q-1 0 -3.5 -0.5t-3.5 -0.5zM853 396
q0 22 -8.5 28.5t-31.5 8.5l-2 -2q-1 -1 -1 -2v-1q0 -14 15 -23t28 -9zM577 537q-4 0 -11 2t-13.5 5.5t-11 8t-4.5 10.5l35 8zM837 241q0 -8 -2 -13t-4.5 -9t-5.5 -8.5t-6 -11.5q2 -1 6 -2t6 -1q15 0 17.5 8.5t2.5 25.5q0 3 -5 7t-9 4zM819 137q14 4 19 8t5 15q0 5 -1 10
t-7 7q-12 -5 -15 -11.5t-3 -16.5q0 -2 0.5 -6t1.5 -6zM282 -39q12 8 16 24q1 -1 5.5 -4.5t9.5 -8t8.5 -10t3.5 -10.5q-11 0 -22 3t-21 6zM915 129q-12 -2 -22.5 -7.5t-10.5 -19.5q11 0 22.5 2.5t11.5 16.5q0 1 -0.5 4t-0.5 4zM706 46q-11 0 -18.5 9.5t-7.5 20.5q0 2 0.5 6.5
t0.5 6.5q10 -8 17.5 -19t7.5 -24zM737 466q8 3 9.5 12.5t1.5 14.5q-5 0 -14.5 -1.5t-12.5 -9.5zM811 450l16 32h-2q-1 0 -2 1q-11 0 -17.5 -12t-6.5 -21h12zM644 267q-5 0 -11 -0.5t-11 -4.5t-6.5 -11t-1.5 -12q11 0 20.5 8.5t9.5 19.5zM828 528q0 6 -3 12.5t-6 11.5
q-5 -3 -12 -9.5t-7 -14.5h28zM489 349q0 12 -14.5 16.5t-26.5 4.5q3 -5 9 -9t12.5 -7t11.5 -5t7 -3zM288 781q-5 4 -9 10t-7 12q0 3 8 3q3 0 9.5 -1t6.5 -8q0 -2 -3 -8t-5 -8zM781 599q2 -8 12 -8q5 0 8.5 3.5t3.5 8.5q0 8 -9 12zM718 240q0 -5 -3.5 -9t-8.5 -5q-1 1 -1 3v4
q0 8 1.5 12.5t7.5 11.5zM867 137q-8 -2 -13.5 -6t-5.5 -13q6 0 13 3t7 11q0 1 -0.5 2.5t-0.5 2.5zM851 683q8 2 13.5 6t5.5 12q-6 0 -12.5 -3t-6.5 -11v-4zM332 -81l-2 25q8 -2 9 -10t1 -13zM798 726q-1 0 -4 -3t-3 -5q0 -3 3 -12.5t4 -12.5v33zM569 322h-10q0 -13 10 -16
v16zM811 40q-7 -2 -8 -6.5t-1 -9.5v-8z" />
    <glyph glyph-name="N" unicode="N" horiz-adv-x="936" 
d="M640 345v405h246v-750h-246l-344 405v-405h-246v750h246zM273 197q-4 1 -13.5 7t-10.5 8t3 8.5t5 8.5q0 3 1 14.5t1 14.5q-16 0 -24.5 -5.5t-14.5 -13.5t-11.5 -17t-15.5 -17q10 -5 21 -11.5t19 -12.5q4 -3 6 -9t3.5 -11.5t3.5 -9.5t7 -4q1 0 2 0.5t2 0.5zM642 301
q-1 0 -4 -3l-4 -4q-2 -6 -5 -21.5t-3 -19.5q0 -6 3 -11.5t9 -5.5q7 0 7.5 5.5t4.5 11.5t8 7t8 1t8 1t8 7q3 3 4.5 8t1.5 10t-1 7q-6 0 -12.5 -5.5t-8.5 -11.5zM549 -150q-8 0 -16 7.5t-8 15.5q0 9 1.5 15.5t6.5 17.5q1 -1 6.5 -5.5t11.5 -9t10.5 -8.5t4.5 -5
q0 -5 -5.5 -16.5t-11.5 -11.5zM815 799h9t12 -1t10 -3.5t4 -6.5q0 -10 -2.5 -20t-13.5 -10q-13 0 -16 9t-3 20v12zM820 739q-9 0 -23 -7t-14 -19q5 0 14.5 -1.5t12.5 -9.5q7 2 10.5 9.5t3.5 15.5zM584 -42q0 17 -6 28t-6 25q9 0 18.5 -4.5t15.5 -12.5q-5 -2 -7.5 -8t-4 -12
t-3.5 -11t-7 -5zM184 349q0 1 0.5 4t0.5 5q0 9 -4 11.5t-14 2.5q0 4 0.5 6t0.5 4q0 3 -8 8q0 -2 -1 -6.5t-1 -6.5q0 -11 5.5 -18.5t20.5 -9.5zM233 454q-1 6 -4.5 17.5t-13.5 11.5q0 -7 2.5 -18.5t10.5 -11.5q1 0 2.5 0.5t2.5 0.5zM264 66q8 0 13.5 5.5t5.5 12.5l-15 3z
M730 285q2 -6 6.5 -12.5t9.5 -11.5q0 1 0.5 3.5t0.5 4.5q0 6 -2 12t-10 6q-1 -1 -2 -1q-1 -1 -2 -1h-1zM497 558q-10 6 -10 18q14 0 19 -9zM586 241q0 5 -2 9t-5 9q0 3 -5 -8q0 -10 12 -14v4zM741 108q0 11 -11 17l4 -22zM598 -86v16l15 -16h-15zM586 306q0 1 -1 1
q-2 0 -2 1l-13 -14q1 -1 2 -1h2q5 0 8.5 3.5t3.5 9.5zM573 -70v8h9z" />
    <glyph glyph-name="O" unicode="O" horiz-adv-x="986" 
d="M600 750q84 0 150 -15.5t111 -50t68.5 -90.5t23.5 -137v-164q0 -81 -23.5 -137t-68.5 -90.5t-111 -50t-150 -15.5h-214q-84 0 -150 15.5t-111 50t-68.5 90.5t-23.5 137v164q0 81 23.5 137t68.5 90.5t111 50t150 15.5h214zM600 218q50 0 78.5 17t28.5 58v164
q0 41 -28.5 58t-78.5 17h-214q-50 0 -78.5 -17t-28.5 -58v-164q0 -41 28.5 -58t78.5 -17h214zM387 692q-9 0 -18 -5.5t-9 -15.5q7 0 11.5 -2t8.5 -4.5t8 -4.5t11 -2q0 10 -2 18t-6 16h-4zM471 596q18 13 18 35h-5.5t-9 -1t-8 -3.5t-3.5 -6.5q0 -2 3 -12t5 -12zM830 404
q6 0 16.5 2.5t10.5 8.5q0 5 -7 13.5t-9 13.5zM303 580q1 -2 7 -5t8 -3q8 0 9.5 11t1.5 18q-9 0 -17.5 -5t-8.5 -16zM527 711q-5 0 -10.5 -4t-5.5 -10q0 -4 6 -15t10 -13v42zM351 554v23q-5 0 -8 -4t-5 -9t-3 -10t-1 -6zM343 -65q-11 0 -16 11q2 4 6.5 7t9.5 3v-21zM262 588
q-4 10 -18 10q0 -12 10 -18zM804 552q0 -1 2.5 -3t4.5 -2q6 0 6 7l-2.5 5t-2.5 3q-2 0 -5 -4t-3 -6z" />
    <glyph glyph-name="P" unicode="P" horiz-adv-x="927" 
d="M296 114v-114h-246v750h502q84 0 150 -15.5t111 -50t68.5 -90.5t23.5 -137v-50q0 -81 -23.5 -137t-68.5 -90.5t-111 -50t-150 -15.5h-256zM296 532v-200h256q50 0 78.5 17t28.5 58v50q0 41 -28.5 58t-78.5 17h-256zM662 318q1 4 7 9.5t8 6.5q1 0 10.5 -3.5t14.5 -5.5
q2 -1 8.5 -4t7.5 -3q7 0 8 7.5t1 12.5q0 14 -9 17t-21 3q-14 0 -24.5 -8.5t-10.5 -24.5v-7zM816 719v4q0 7 8 12q5 -4 11 -12t6 -13t-6 -13t-11 -11zM618 388q2 2 11 8l12 8q3 -2 5.5 -7t2.5 -8t-5.5 -9.5t-9.5 -8.5q-8 1 -10.5 5t-5.5 12zM263 642q11 7 18.5 14t7.5 19
q0 1 -0.5 3.5t-0.5 3.5l-32 -23zM304 240q-7 5 -10 15.5t-10 10.5q-6 0 -9 -6t-3 -11q0 -7 7 -8t12 -1h13zM148 741q0 -11 9.5 -17t17.5 -9q0 1 0.5 3.5t0.5 3.5q0 13 -8.5 16t-19.5 3zM801 526q9 -5 9 -16q0 -2 -1 -5t0 -2q6 4 11 8t5 10q0 4 -2 8t-7 4q-2 0 -8 -2.5
t-7 -4.5zM670 365q8 2 15.5 9t7.5 16q0 2 -2.5 5t-4.5 3zM75 -67q-2 0 -9 2t-7 7q0 3 3 9t5 8q8 -12 8 -26zM804 549q13 0 18 9q-2 0 -4.5 2.5t-3.5 2.5q-10 0 -10 -14zM175 129q10 3 10 15h-10v-15zM256 256l-17 17v-5q0 -5 3.5 -8.5t8.5 -3.5h5z" />
    <glyph glyph-name="Q" unicode="Q" horiz-adv-x="986" 
d="M370 0q-81 1 -143.5 17.5t-105.5 51t-65.5 90t-22.5 134.5v164q0 120 51.5 186t147.5 90q-1 -4 -1 -8.5v-7.5q2 0 10 2t8 8q0 1 -4 9q65 14 141 14h214q84 0 150 -15.5t111 -50t68.5 -90.5t23.5 -137v-164q0 -79 -22.5 -134.5t-65.5 -90t-105.5 -51t-143.5 -17.5v-120
h-246v120zM249 237q2 5 8.5 16t15.5 11q3 0 8 -3q0 2 0.5 3t0.5 3q9 -26 36 -37.5t68 -11.5h214q50 0 78.5 17t28.5 58v164q0 41 -28.5 58t-78.5 17h-214q-50 0 -78.5 -17t-28.5 -58v-153l-6 -2q-1 -1 -3.5 -8t-4.5 -8q-5 -4 -9 -4q-3 0 -4.5 2t-3.5 2q-3 0 -7 -9
q-3 -5 -5.5 -11.5t-2.5 -12.5q0 -3 6.5 -9t9.5 -7zM190 206q0 -5 3 -7t6.5 -3.5t6.5 -3.5t3 -6q0 -18 -8.5 -30t-8.5 -27q0 -12 5.5 -24.5t19.5 -12.5h5q2 0 3 1l23.5 23.5t12 13t4.5 6l1 1.5q0 5 -2 10.5t-7 9.5q-11 -32 -47 -32q0 21 9 40t9 41h-38zM264 -50q0 4 11 10.5
t25.5 12t27.5 9.5t18 4q0 -2 2 -10t2 -12q0 -16 -2.5 -29.5t-12.5 -13.5q-11 0 -17.5 4.5t-12.5 10t-15 10t-26 4.5zM152 93q8 6 16.5 16t8.5 20q0 11 -8.5 19.5t-8.5 18.5q0 4 1 6q-3 -1 -10 -4.5t-14.5 -7t-14.5 -7.5t-10 -5q-8 -5 -8 -12q0 -10 10.5 -11.5t18.5 -1.5
q7 0 9 5t10 5q2 0 5 -0.5t4 -0.5q-5 -11 -7 -17t-2 -15v-8zM675 790q0 2 3 10t7 18t10 18t12 10q5 0 9.5 -2t6.5 -6q1 -2 2 -10t1 -10q0 -16 -8.5 -26.5t-26.5 -10.5q-5 0 -9.5 1t-6.5 8zM724 780q10 5 11 12t2.5 13t6.5 10.5t22 4.5q0 -11 -1.5 -21t-8.5 -19q2 1 5 1
q7 0 10 -8.5t3 -14.5q-12 0 -28.5 3.5t-21.5 18.5zM742 177q-6 3 -10.5 10t-8 15.5t-5 17.5t-1.5 15q-11 0 -13.5 -11.5t-2.5 -19.5q0 -15 4 -25t13 -26zM751 160q-1 -1 2 -4t5 -3q2 -1 10 -2t10 -1q0 3 -1.5 17t-2.5 17q0 2 -3 5t-5 4zM771 414q5 2 8 8t5 12.5t2.5 12
t0.5 7.5t-3 5.5t-5 3.5q-5 -6 -10.5 -10.5t-5.5 -10.5zM136 503q-14 -8 -21.5 -21t-7.5 -28h14zM498 28q5 -6 12.5 -11t15.5 -5q1 0 2.5 0.5t2.5 0.5q0 3 -3.5 12.5t-5.5 11.5h-3q-2 0 -2.5 0.5t-1.5 0.5q-5 0 -10 -1.5t-7 -8.5zM271 -64h11q0 -11 -10 -22t-21 -11h-2
q-1 0 -2 1zM856 424l4 -2l1 -1q5 -4 8 -11t8 -7q1 2 3 5l4 6l-9 25zM769 544q0 -6 3.5 -12t10.5 -6h2q1 0 2 1q3 0 12 3l12 4q-20 10 -42 10zM359 605q11 0 18.5 7t16.5 11q0 2 -3.5 5t-5.5 3q-9 0 -17.5 -8.5t-8.5 -17.5zM771 664q6 -8 16.5 -14.5t15.5 -9.5v2q0 1 0.5 1
t0.5 1q0 22 -20 22q-2 0 -6.5 -0.5t-6.5 -1.5zM868 181q-8 -5 -14 -7t-14 -2q0 -8 10.5 -12t17.5 -4v25zM801 96q0 -6 1 -15.5t9 -11.5q2 0 5.5 3t3.5 5q0 8 -5.5 13.5t-13.5 5.5zM273 727q3 -8 12 -9t14 -1q0 7 -3 13t-10 6q-9 0 -13 -9zM777 634q0 -6 1 -14.5t9 -11.5
q9 5 9 12q0 8 -6.5 11t-12.5 3zM912 357q9 0 11 7.5t2 13.5q0 2 -0.5 6t-0.5 6q-8 -5 -11.5 -15.5t-4.5 -17.5h4zM770 713l-7 -10q0 -5 1 -9t7 -6l16 17zM554 101q2 0 5 3t3 5q0 3 -3 12.5t-5 11.5q-2 -2 -5 -8t-3 -8t3 -8t5 -8zM739 206q8 4 13.5 10.5t5.5 15.5
q-20 0 -20 -19v-4q0 -2 1 -3zM287 -24l-24 -17v5q1 8 6 11.5t10 8.5zM482 639q8 6 16.5 8t18.5 2q0 5 -4 8.5t-7 5.5zM683 712q-9 -5 -9 -13q0 -5 5 -10t9 -10zM209 326q-7 5 -11.5 6.5t-12.5 1.5h-9v-8h33zM233 74q5 0 13.5 1.5t10.5 8.5h-24v-10zM860 486q-2 0 -5.5 -3
t-3.5 -4q0 -4 3.5 -13.5t5.5 -11.5v32zM787 213q0 -7 3 -17t5 -15v32h-8zM201 366l2 -1h1q8 0 10.5 7.5t2.5 13.5v4zM827 722l-8 16q1 0 2 0.5t2 0.5q8 0 12 -9zM665 736q0 -10 10 -17l4 11zM161 543l-9 -24h9v24zM241 743q2 -3 4 -7l-13 -3q3 8 9 10z" />
    <glyph glyph-name="R" unicode="R" horiz-adv-x="933" 
d="M552 750q84 0 150 -15.5t111 -50t68.5 -90.5t23.5 -137q0 -104 -38.5 -167t-110.5 -93l167 -197h-293l-139 164h-195v-164h-246v750h502zM296 532v-150h256q50 0 78.5 17t28.5 58t-28.5 58t-78.5 17h-256zM185 652l8 7q7 -8 17 -16t23 -8q4 3 10 9t6 8q0 6 -8 15.5
t-18.5 18.5t-20 15.5t-12.5 6.5h-5q-1 0 -7.5 -4t-8.5 -5q-11 -3 -21 -5.5t-17 -7t-11 -12.5t-4 -22h69zM782 107q5 0 8.5 5t3.5 13q-3 15 -9.5 20t-18.5 5q-2 0 -6.5 -0.5t-5.5 -1.5q0 -4 2.5 -10.5t6.5 -13t9 -11.5t10 -6zM246 605q5 0 12.5 0.5t14.5 2t12 5t5 10.5
q-1 1 -1 3q-1 2 -1 5q-2 2 -5 2q-5 0 -12 -2.5t-13.5 -6.5t-11 -7.5t-4.5 -4.5zM505 457q-8 0 -14.5 -3.5l-13 -7t-14 -7t-16.5 -3.5q0 9 7.5 15t17 9t19 4.5t14.5 1.5v-9zM151 212v14q-10 0 -21 -3.5t-11 -17.5q0 -2 3 -5t5 -3zM290 230q-3 -17 -19 -17q0 -7 3 -15.5
t8 -13.5q5 11 6.5 18t1.5 18v10zM336 638q0 1 -0.5 5t-2 8.5t-3.5 8.5t-6 4t-5 -1v-25h17zM666 339q6 0 14 2t11 10l-25 7v-19zM159 84q-1 6 -3.5 12t-8.5 6q-1 0 -1 -0.5t-1 -0.5h-2l6 -25zM858 205l8 7q7 -2 8 -6t1 -9q0 -1 -0.5 -4t-0.5 -4zM306 248q1 -1 2 -1h2
q6 0 8.5 6t3.5 11q0 1 -4 1q-6 0 -8.5 -5.5t-3.5 -11.5zM219 61q0 7 -7 10.5t-13 4.5l-3 -9zM682 406q-3 9 -12 9h-4v-17zM594 495q11 8 20 8l2 -1h2l-16 -15zM577 277q4 4 4 12t-4 12q-2 1 -3 -4t-1 -10q0 -9 4 -10zM707 471v16q-11 -5 -11 -16h11zM545 487v-2q0 -1 1 -2
q0 -13 -12 -13q-1 0 -2.5 0.5t-2.5 0.5zM755 438q4 2 4 8q0 5 -4 9q-5 0 -5 -8q0 -3 1.5 -6t3.5 -3zM755 378q0 8 -8 13v-5q0 -7 8 -12v4zM642 519q4 2 4 8q0 2 -2 5t-3 3q-2 0 -2 -8t3 -8zM272 647l-9 8v-17zM698 366v8h-16zM658 374l-7 17v-17h7zM554 431l8 7l8 -7h-16z
" />
    <glyph glyph-name="S" unicode="S" horiz-adv-x="869" 
d="M815 750v-218h-498q-19 0 -30.5 -6.5t-11.5 -23.5q0 -15 11.5 -21.5t30.5 -6.5h235q69 0 122 -12.5t90 -40.5t56 -73t19 -111t-19 -111t-56 -73t-90 -40.5t-122 -12.5h-498v218h498q19 0 30.5 6.5t11.5 23.5q0 15 -11.5 21.5t-30.5 6.5h-235q-69 0 -122 12.5t-90 40.5
t-56 73t-19 111t19 111t56 73t90 40.5t122 12.5h498zM116 100q23 10 50 10q4 0 7.5 -0.5t7.5 -0.5q-5 3 -15 12t-19.5 19t-17.5 17.5t-9 7.5t-1.5 -1t-2.5 -2q-2 -2 -4 -3zM188 69q2 -2 14.5 -5.5t18.5 -3.5q18 0 18 17q0 6 -6 9.5t-14.5 5.5t-17 3.5t-13.5 4.5
q0 -2 -1.5 -8t-1.5 -8v-4.5t1 -4.5zM703 623q-2 6 -7 7t-10 1q-11 0 -14 -10t-3 -18q9 0 19.5 1.5t20.5 5.5t17 11t9 18zM633 725q-15 0 -26 -12.5t-11 -27.5q20 0 28.5 11t8.5 29zM614 44q-3 -1 -12 -3.5t-12 -4.5q5 -10 10.5 -13.5t13.5 -3.5q7 0 12 3t5 10q0 5 -3.5 8.5
t-8.5 3.5h-5zM261 486q-14 0 -22 -15.5t-10 -24.5q1 -1 2 -1h2q12 0 20.5 11t8.5 22q0 2 -0.5 4.5t-0.5 3.5zM445 663q-8 4 -11 15t-4 17q-6 -8 -9 -17.5t-3 -17.5zM299 34q6 0 15 1t11 9q-4 9 -12 9t-11 -6.5t-3 -12.5zM678 -32q0 -8 -3.5 -17.5t-14.5 -9.5q0 10 5 20
t13 15v-8zM92 571q8 0 12 7t4 12t-5 5.5t-11 3.5v-28zM701 3q0 -17 -19 -20q2 20 19 20zM582 93q-8 -5 -8 -12q0 -6 2.5 -10.5t5.5 -10.5v33zM638 647q4 5 7 11t3 13l-8 5zM445 76q-3 9 -12 9q-4 0 -4.5 -4t-3.5 -9zM103 722q2 2 8 5t8 3t5 -2.5t3 -9.5zM743 76v17l-8 -9z
" />
    <glyph glyph-name="T" unicode="T" horiz-adv-x="824" 
d="M809 750v-218h-274v-532h-246v532h-274v218h794zM672 735q-2 7 -6.5 8t-9.5 1q-1 0 -4 -0.5t-4 -0.5q6 -4 8.5 -9t8.5 -5l1 1q1 0 3 2q2 1 3 3zM242 457q-3 1 -9.5 7t-6.5 9q0 6 2.5 12.5t5.5 11.5q4 9 7 9q2 0 3.5 -2t4.5 -2q4 0 9 4q2 1 4.5 8t3.5 8q2 1 8.5 2.5
t8.5 1.5q0 -12 -2.5 -21.5t-6.5 -23.5q-5 3 -8 3q-9 0 -15.5 -11t-8.5 -16zM330 528q-7 5 -11 12.5t-12 7.5l-10 -12l6 -11zM190 605l-16 -24l2 -1h1q8 0 10.5 7.5t2.5 13.5v4z" />
    <glyph glyph-name="U" unicode="U" horiz-adv-x="960" 
d="M914 293q0 -81 -23.5 -137t-68.5 -90.5t-111 -50t-150 -15.5h-162q-84 0 -150 15.5t-111 50t-68.5 90.5t-23.5 137v457h246v-457q0 -41 28.5 -58t78.5 -17h162q50 0 78.5 17t28.5 58v457h246v-457zM684 195q0 -7 -1.5 -17t-1.5 -21q0 -1 3.5 -4.5l4.5 -4.5
q4 -6 4.5 -14.5t0.5 -17.5t2 -16t8 -8q7 16 8 27t1 26q0 14 -4.5 22.5t-4.5 21.5q0 16 7.5 30t17.5 26q-5 -4 -10.5 -5t-10 -2.5t-7.5 -5t-4 -11.5q-8 6 -16.5 8t-17.5 2v-5.5t1 -4.5q2 -2 10.5 -8t9.5 -8v-10zM640 553q-5 0 -10.5 -4t-5.5 -10q0 -14 11 -29.5t22 -23.5
q-2 0 -8.5 -0.5t-8.5 -0.5q-18 0 -25 12.5t-7 29.5q0 14 8 24.5t24 10.5v-9zM600 28q0 3 -1 9.5t-2 14.5t-2 14.5t-2 9.5q-1 2 -4 5t-5 3q-11 -5 -14 -20t-3 -24q0 -8 10.5 -10t22.5 -2zM169 -22q0 9 6 12.5t14 5t16 2t13 4.5v-7q0 -13 -7.5 -16t-21.5 -3zM633 341
q0 2 -3.5 5t-5.5 3t-8 -3.5t-7 -4.5q-1 0 -4 -0.5t-5 -0.5l17 24l32 -6zM425 44q-3 8 -12 9.5t-14 1.5q0 -6 3 -13t11 -7q7 0 12 9zM670 79q0 -10 5.5 -15.5t13.5 -11.5v2q0 1 0.5 1t0.5 1q0 8 -5 15.5t-15 7.5zM192 270q5 2 10.5 4.5t5.5 6.5q0 8 -9 13zM553 12q3 1 3 8
q0 2 -1.5 6t-3.5 5q-3 0 -3.5 -3.5t-0.5 -6.5t2 -6t4 -3zM721 486v10q-10 0 -17 -10h17zM624 372q-11 0 -15 9h15v-9z" />
    <glyph glyph-name="V" unicode="V" horiz-adv-x="935" 
d="M455 224q8 -3 14 -4.5t13 -2t15.5 -1t21.5 -0.5q-1 14 -13.5 32.5t-27.5 26.5l224 475h258l-352 -750h-281l-352 750h258l230 -491q-2 -8 -5 -16.5t-3 -18.5zM157 558q6 4 21.5 7.5t32 6.5t29.5 5.5t13 4.5q1 3 1 8q0 12 -9 18t-21 9.5t-24 6t-18 7.5q-5 -2 -9.5 -10.5
t-8.5 -18.5t-6 -19.5t-2 -15.5q0 -1 0.5 -4t0.5 -5zM253 486q10 4 10 13q0 5 -5 8.5t-12 3.5q-2 0 -5.5 -3.5t-3.5 -5.5zM517 130q7 0 12 5t5 13h-17v-18zM532 196l-7 9l-8 -9l2 -7zM501 165l-5 -19l12 10z" />
    <glyph glyph-name="W" unicode="W" horiz-adv-x="1255" 
d="M627 421l-141 -421h-250l-251 750h241l140 -416l139 416h245l139 -416l140 416h241l-251 -750h-250zM81 587q-6 -2 -7 -6.5t-1 -9.5t2.5 -15.5t6 -21.5t9 -19.5t11.5 -8.5q7 0 14 8.5t13 19.5t10 22.5t4 16.5q-8 0 -12.5 -1.5t-7.5 -4t-5.5 -4t-7.5 -1.5h-3q-1 0 -2 1
t-4.5 4t-7 7t-7.5 7.5t-5 5.5zM232 694q-24 0 -40 -9.5t-16 -35.5q11 0 11 1t-1 1.5t-1 1.5q0 2 9 6q9 3 16 3t12 1.5t7.5 8t2.5 22.5zM213 526q-7 0 -17.5 -7t-20.5 -17t-17 -20.5t-7 -17.5q19 0 29 7.5t15.5 17.5t8.5 20.5t9 16.5zM224 474q0 -2 1 -8t2.5 -12t4.5 -10.5
t7 -4.5q0 8 3 13t7 8.5t7 7.5t3 10q0 8 -8.5 15t-16.5 7l-1 -21zM178 627q-3 -1 -12 -3.5t-12 -4.5q3 -2 11 -4.5t17 -5t17 -4.5t11 -2q1 0 5 0.5t8.5 2t8.5 3.5t4 6t-2 4q-3 0 -9.5 1t-14 2.5t-14.5 2.5t-9 2h-9zM284 249q0 -19 6 -30t26 -11q0 11 -10.5 23.5t-10.5 24.5z
M877 595q-4 -2 -16 -5t-17 -3q0 -1 -1 -1h-2q-5 0 -7.5 1.5t-4.5 7.5q2 2 11.5 8t12.5 7h2q1 0 1 0.5t1 0.5q6 0 13.5 -2.5t7.5 -10.5zM451 30q-8 8 -13.5 17.5t-5.5 20.5q0 3 0.5 5.5t1.5 5.5q-17 -10 -17 -24q0 -11 9 -18t20 -7h5zM728 442q11 0 21.5 11.5t10.5 22.5
q-20 0 -26 -8t-10 -26h4zM238 419q-17 -12 -17 -34q11 0 18.5 3t7.5 15q0 5 -1 9.5t-8 6.5zM611 667q12 5 15 11.5t3 16.5q0 2 -0.5 6t-0.5 6q-2 0 -3 0.5t-2 0.5q-8 0 -10 -8t-2 -17v-16zM748 623q0 -11 10.5 -17t20.5 -6q0 12 -7.5 19.5t-19.5 7.5h-4v-4zM319 254
q15 0 26 12t11 26q0 1 -0.5 3t-0.5 4q-2 -10 -7.5 -15t-12 -8.5t-11.5 -8t-5 -13.5zM291 50q11 -12 12.5 -16.5t3.5 -6.5q0 -1 4 -1q2 0 3 -1q0 2 -1 7t-1 11q0 8 2 14t9 7h-2q-1 0 -2 1q-7 0 -15 -5t-13 -10zM316 327q3 -8 12 -8q5 0 9.5 2.5t9.5 5.5q-2 8 -6 9t-9 1
t-9.5 -1t-6.5 -9zM1129 238v4q0 4 3.5 8.5t7.5 9l8 9t5 9.5l8 -16zM1103 466q11 0 15.5 10t4.5 19q-2 2 -6 2t-7 -4.5t-4.5 -10.5t-2 -11zM250 595q-9 -6 -12 -11t-4.5 -9.5t-4 -9.5t-11.5 -11q11 3 22 11.5t11 21.5v4t-1 4zM1022 104q-2 8 -6.5 9t-9.5 1q-1 0 -4 -0.5
t-5 -0.5q2 -5 3.5 -13t8.5 -8zM403 297q-2 -2 -8 -11t-8 -13q0 -1 3.5 -5t3.5 -5q5 3 5 8t7 5zM346 70q0 -1 3 -4t5 -3q7 0 13 4.5t6 12.5q-8 0 -13.5 -2.5t-13.5 -7.5zM628 723q2 -2 8 -5t8 -3t5 3t3 5q-4 9 -12 9t-12 -9zM290 -42q-8 2 -9 14t-1 18h10v-32zM122 485
q-10 0 -17 -11q7 -10 17 -10v21zM896 319q7 -20 18.5 -41t30.5 -32q0 2 1 5q2 6 2 7q0 9 -2 20t-6.5 20t-12 15t-19.5 6h-12zM893 659q-14 0 -16 8l8 8l16 -16h-8zM944 146q5 3 9.5 4.5t4.5 6.5q0 7 -9 12zM1145 350l8 16l7 -27zM356 304q6 2 7 6t1 10q0 1 -0.5 3.5
t-0.5 3.5q-6 -2 -7 -6t-1 -9q0 -1 0.5 -4t0.5 -4zM460 33q1 0 3.5 -0.5t3.5 -0.5q5 0 9.5 1t6.5 7q-1 0 -4 0.5t-4 0.5q-5 0 -9 -1t-6 -7zM427 322q6 0 11.5 2t5.5 10l-1 2v1l-23 -15h7zM1150 715q3 -4 12 -4t12 4q1 2 -4 3t-10 1q-9 0 -10 -4zM628 539h-9q0 -7 3 -13.5
t6 -11.5v25zM568 635q7 0 12 8l-9 8l-7 -16h4zM853 539q2 0 5 -3.5t3 -5.5t-3 -8t-5 -8v25zM1126 394l-13 2l5 -19zM467 354q-5 9 -12 9q-1 0 -1 -0.5t-1 -0.5h-2v-8h16zM990 129q5 1 11 3t6 9l-1 2v1z" />
    <glyph glyph-name="X" unicode="X" horiz-adv-x="917" 
d="M624 375l318 -375h-293l-191 224l-190 -224h-293l318 375l-318 375h293l190 -225l191 225h293zM824 8q5 0 17.5 6.5t15.5 9.5q0 1 0.5 5t0.5 6q0 10 -3 17.5t-15 11.5q-5 -11 -14.5 -21t-9.5 -22q0 -9 8 -13zM670 301q-11 0 -18 -6.5t-11 -16.5t-5 -20.5t-1 -18.5
q12 0 19 6.5t10.5 16t4.5 20t1 19.5zM561 313q-33 -1 -38.5 -4t-5.5 -4t5 -3.5t5 -4.5t-1 -6.5t-2.5 -9.5t-2.5 -9.5t-2 -5.5q1 -1 2 -1h2q19 0 28.5 16.5t9.5 31.5zM640 73q2 5 9 7.5t16 2.5q0 18 -2.5 35.5t-10.5 34.5q-4 0 -8 -2t-4 -7q0 -3 2 -10t4.5 -15.5t5 -16
t4.5 -10.5h-25zM673 642l7 49q-1 0 -2 0.5t-2 0.5q-7 0 -10.5 -6t-5.5 -13.5t-2.5 -14t-0.5 -7.5zM560 346q-5 -1 -8.5 -1.5t-5.5 -0.5q-6 0 -8.5 2t-4.5 4t-5.5 4t-10.5 2q0 -11 3 -19t15 -8q9 0 14 3t11 14zM704 73q25 19 25 46q-11 0 -15 -4.5t-5.5 -11t-3.5 -13
t-9 -10.5zM631 281v18q-8 0 -21.5 -3.5t-13.5 -14.5h35zM334 266q-9 -7 -14 -12.5t-5 -16.5q10 0 18.5 4t8.5 16q0 2 -3 5.5t-5 3.5zM591 241q4 2 6.5 6.5t2.5 9.5q-2 5 -8.5 10.5t-12.5 6.5q-1 0 -1 -0.5t-1 -0.5h-2q2 -5 5 -16.5t11 -15.5zM278 554q4 10 10.5 16.5
t6.5 16.5q0 1 -0.5 4t-0.5 4q-17 -12 -17 -32q0 -2 0.5 -5t0.5 -4zM551 523q9 1 16 7.5t8 15.5q-1 0 -5 -1.5t-8.5 -4t-8 -6t-3.5 -7.5v-2q0 -1 1 -2zM490 249q0 5 -2 13.5t-10 10.5v-24h12zM688 570l-8 17q-10 -6 -10 -17h18zM656 177q0 -1 1 -1h2q7 0 9 5.5t3 11.5
q0 1 -3 1q-7 0 -9.5 -5.5t-2.5 -11.5zM688 40q4 4 4 12t-4 12q-2 1 -3 -4t-1 -10q0 -9 4 -10zM137 463q-8 0 -11 9t-3 20t3 20t11 9q6 -3 10.5 -12t4.5 -17t-4.5 -17t-10.5 -12zM287 514q-1 0 -1 -1v-2q0 -10 8 -12v1q0 1 0.5 1t0.5 1q0 9 -8 12z" />
    <glyph glyph-name="Y" unicode="Y" horiz-adv-x="886" 
d="M566 332v-332h-246v332l-355 418h293l185 -218l185 218h293zM373 644q-2 10 -4.5 15.5t-5.5 10t-5 10t-2 15.5q0 4 0.5 12t3 15t6.5 12.5t11 5.5q8 0 12 -5t8 -11l-8 -8l-5 -67zM467 286q0 -7 3 -13.5t6 -11.5q11 8 14 18.5t3 21.5q0 23 -9.5 33t-32.5 10q0 -17 5 -22.5
t10.5 -8t10.5 -6t5 -14.5zM516 358q2 3 8.5 7.5t14 8.5t15 7t13.5 3q0 11 -10 13t-18 2q-2 0 -4.5 -0.5t-4.5 -0.5h-5q-5 -2 -10.5 -13.5t-5.5 -18.5zM252 6q6 0 11 3t10 7t10 7t12 3q0 -14 -14.5 -26t-28.5 -16v22zM500 456q0 -5 1.5 -11t7.5 -7q5 1 6.5 5.5t1.5 9.5
q0 19 -1.5 25.5t-6.5 7.5q-6 -1 -7.5 -6.5t-1.5 -10.5l-7 -6zM714 623q0 11 -4.5 23t-16.5 17l-8 -7l17 -33h12zM455 435l-27 19q0 -4 0.5 -10t2.5 -12t5 -10t9 -4zM310 402q11 0 15.5 12.5t4.5 20.5q-11 0 -18 -10.5t-7 -18.5zM436 173q4 5 6.5 10t2.5 10q0 8 -9 12
q-8 -4 -8 -12q0 -9 8 -20zM428 486q4 7 6.5 13t2.5 14q-5 0 -11.5 -4t-6.5 -11q0 -5 2 -7t7 -5zM653 583q2 2 5 8t3 8t-3 5t-5 3q-8 -5 -8 -12q0 -8 8 -12zM685 591q2 -8 6 -13.5t13 -5.5q0 6 -3 12.5t-11 6.5h-5zM337 -44l11 19q5 -2 7.5 -6t2.5 -9zM372 423q-5 8 -12 8
q-1 0 -1.5 -1t-2.5 -2q-2 -2 -4 -3l4 -11zM283 438q8 2 9 6.5t1 9.5q0 1 -0.5 4t-0.5 5q-9 -3 -9 -17v-8zM492 414q2 -8 17 -8h7q-11 8 -19 8h-5z" />
    <glyph glyph-name="Z" unicode="Z" horiz-adv-x="896" 
d="M849 750v-188l-418 -344h418v-218h-802v188l417 344h-417v218h802zM781 563q8 10 12.5 19.5t4.5 21.5q0 6 -3 10.5t-14 4.5q11 4 14.5 17.5t3.5 28.5q0 14 -1 26.5t-1 23.5q-6 3 -13.5 6t-14.5 3q-12 -8 -22 -15q-8 -6 -14.5 -11t-6.5 -6q2 -8 5.5 -14t3.5 -15
q0 -8 -1 -15.5t-1 -15.5q0 -14 8 -29q2 -3 7.5 -9t12 -12.5l12 -12t8.5 -6.5zM527 643q10 0 12 -4.5t2 -11.5q0 -6 -2.5 -9.5t-6 -6.5t-6 -6.5t-2.5 -9.5q0 -7 7 -8t10 -1t8.5 6.5t11 15.5t9.5 18t4 13q0 14 -10 26.5t-25 12.5q-2 0 -4 -1t-2 -2zM661 587q-1 4 -7 14t-11 10
q-3 0 -7.5 -2.5t-6.5 -2.5v61q0 10 -13.5 15t-19.5 5q0 -9 4 -18t8.5 -17.5t8.5 -16.5t4 -16q0 -3 -3.5 -6.5t-4.5 -9.5q2 -2 9 -4.5t7 -3.5q1 -2 -6.5 -5.5t-7.5 -8.5t7.5 -10.5t6.5 -7.5zM701 16q2 -5 11 -7t14 -2q7 0 9.5 3t4 7t3.5 8.5t7 7.5q2 1 8 1q4 0 7.5 -0.5
t7.5 -0.5q8 0 13 3.5t5 15.5q0 8 -7.5 10.5t-14.5 2.5q-1 0 -1 -0.5t-1 -0.5h-1l-12 -12t-13 -12q-5 0 -11 1t-11 1t-9 -2q-3 -2 -6 -10.5t-3 -13.5zM550 517q-9 0 -16 -5t-13.5 -11t-14.5 -11t-18 -5q0 5 1 8t1 6q0 4 -3.5 6t-14.5 2q-12 0 -12 -17q0 -6 6 -9.5t13.5 -5
t15 -2t10.5 -0.5q23 0 34 10t11 34zM517 16q11 2 21.5 10t18.5 19t12.5 23.5t4.5 23.5q0 9 -10 12q2 -4 2 -10q0 -11 -8 -19t-17.5 -16t-17.5 -16.5t-8 -18.5q0 -4 2 -8zM284 144q-6 -9 -10.5 -21.5t-10 -24.5t-12 -23t-16.5 -18q1 -1 4 -1h5q10 0 17.5 7.5t13 17.5t8 21
t2.5 19q0 2 -0.5 11.5t-0.5 11.5zM485 309l3 28q0 17 -5 26t-25 9q0 -9 2.5 -15.5t6 -12.5t6.5 -13.5t4 -17.5zM484 603q4 8 6.5 16t2.5 18q-11 0 -18.5 -3.5t-7.5 -14.5q0 -6 3 -11t14 -5zM412 587q-1 2 -7.5 5t-8.5 3q-7 0 -8 -7.5t-1 -12.5q0 -7 1 -12.5t8 -7.5zM337 563
q0 8 -5.5 16t-16.5 8l-7 -24h29zM308 241q11 5 14 11.5t3 16.5q0 2 -0.5 6.5t-0.5 5.5q-8 -5 -12.5 -14t-4.5 -18q0 -1 0.5 -4t0.5 -4zM581 402q2 -2 8 -5t8 -3q4 0 6 4t3 8.5t1 8.5v5q-9 0 -15 -5t-11 -13zM471 462q-11 0 -14.5 -10t-4.5 -18q1 -1 2 -1h2q11 0 13 11t2 18z
M437 610q0 2 0.5 5t0.5 4q0 6 -3.5 11t-14.5 5q-1 -1 -1 -2q-1 -1 -1 -2v-1q0 -6 7 -12t12 -8zM710 579l-17 -9q2 -5 5.5 -11.5t11.5 -6.5v27zM204 16q2 10 9.5 17t7.5 17q-11 0 -14.5 -6t-3.5 -16v-6t1 -6zM613 530v26q-12 0 -16 -10zM501 -19l25 -11q-2 -7 -6.5 -14
t-9.5 -11zM282 -48q0 11 9 16q5 -2 6.5 -8t1.5 -11zM127 452q-2 5 -5.5 14.5t-3.5 17.5l11 -3zM564 418q0 17 -0.5 20t-0.5 2q-2 -5 -4.5 -10.5t-2.5 -11.5h8zM781 530q11 6 11 16l-8 3zM541 377q8 5 8 13q0 1 -0.5 2t-0.5 2q-8 -4 -8 -12q0 -1 0.5 -2.5t0.5 -2.5zM437 57
q4 2 6 4t2 7q0 1 -0.5 2.5t-0.5 2.5q-8 -5 -8 -12v-2q0 -1 1 -2zM308 -56q0 2 2 5.5t4 3.5q0 -1 1 -1q0 -1 0.5 -1t0.5 -1q0 -2 -0.5 -7t-2.5 -5q-1 0 -2 2.5t-3 3.5zM452 394v16l-8 -16h8zM333 -57q-2 0 -2 2t2.5 5t4.5 3l1 -1q0 -1 1 -2q0 -7 -7 -7zM548 442l-7 8v-16z
" />
    <glyph glyph-name="bracketleft" unicode="[" horiz-adv-x="466" 
d="M50 -203v1156h391v-203h-162v-750h162v-203h-391zM136 623q-13 0 -24 -9q3 -7 11 -8.5t13 -1.5v19zM112 -61l-8 16q-10 -7 -10 -16h18zM144 534h-4q-5 0 -8.5 -3.5t-3.5 -8.5l7 -8z" />
    <glyph glyph-name="backslash" unicode="\" horiz-adv-x="595" 
d="M0 750h243l352 -750h-243zM89 694q2 1 8 1h13h12.5t7.5 -1q5 -1 7 -4.5t3 -8t3 -8t7 -3.5q8 0 13.5 10.5t6.5 13.5q-2 5 -8 8t-12 4.5t-12 2t-8 1.5t-3.5 5.5t-3.5 8.5t-5 7.5t-8 3.5q-3 0 -5 -1q-4 -2 -13.5 -10.5t-9.5 -15.5q0 -3 2.5 -7.5t4.5 -6.5zM82 614
q10 6 14.5 13.5t6.5 15t4 12.5t7 7q-11 20 -35 20q0 -11 5.5 -14.5t5.5 -13.5q0 -5 -2.5 -8.5t-6 -6t-6 -5.5t-2.5 -8q0 -8 9 -12zM37 566q0 5 3 9t8 6v-15h-11z" />
    <glyph glyph-name="bracketright" unicode="]" horiz-adv-x="466" 
d="M25 -203v203h162v750h-162v203h391v-1156h-391zM345 69q13 0 24 9q-3 7 -11 8.5t-13 1.5v-19zM183 -36q5 0 8.5 3.5t3.5 8.5l-7 8l-9 -20h4z" />
    <glyph glyph-name="asciicircum" unicode="^" horiz-adv-x="630" 
d="M167 750h296l142 -303h-243l-47 100l-47 -100h-243zM262 555q4 0 11.5 7.5t19.5 9.5l-10.5 10.5t-14.5 9.5q-4 0 -8.5 -12t-4.5 -16q0 -3 1.5 -6t5.5 -3z" />
    <glyph glyph-name="underscore" unicode="_" horiz-adv-x="816" 
d="M791 203v-203h-766v203h766zM152 21q8 0 19.5 1.5t14.5 9.5q-3 2 -12 5t-12 3q-6 0 -8 -8t-2 -11zM130 128l3 28q0 17 -5 26t-25 9q0 -9 2.5 -15.5t6 -12.5t6.5 -13.5t4 -17.5zM130 101v16l-8 -16h8z" />
    <glyph glyph-name="grave" unicode="`" horiz-adv-x="217" 
d="M217 696h-165l-52 144h217v-144zM162 790q0 14 -3 28t-19 16q-1 -1 -2 -3q-1 -1 -1 -3v-1q0 -11 7 -28t18 -25v16zM202 766q-2 8 -6 14t-13 6q0 -7 3 -13.5t11 -6.5h5z" />
    <glyph glyph-name="a" unicode="a" 
d="M336 0q-73 0 -130 13.5t-96 43.5t-59.5 78.5t-20.5 118.5v142q0 70 20.5 118.5t59.5 78.5t96 43.5t130 13.5h64q66 0 115.5 -15t82.5 -49v64h229v-650h-229v64q-33 -34 -82.5 -49t-115.5 -15h-64zM535 203q30 0 46.5 12.5t16.5 38.5v142q0 26 -17 38.5t-46 12.5h-199
q-35 0 -56 -11.5t-21 -39.5v-142q0 -28 21 -39.5t56 -11.5h199zM337 84q1 0 4 1q2 0 4 0.5t4 0.5q11 0 16 -9t5 -20q0 -6 -2 -14q12 0 14.5 4.5t2.5 11.5q0 10 -4 18.5t-4 18.5q0 9 3.5 16t8 14t8.5 14t4 16q0 7 -1.5 12t-6.5 12q0 -2 -1 -9t-3 -14t-6 -12.5t-11 -5.5
t-9 4.5t-2 10.5q0 4 0.5 8t0.5 9q0 7 -2.5 12t-10.5 5q-3 0 -9 -6t-12 -13.5t-11 -14t-5 -7.5t2.5 -4t5.5 -7t5.5 -7.5t2.5 -4.5q2 -6 2 -19q0 -12 -1 -23.5t-1 -16.5q1 5 3.5 11t5.5 8zM717 291q-15 2 -26 10.5t-24 8.5q0 -5 0.5 -12.5t2 -14t5 -11.5t9.5 -5q3 0 8.5 2.5
t11 5.5t9.5 6.5t4 5.5v4zM552 378q-1 10 -4 17.5t-6.5 13.5t-6 12.5t-2.5 15.5q20 0 25 -9t5 -26l-3 -28zM286 152v33q-6 0 -14 -8t-9 -19zM546 527q-11 0 -14.5 -10t-4.5 -18q1 -1 2 -1h2q11 0 13 11t2 18zM699 503l-3 10q-2 0 -6.5 -0.5t-9.5 -2.5t-9 -5t-4 -7zM298 143
q-6 -3 -7.5 -8t-1.5 -10q13 0 17 9zM527 459v16l-8 -16h8z" />
    <glyph glyph-name="b" unicode="b" 
d="M535 650q73 0 130 -13.5t96 -43.5t59.5 -78.5t20.5 -118.5v-142q0 -70 -20.5 -118.5t-59.5 -78.5t-96 -43.5t-130 -13.5h-64q-66 0 -116 15t-82 49v-64h-229v750h229v-164q32 34 82 49t116 15h64zM625 33l40 15q1 0 2 3t1 5q0 12 -12 14.5t-23 2.5l-16 -33zM408 466
l-32 64q-3 -10 -7 -20.5t-9 -19.5q9 -2 24 -9.5t16 -21.5zM593 276q-9 0 -22.5 2t-13.5 13q0 13 13 13q10 0 16.5 -9.5t6.5 -18.5zM606 508q0 -7 2.5 -16.5t12.5 -9.5q13 0 13 13q0 8 -10.5 10.5t-17.5 2.5zM230 566q-1 0 -1 -2v-1q-2 -2 -6.5 -5.5t-9.5 -7t-9.5 -7.5
t-5.5 -5q1 -1 5 -1h6q14 0 19 6.5t10 19.5zM305 484l-3 9q-4 0 -11 -0.5t-14.5 -2.5t-13 -5.5t-5.5 -10.5zM529 64h-11q0 -8 2 -20t13 -12h2q1 0 1 1zM619 111q0 5 -1 14t-9 12q-8 -5 -8 -12q0 -8 6 -11t12 -3zM800 230q0 -7 1 -9l2 -4q10 0 15 8t5 16zM452 534l-22 5
q0 -8 5.5 -13.5t12.5 -5.5zM762 223q7 0 12.5 5.5t5.5 12.5l-13 3zM595 62q0 6 -3 12.5t-11 6.5q-1 0 -1 -0.5t-1 -0.5h-2q1 -7 5.5 -12.5t12.5 -5.5zM276 -19q2 -5 6 -10t4 -11q0 -5 -4 -5t-9 -2zM545 64q4 4 4 16q0 11 -4 17q-1 1 -2.5 -6t-1.5 -15q0 -11 4 -12zM175 217
q-1 -2 -2 -3t-1 -2t-1 -1q0 -5 4 -9t8 -9q0 1 0.5 3.5t0.5 4.5q0 5 -1 9.5t-8 6.5zM304 64q7 2 8 6.5t1 9.5q0 2 -0.5 5t-0.5 4q-8 -2 -8 -16v-9zM343 486l-1 12q-10 -7 -10 -17zM535 203q35 0 56 11.5t21 39.5v142q0 28 -21 39.5t-56 11.5h-199q-29 0 -46 -12.5t-17 -38.5
v-142q0 -26 16.5 -38.5t46.5 -12.5h199z" />
    <glyph glyph-name="c" unicode="c" horiz-adv-x="736" 
d="M706 203v-203h-370q-73 0 -130 13.5t-96 43.5t-59.5 78.5t-20.5 118.5v142q0 70 20.5 118.5t59.5 78.5t96 43.5t130 13.5h370v-203h-370q-35 0 -56 -11.5t-21 -39.5v-142q0 -28 21 -39.5t56 -11.5h370zM325 406l-5 8q0 7 4.5 10.5t9.5 5.5l7 -8zM546 50l-29 28l-4 -6
q-3 -5 -3 -8q0 -9 7 -13.5t14 -15.5zM526 28l-16 -7l8 -13zM237 197q-4 8 -12 8h-4l3 -11z" />
    <glyph glyph-name="d" unicode="d" 
d="M336 0q-73 0 -130 13.5t-96 43.5t-59.5 78.5t-20.5 118.5v142q0 70 20.5 118.5t59.5 78.5t96 43.5t130 13.5h64q66 0 115.5 -15t82.5 -49v164h229v-750h-229v64q-33 -34 -82.5 -49t-115.5 -15h-64zM205 430q3 1 8.5 6.5l12 12t12 12.5t7.5 9q0 4 0.5 9.5t0.5 6.5
q0 5 -1 13.5t-9 10.5q-2 -3 -4 -10t-4.5 -13.5t-5 -12t-5.5 -5.5q-5 0 -6.5 2.5t-2.5 6t-2 6t-5 2.5t-8.5 -1.5t-4.5 -6.5q0 -2 2 -10t4.5 -16t5.5 -15t5 -7zM799 157q-8 2 -18.5 5t-22.5 3q-16 -13 -21 -27t-5 -35q0 -6 1.5 -11t10.5 -5q0 6 1.5 16.5t4.5 20.5t8 17.5
t12 7.5q9 0 12 -8zM413 542q-2 0 -9.5 -12t-9.5 -20q0 -7 1.5 -13.5t9.5 -10.5q5 11 14 15.5t20 4.5q0 10 -10 17.5t-10 18.5h-6zM695 301q0 1 5.5 1.5t8.5 0.5q7 0 11 -2t7.5 -4t7.5 -4t10 -2q0 17 -5.5 22t-20.5 5q-14 0 -24 -1.5t-24 -7.5q1 -2 4 -7t5 -10.5t4 -9l2 -3.5
q0 5 2.5 12.5t6.5 9.5zM160 353q3 0 11.5 5t18 12t17 14.5t8.5 12.5q0 5 -5 12t-11 7q-2 -1 -4.5 -11.5t-3.5 -10.5q-2 -3 -7.5 -8.5l-12 -12t-12 -12.5t-8.5 -8h9zM311 121q1 7 3 12q1 5 2 8t1 4q0 12 -16 12q-3 0 -12.5 -3.5t-12.5 -5.5l25 -31zM638 475q8 2 16 8.5
t8 15.5q0 7 -6.5 8.5t-9.5 1.5q-8 0 -12 -3t-4 -14q0 -2 3 -8.5t5 -8.5zM718 189q0 12 4.5 17t9.5 7.5t9.5 5.5t4.5 12q-8 0 -20.5 -5.5t-14.5 -13.5q0 -7 2.5 -14t4.5 -9zM582 548q6 4 12 10.5t6 14.5q-6 0 -16.5 -2.5t-10.5 -10.5t9 -12zM758 325q2 0 5 -0.5t4 -0.5
q6 0 10.5 3t4.5 14q-1 1 -3.5 1.5t-3.5 0.5q-7 0 -12 -3.5t-5 -14.5zM702 165q2 -7 8 -8t13 -1q6 0 13 2t7 11l-1 2v1q-11 -9 -27 -9q-5 0 -13 2zM338 82q0 -10 11 -14q0 2 0.5 4.5t0.5 3.5q0 5 -1 9.5t-8 6.5zM595 84q4 4 4 12t-4 12q-2 1 -3 -4t-1 -10q0 -9 4 -10z
M349 116v11q-11 0 -16 -11h16zM535 203q30 0 46.5 12.5t16.5 38.5v142q0 26 -17 38.5t-46 12.5h-199q-35 0 -56 -11.5t-21 -39.5v-142q0 -28 21 -39.5t56 -11.5h199z" />
    <glyph glyph-name="e" unicode="e" horiz-adv-x="836" 
d="M758 140q2 -1 12 -5t12 -4t5 3v-134h-451q-73 0 -130 13.5t-96 43.5t-59.5 78.5t-20.5 118.5v142q0 70 20.5 118.5t59.5 78.5t96 43.5t130 13.5h226q60 0 106 -11t78 -35t48.5 -63t16.5 -96t-16.5 -96.5t-48.5 -63.5t-78 -35t-106 -11h-99q-69 0 -119.5 10.5t-84.5 33.5
v-29q0 -28 21 -39.5t56 -11.5h451v-42q-8 4 -16.5 7t-12.5 3q-1 0 -3.5 -2.5l-4.5 -4.5l-8 -24h16zM286 447q-12 0 -19.5 -4t-7.5 -14t7.5 -14t19.5 -4h276q12 0 19.5 4t7.5 14t-7.5 14t-19.5 4h-276zM200 -5q9 -5 9 -12q0 -5 -2 -7.5t-5 -3t-5.5 -1t-3.5 -1.5
q-3 -4 -4.5 -11t-4 -14t-6 -12t-10.5 -5q-10 0 -18.5 8t-8.5 19h19zM111 615q-11 9 -14 16.5t-3 18.5v6.5t1 5.5q7 -8 20 -13t13 -15q0 -7 -6 -12t-11 -7zM104 -38q0 6 2 13t6 11q0 1 2.5 1h4.5q6 0 12 -3t6 -10q0 -9 -10.5 -10.5t-18.5 -1.5h-4zM215 132q10 0 12.5 5
t2.5 11q0 7 -2.5 12t-9.5 5l-6 -2zM674 44q0 8 -5.5 12.5t-13.5 4.5l-12 -4l5 -13h26zM192 130q0 5 -1 14.5t-9 12.5q-2 0 -5.5 -3.5t-3.5 -5.5q0 -8 5.5 -13t13.5 -5zM632 84q10 -9 24 -9q5 0 9.5 1t6.5 8l-38 4zM639 125q7 2 8.5 7t1.5 12q0 2 -0.5 6.5t-0.5 6.5
q-8 -2 -9 -8.5t-1 -12.5q0 -2 0.5 -6t0.5 -5zM655 114q3 -17 19 -17q0 6 -3 12.5t-11 6.5zM209 59l-16 -8q4 -11 16 -11v19zM422 68q-8 -4 -8 -12q0 -6 2.5 -10.5t5.5 -9.5v32zM568 92q3 3 3 12t-3 12q-2 0 -3.5 -3.5t-1.5 -8.5q0 -4 1 -7.5t4 -4.5zM760 450q0 -9 8 -20
q0 1 0.5 3.5t0.5 4.5q0 5 -1 9.5t-8 6.5v-4zM463 36h-8v-16z" />
    <glyph glyph-name="f" unicode="f" horiz-adv-x="530" 
d="M80 19q-6 -7 -9 -19h-27v496q0 70 20.5 118.5t59.5 78.5t96 43.5t130 13.5h149v-203h-149q-35 0 -56 -11.5t-21 -39.5v-121h227v-203h-227v-172h-185q-2 11 -8 19zM142 110q0 -8 5 -13.5t14 -5.5q6 0 10 8t6.5 18.5t3.5 20.5t1 15q0 7 -3 13t-14 6q-12 -14 -14.5 -24.5
t-2.5 -26.5zM85 475q7 0 12.5 5.5t5.5 13.5l-13 4zM159 67q0 -12 12 -16q0 1 0.5 4t0.5 4q0 5 -1 9.5t-7 6.5q0 -1 -2.5 -3.5t-2.5 -4.5zM159 11q0 10 -10 17v-17h10zM67 458l2 19q-10 -4 -10 -16zM229 28h-10q0 -5 3 -9.5t7 -7.5v17z" />
    <glyph glyph-name="g" unicode="g" 
d="M521 0q35 0 56 11.5t21 39.5v87q-33 -34 -82.5 -49t-115.5 -15h-64q-73 0 -130 13.5t-96 43.5t-59.5 78.5t-20.5 118.5v68q0 70 20.5 118.5t59.5 78.5t96 43.5t130 13.5h64q66 0 115.5 -15t82.5 -49v64h229v-599q0 -70 -20.5 -118.5t-59.5 -78.5t-96 -43.5t-130 -13.5
h-443v203h443zM749 198q-11 4 -14 11t-3 17q0 6 3.5 10t8 8t8.5 8.5t6 12.5q-14 0 -27.5 -12t-21.5 -23q9 -3 9 -14q0 -3 -0.5 -6.5t-0.5 -6.5q0 -9 8.5 -13.5t8.5 -16.5v-9.5t-1 -6.5q2 1 7.5 3.5t5.5 4.5q3 5 9 13.5t12 16.5l10.5 14t4.5 8q0 13 -17 13zM693 254
q4 2 14 12t16 23q0 5 -2.5 9t-2.5 12q0 2 4 8.5t3 7.5q0 2 -6 8t-10 8q-1 0 -3.5 -1t-12.5 -7q-1 0 -7 1t-13 1q-8 0 -14.5 -2.5t-6.5 -10.5q0 -3 1 -5q4 2 7 2q12 0 25.5 -10.5t15.5 -15.5q0 -7 -3 -15t-7 -18zM718 117q19 0 25 3t15 5q9 0 13.5 -6t15.5 -6q4 2 11 13.5
t7 14.5q0 4 -6 10t-10 6q-1 0 -4.5 -2.5t-7.5 -5.5t-7.5 -5.5t-4.5 -2.5t-7.5 4t-8.5 4q-11 0 -20 -12.5t-11 -19.5zM343 -15q-4 0 -12 -2.5t-15.5 -6t-13 -8t-5.5 -8.5q0 -11 7.5 -16t18.5 -8q20 23 24 49h-4zM621 214q14 20 20.5 34t6.5 40q-6 0 -11.5 -2.5t-7.5 -7.5
q-5 -12 -10.5 -27.5t-5.5 -29.5zM706 16q14 0 29 6t15 23v4t-1 3q-23 -2 -33 -7.5t-10 -28.5zM325 -82q0 -11 -3 -27.5t-14 -22.5q1 -1 5.5 -2t6.5 -1q15 0 17.5 13t2.5 26q0 6 -4.5 10t-10.5 4zM155 278q-5 7 -6.5 18t-10.5 16q-1 0 -3 -1.5t-5 -3.5q-4 -3 -7 -5v-24h32z
M741 463q-9 -5 -13 -10.5t-4 -14.5q0 -1 0.5 -3.5t0.5 -3.5q6 1 17 4.5t16 11.5zM336 -274v9q1 3 6.5 11t7.5 10l11 -7q0 -8 -4 -16.5t-10 -15.5zM400 -228h22q-7 -14 -10.5 -31.5t-5.5 -32.5zM339 471q6 1 19.5 5t13.5 14q0 9 -9 13l-12.5 -12.5t-11.5 -15.5v-4zM313 -240
l4 28q8 -3 17 -8t9 -16zM799 27q0 5 -1.5 10.5t-8.5 7.5q-8 -5 -8 -12q0 -8 5 -15.5t12 -12.5q0 2 0.5 8t0.5 8v6zM728 541q0 5 -1 14t-9 12q-2 -2 -5.5 -8t-3.5 -8q0 -6 7.5 -8t11.5 -2zM435 -64q6 7 7.5 11.5t1.5 12.5q0 1 -0.5 4t-0.5 4q-5 -1 -9.5 -4t-4.5 -8zM685 -35
l-8 -24q1 0 2 -0.5t2 -0.5q6 0 10.5 3t9.5 5zM99 358q2 2 4.5 8t2.5 8t-2.5 5t-4.5 3q-9 -4 -9 -12t9 -12zM195 431l-24 7l3 -16zM782 431q1 -1 2 -1h2q7 0 12 8l-9 9zM709 85q-8 -5 -8 -12q0 -8 8 -12v24zM468 518q2 7 6 14t11 11q-1 0 -2.5 0.5t-2.5 0.5q-7 0 -9.5 -5.5
t-2.5 -11.5v-9zM456 -195q0 9 -10 16v-16h10zM359 288q-9 0 -16 10h16v-10zM677 -80q0 -7 8 -12q0 1 0.5 2.5t0.5 2.5q0 6 -9 11v-4zM535 277q30 0 46.5 12.5t16.5 38.5v68q0 26 -17 38.5t-46 12.5h-199q-35 0 -56 -11.5t-21 -39.5v-68q0 -28 21 -39.5t56 -11.5h199z" />
    <glyph glyph-name="h" unicode="h" horiz-adv-x="863" 
d="M741 144q-11 0 -19.5 -10t-8.5 -21q0 -12 13 -12q10 0 12.5 10.5t2.5 20.5v12zM239 189q-5 8 -11 13.5t-16 5.5q0 -2 -2.5 -4t-2.5 -4q0 -8 4 -16.5t12 -10.5zM689 165q-8 -4 -8 -12t4.5 -15.5t13.5 -7.5q0 9 -5 16t-5 15v4zM689 309h-17q0 -7 5 -12t12 -5v17zM705 342
q2 5 5.5 12t11.5 7v7q-8 0 -15 -7t-9 -12zM215 261q0 6 -8 6t-8 -6q2 -7 8 -7t8 7zM582 383q0 -2 0.5 -11.5t0.5 -11.5q0 -8 -2.5 -19t-8 -21t-13 -17.5t-17.5 -7.5h-5t-4 1q10 7 16.5 18t12 23t10 24.5t10.5 21.5zM606 480q11 5 14 11.5t3 16.5q0 2 -0.5 6.5t-0.5 5.5
q-8 -5 -12.5 -14t-4.5 -18q0 -1 0.5 -4t0.5 -4zM502 255q-1 2 -1 6v6q0 10 3.5 16t14.5 6q0 -10 -7.5 -17t-9.5 -17zM519 655q73 0 130 -13.5t96 -43.5t59.5 -78.5t20.5 -118.5v-401h-229v401q0 28 -21 39.5t-56 11.5h-183q-30 0 -46.5 -12.5t-16.5 -38.5v-401h-229v750h229
v-169q34 39 90 56.5t131 17.5h25z" />
    <glyph glyph-name="i" unicode="i" horiz-adv-x="317" 
d="M44 0v650h229v-650h-229zM169 899q-11 4 -14 11t-3 17t7.5 15t13.5 13q24 -3 45.5 -14.5t37 -28.5t24.5 -39.5t9 -47.5q0 -27 -10.5 -50.5t-28 -41.5t-41.5 -28t-51 -10t-50.5 10t-41.5 28t-28 41.5t-10 50.5q0 26 9.5 49.5t26.5 41t40 28.5t49 12q-8 -6 -13.5 -13
t-10.5 -12q9 -3 9 -14q0 -3 -0.5 -6.5t-0.5 -6.5q0 -9 8.5 -13.5t8.5 -16.5v-9.5t-1 -6.5q2 1 7.5 3.5t5.5 4.5q3 5 9 13.5t12 16.5l10.5 14t4.5 8q0 13 -17 13zM55 854q19 0 25 3t15 5q9 0 13.5 -6t15.5 -6q4 2 11 13.5t7 14.5q0 4 -6 10t-10 6q-1 0 -4.5 -2.5t-7.5 -5.5
t-7.5 -5.5t-4.5 -2.5t-7.5 4t-8.5 4q-11 0 -20 -12.5t-11 -19.5zM86 413q8 0 19 8.5t16 16.5q-14 2 -20 11.5t-6 21.5q0 6 3 9.5t7 7t7 8t3 11.5q-10 0 -17 -5.5t-11.5 -13.5t-7 -17.5t-2.5 -16.5q-1 1 0.5 -3.5t3.5 -11t3.5 -13.5t1.5 -13zM144 165q-12 17 -35 17
q0 -8 7.5 -16.5t16.5 -8.5q4 0 6.5 1.5t4.5 6.5zM180 212q8 0 10.5 7.5t2.5 13.5l-1 2v2q-5 -4 -10 -7t-5 -9q0 -1 1.5 -4.5t1.5 -4.5zM112 462q1 -1 2 -1h2q8 0 12 9l-7 8zM249 -43q-4 0 -5.5 4t-1.5 6q0 7 7 7q4 -4 4 -9q0 -6 -4 -8z" />
    <glyph glyph-name="j" unicode="j" horiz-adv-x="436" 
d="M90 203q35 0 56 11.5t21 39.5v396h229v-396q0 -70 -20.5 -118.5t-59.5 -78.5t-96 -43.5t-130 -13.5h-85v203h85zM151 825q0 27 10 51t28 41.5t41.5 28t50.5 10.5t51 -10.5t41.5 -28t28 -41.5t10.5 -51t-10.5 -50.5t-28 -41.5t-41.5 -28t-51 -10t-50.5 10t-41.5 28
t-28 41.5t-10 50.5zM249 721q0 3 -0.5 8t-1 11t-1 11.5t-0.5 7.5t-3.5 5t-5.5 3q-1 0 -4 -3t-3 -5t3.5 -12t3.5 -12q1 -2 1.5 -8.5t0.5 -8.5zM264 494q0 10 -11.5 14.5t-20.5 4.5q0 -11 9 -18t19 -11zM187 250q9 0 13 9.5t4 17.5l-15 4zM307 535q1 0 2.5 -0.5t2.5 -0.5
q4 0 6 4t3 8.5t1.5 8.5l0.5 4h-2q-1 0 -2 1q-4 0 -6 -4t-3.5 -8.5t-2 -8.5zM211 776q1 0 4 -0.5t4 -0.5q5 0 10 1t7 7l-17 9zM209 181q10 4 10 17q-5 0 -10 -1.5t-7 -8.5zM316 470q-9 -4 -9 -12q0 -7 9 -12v24zM256 207l4 16q-11 0 -17 -10zM203 510l-10 19q-2 -1 -3 -3
q-2 -2 -2 -3l-1 -1q0 -5 3.5 -8.5t8.5 -3.5h4zM242 176q2 0 2 4q0 2 5 8t4 6q-2 0 -8.5 -6t-6.5 -8q0 -4 4 -4z" />
    <glyph glyph-name="k" unicode="k" horiz-adv-x="799" 
d="M273 342l262 308h274l-269 -315l284 -335h-274l-277 326v-326h-229v750h229v-408zM227 114q0 4 2 5t4.5 1.5t5 2t2.5 7.5q-2 3 -8 11t-8 10q-5 -14 -13.5 -32.5t-11.5 -33.5q0 -7 10 -13t15 -6q2 0 5 2.5t3 4.5t-4 8.5t-4 7.5q1 4 7 10t9 7zM532 166q4 3 10 9t6 7t-1 6
t-2.5 10.5t-3 10t-1.5 5.5v16q-4 -2 -8 -8.5t-7.5 -15t-6 -16.5t-2.5 -12q0 -12 12 -12h4zM85 697q0 -14 11.5 -27t25.5 -13q0 15 -10.5 27.5t-26.5 12.5zM618 170l-8 7q-6 -20 -24 -31q4 -10 12 -10h3q1 0 1 1zM532 150q3 -8 11.5 -9t16.5 -1q0 7 -6 12.5t-14 5.5
q-2 0 -5 -3t-3 -5zM570 239q0 6 -2 14t-6 13q-9 -11 -9 -24zM595 410q-2 8 -6.5 14t-12.5 6q0 -6 3 -13t11 -7h5zM488 384l-6 11q-7 -2 -8.5 -10.5t-1.5 -14.5z" />
    <glyph glyph-name="l" unicode="l" horiz-adv-x="440" 
d="M435 203v-203h-85q-73 0 -130 13.5t-96 43.5t-59.5 78.5t-20.5 118.5v496h229v-496q0 -28 21 -39.5t56 -11.5h85zM256 205q-8 9 -13 18t-11.5 15.5t-16 11t-25.5 4.5q0 -11 3 -18.5t14 -7.5q6 0 9 1q-2 -2 -5.5 -8t-3.5 -8q0 -6 7 -9.5t13 -3.5q7 0 14 2t15 3zM168 15
q14 0 24 -14.5t10 -27.5q0 -5 -5.5 -13t-10.5 -11q-7 3 -11 10.5t-6 16.5t-2.5 18.5t-0.5 16.5zM154 65q5 -3 9.5 -5.5t10.5 -2.5q10 0 12.5 9.5t2.5 20.5q0 7 -0.5 12t-0.5 6l-16 3q0 -16 -5.5 -21t-12 -6t-12 -2t-5.5 -9q0 -9 9 -20zM256 101l16 8q1 0 4 3l4 4
q-6 2 -14.5 9.5t-14.5 7.5q-3 0 -3 -1l-8 -47q0 -1 4 -1t4 1zM184 558q12 -3 18.5 -4t9.5 -2q4 -1 5 -1q4 0 6 10.5t2 13.5q-11 0 -23.5 -3t-17.5 -14zM264 558q-2 2 -8 5.5t-8 3.5t-8.5 -3.5t-8.5 -5.5q2 -6 4 -11.5t9 -5.5t11.5 6t8.5 11zM306 62q-13 0 -16.5 -8t-3.5 -20
q12 0 16 8.5t4 19.5zM113 26q2 -2 5 -11t3 -13q0 -2 -3 -4.5t-5 -2.5t-5 2.5t-3 4.5q0 4 3 13t5 11zM272 181q-2 -2 -5 -8t-3 -8t3 -5t5 -3q2 1 5 7.5t3 8.5t-3 5t-5 3zM242 470q0 5 -1.5 13.5t-9.5 10.5l-2 -19zM224 628q5 0 13.5 1.5t10.5 9.5l-25 -3zM216 149q3 3 3 12
t-3 12q-2 1 -3 -3.5t-1 -9.5q0 -11 4 -11zM186 116q0 12 -10 16l-2 -16h12zM256 28q-5 10 -12 10q-1 0 -1 -0.5t-1 -0.5q-1 -1 -2 -1l1 -9zM280 213q-5 11 -12 11l-2 -2q-1 -1 -2 -1q4 -9 12 -9h2q1 0 2 1zM145 2q-9 5 -9 12q0 1 0.5 2.5t0.5 2.5q9 -5 9 -12q0 -1 -0.5 -2.5
t-0.5 -2.5zM176 687v16l-9 -8z" />
    <glyph glyph-name="m" unicode="m" horiz-adv-x="1213" 
d="M137 407q-10 0 -16 -4.5t-12 -11t-13 -12.5t-18 -9q3 0 11 -1t10 -1q38 0 38 39zM247 518q0 -7 5 -10.5t12 -8.5q5 11 6.5 18t1.5 18q0 19 -8 20q-5 -8 -10 -17.5t-7 -19.5zM127 443q2 -7 6 -13.5t10 -11.5q7 2 8 6.5t1 9.5q0 11 -5.5 14t-15.5 3t-16 -4t-6 -15
q12 0 18 11zM574 567q5 0 12.5 4t14.5 10t12 12t5 10v4.5t-1 3.5q-5 0 -12 -5t-14 -11.5t-11.5 -14t-5.5 -13.5zM146 289q-18 0 -23 -13.5t-5 -28.5q16 0 22 14.5t6 27.5zM951 540q0 -6 4 -10t9.5 -7t11.5 -6.5t10 -8.5q0 2 0.5 6t0.5 6q0 14 -11.5 17t-24.5 3zM290 488
q-3 0 -9 -0.5t-12 -2.5t-10 -6.5t-4 -11.5q2 -1 6.5 -1h6.5q22 0 22 22zM201 566q-11 0 -20 -9t-9 -20q17 0 23 6t6 23zM601 563q-9 -2 -24.5 -10t-15.5 -22q9 2 24 10t16 22zM915 361q-19 0 -19 18q0 5 1 9.5t8 6.5q6 -8 8 -16.5t2 -17.5zM169 319q-8 0 -17 -5t-9 -16
q2 0 4.5 -0.5t3.5 -0.5q18 0 18 22zM905 339q2 5 4.5 6.5t7.5 1.5q8 0 12 -5t8 -11q-2 0 -6 -0.5t-6 -0.5q-8 0 -13 1.5t-7 7.5zM875 345q-7 0 -13 3t-6 11t8 12q8 -3 9.5 -11.5t1.5 -14.5zM152 551q0 6 -2 17.5t-11 11.5q-4 0 -4 -2q0 -6 3.5 -16.5t13.5 -10.5zM89 161
q5 0 8.5 1t5.5 8q-5 8 -13 8q-6 0 -8 -4.5t-4 -12.5h11zM224 290q-6 8 -12 13t-16 5q0 -9 7.5 -13.5t15.5 -4.5h5zM1009 346l-23 25q0 -1 -0.5 -4t-0.5 -4q0 -17 16 -17h8zM836 321l28 2q-3 -6 -10 -10.5t-14 -6.5zM818 483l8 16h-2q-1 0 -2 1q-8 0 -12 -9zM433 467v16
l-16 -9zM953 556l-4 2v13q-5 0 -9 -11t-4 -16q0 -1 0.5 -2.5t0.5 -2.5zM585 487l8 13q-12 0 -16 -9zM946 396q0 28 -16 39.5t-43 11.5h-115q-23 0 -35.5 -12.5t-12.5 -38.5v-396h-229v396q0 28 -16 39.5t-43 11.5h-115q-23 0 -35.5 -12.5t-12.5 -38.5v-396h-229v650h229v-74
q23 38 67.5 58.5t118.5 20.5q82 0 137.5 -20.5t87.5 -67.5q31 48 87 68t139 20q67 0 117 -13.5t83 -44.5t49 -80t16 -121v-396h-229v396z" />
    <glyph glyph-name="n" unicode="n" horiz-adv-x="863" 
d="M311 459q15 9 23.5 21t8.5 39q-21 -6 -26.5 -18t-5.5 -30v-12zM573 -35l11 14l12 -31zM349 525q4 0 12 -7t11 -7q11 0 21.5 10.5t10.5 21.5q0 6 -2 10l-2 4q-5 0 -13 -3t-16 -8t-14 -10.5t-8 -10.5zM519 655q73 0 130 -13.5t96 -43.5t59.5 -78.5t20.5 -118.5v-401h-229
v401q0 28 -21 39.5t-56 11.5h-183q-30 0 -46.5 -12.5t-16.5 -38.5v-401h-229v650h229v-69q34 39 90 56.5t131 17.5h25z" />
    <glyph glyph-name="o" unicode="o" horiz-adv-x="857" 
d="M336 0q-73 0 -130 13.5t-96 43.5t-59.5 78.5t-20.5 118.5v142q0 70 20.5 118.5t59.5 78.5t96 43.5t130 13.5h185q73 0 130 -13.5t96 -43.5t59.5 -78.5t20.5 -118.5v-142q0 -70 -20.5 -118.5t-59.5 -78.5t-96 -43.5t-130 -13.5h-185zM336 447q-35 0 -56 -11.5t-21 -39.5
v-142q0 -28 21 -39.5t56 -11.5h185q35 0 56 11.5t21 39.5v142q0 28 -21 39.5t-56 11.5h-185zM551 -27q1 1 2 3l1.5 3t2.5 3q3 4 5 9q6 0 9 -5.5t4.5 -13.5t2 -16t0.5 -12l11 -5l-31 -2zM580 151q12 -3 18.5 -4t9.5 -2q4 -1 5 -1q4 0 6 10.5t2 13.5q-11 0 -23.5 -3t-17.5 -14
zM660 151q-2 2 -8 5.5t-8 3.5t-8.5 -3.5t-8.5 -5.5q2 -6 4 -11.5t9 -5.5t11.5 6t8.5 11zM645 28q1 0 2 1.5t5 1.5q-2 5 -9 10.5t-8 5.5q-4 0 -9 -3t-6 -5zM638 63q0 5 -1.5 13.5t-9.5 10.5l-2 -19zM620 221q5 0 13.5 1.5t10.5 9.5l-25 -3zM627 -25q-9 5 -9 16h9v-16z
M563 288l9 8v-16zM346 583q2 -7 6 -13.5t10 -11.5q7 2 8 6.5t1 9.5q0 11 -5.5 14t-15.5 3t-16 -4t-6 -15q12 0 18 11zM509 628q-3 0 -9 -0.5t-12 -2.5t-10 -6.5t-4 -11.5q2 -1 6.5 -1h6.5q22 0 22 22z" />
    <glyph glyph-name="p" unicode="p" 
d="M535 650q73 0 130 -13.5t96 -43.5t59.5 -78.5t20.5 -118.5v-142q0 -70 -20.5 -118.5t-59.5 -78.5t-96 -43.5t-130 -13.5h-64q-66 0 -116 14.5t-82 48.5v-266h-229v853h229v-64q32 34 82 49t116 15h64zM535 203q35 0 56 11.5t21 39.5v142q0 28 -21 39.5t-56 11.5h-199
q-30 0 -46.5 -12.5t-16.5 -38.5v-142q0 -26 16.5 -38.5t46.5 -12.5h199zM508 -128q-5 13 -12 24t-13.5 22.5t-11 23.5t-4.5 27q0 2 0.5 8t0.5 8h4q8 0 11.5 -6.5t3.5 -13.5q0 -8 -3 -12l16 8v-2q0 -1 1 -2q0 -7 -5 -12.5t-5 -11.5q0 -3 5.5 -5.5t12 -4t12.5 -4t7 -5.5z
M576 480q6 -2 8 -2q7 0 11.5 5t7.5 11.5t4 13.5t1 11h-8q-8 0 -8 1q-2 0 -8 3.5t-8 3.5q-7 0 -8 -5.5t-1 -9.5q0 -8 5 -14.5t5 -13.5q0 -3 -1 -4zM778 181q2 2 8 11t8 13v2q0 1 0.5 1t0.5 1q0 10 -11.5 24t-23.5 14q0 -2 0.5 -9t1.5 -9q0 -2 3.5 -12t3.5 -12t-2.5 -5
t-4.5 -3zM601 46q8 0 16 7.5t9 11.5q0 2 -4 8.5t-4 7.5q-2 5 -4.5 17t-3.5 16l-20 -17zM498 180q0 -11 9 -20.5t9 -20.5q0 -3 -1 -5q3 1 6 8t5.5 16t4 17t1.5 11q0 1 -0.5 2.5t-0.5 2.5l-32 -8zM633 470q7 12 8 20t1 20q0 2 -0.5 8t-0.5 8q-11 -6 -14 -21.5t-10 -26.5z
M545 84q1 -1 2 -1h2q4 0 6.5 3.5t5 8t6 8.5t10.5 5l-25 24zM536 608q2 -7 5.5 -12t10.5 -5q11 0 13.5 10t2.5 19q0 2 -0.5 6.5t-0.5 5.5q-11 -18 -31 -24zM512 608l-20 9q-2 -1 -3 -2t-1 -2t-1 -1q0 -8 5 -15.5t11 -12.5zM143 277v8l-14 7l-26 -23zM689 574h-6
q-20 0 -20 -16q0 -1 1 -3.5t1 -4.5q6 2 15 7t9 13v4zM102 259q-6 -8 -14 -14.5t-18 -9.5q2 -2 8 -5t8 -3q6 0 11 11.5t5 16.5v4zM818 68q-4 -8 -12 -8q-12 0 -12 16q0 2 3 5t5 3zM796 325q0 4 -3 10t-8 6t-11.5 -4t-6.5 -12h29zM90 310q-11 0 -16.5 -5t-12.5 -14q9 0 19 4
t10 15zM127 349q2 0 5 3t3 5q0 3 -3 9t-5 8q-8 -5 -8 -12q0 -9 8 -13zM542 526q0 -7 2.5 -16t12.5 -9h2q1 0 2 1q-4 5 -7 11t-3 13h-9zM121 336l-24 -7q4 -9 12 -9q5 0 8.5 3.5t3.5 8.5v4zM260 104q-2 0 -5 -3t-3 -5q0 -6 3 -11.5t9 -5.5h2q1 0 2 1zM209 211q0 10 -11 16
q-4 -3 -6.5 -5t-2.5 -7zM481 478q7 2 8.5 10.5t1.5 13.5h-10v-24zM633 550h-18q0 -9 10 -16zM224 -25q-8 0 -17.5 -4.5t-15.5 -4.5l9 -15zM184 -87l-9 -5q6 -11 17 -11zM722 277q-7 10 -12 10l-5 -2v-8h17zM278 -216l13 -3q0 -12 -10 -16zM665 108q10 6 10 16l-8 2zM312 534
v8h-24zM256 52q-9 -5 -9 -12v-2q0 -1 1 -2q8 4 8 12v4zM564 551q7 0 12 9h-4q-8 0 -12 -9h4zM496 568l-9 8l-3 -14zM465 582h-9v-15z" />
    <glyph glyph-name="q" unicode="q" horiz-adv-x="857" 
d="M336 0q-73 0 -130 13.5t-96 43.5t-59.5 78.5t-20.5 118.5v142q0 70 20.5 118.5t59.5 78.5t96 43.5t130 13.5h64q66 0 115.5 -15t82.5 -49v64h229v-853h-229v266q-33 -34 -82.5 -48.5t-115.5 -14.5h-64zM747 -96l6 12q2 5 5 9t5 4q17 0 17 -12q0 -14 -8 -21.5t-17 -13
t-17 -12t-8 -18.5q0 -6 2 -13t11 -7q1 0 8 2t15 4.5t14.5 5.5t6.5 5q5 -8 15 -11.5t18 -5.5q0 21 -3.5 26.5t-9.5 5.5q-5 0 -11 -1t-14 -1q0 7 3.5 14t7.5 13.5t7.5 14t3.5 16.5q0 14 -5 27.5t-11 26.5q0 1 -0.5 1.5t-0.5 1.5q-5 -3 -7 -6.5t-3.5 -8t-4.5 -9.5t-9 -9
q-8 6 -10 16t-13 10q-4 0 -10.5 -1.5t-6.5 -8.5q0 -1 3.5 -7.5t4.5 -8.5zM732 -16q0 3 -1.5 14t-3.5 14q-2 2 -9 4.5t-7 4.5q0 5 1 8t2 5q3 0 6 -3t7 -3q2 2 5 11.5t3 12.5q0 2 -3 5t-5 3q-12 -7 -22.5 -21t-10.5 -29q0 -14 12.5 -19.5t25.5 -6.5zM494 60q-20 -2 -20 -19
q17 0 20 19zM438 68q6 3 8 8.5t3.5 11.5t4 11.5t8.5 8.5q-2 0 -4.5 0.5t-3.5 0.5q-13 0 -15 -7t-2 -18v-8t1 -8zM181 84l-9 8v-16zM285 92h-10q0 -11 10 -16v16zM303 48q0 -15 6 -22t20 -12q1 2 1 4.5v3.5q0 11 -8 18.5t-19 7.5zM374 124q-9 6 -13.5 13.5t-9 13.5t-11 10
t-19.5 4q-1 0 -1 -0.5t-1 -0.5h-2l-8 -8l-8 -8v9q-2 -1 -4.5 -4t-3.5 -5q0 -3 -1.5 -16.5t-1.5 -16.5q6 0 10 2t7 4t7 4t11 2v21q3 -2 12.5 -11t11.5 -13v-2q0 -1 1 -2q0 -6 -5 -8.5t-11 -3.5l7 -16zM654 108l-7 -8l7 -8v16zM414 148l-16 -32q0 -6 7 -8t9 -2v42zM634 125
q-10 0 -25 -3t-15 -16q4 0 11 0.5t13.5 2.5t11 5.5t4.5 10.5zM108 141q-2 5 -6.5 14.5t-12.5 9.5q-1 0 -2.5 -0.5t-2.5 -0.5q2 -3 7 -13.5t13 -10.5q4 0 4 1zM261 148v19q-7 0 -12.5 -5.5t-5.5 -13.5h18zM277 181l2 -1h2q8 0 12 8h-2q-1 0 -2 1q-7 0 -12 -8zM741 59
q9 -9 15 -13t17 -4h4t4 1q-2 3 -7 7l-10 8t-9.5 7t-5.5 2zM92 267q8 0 13 5t5 13l-13 4zM100 303l-8 6l-8 -8zM719 325q-4 9 -13 9q0 -1 -1 -1h-2l8 -16zM751 374l-8 16v-16h8zM549 97q4 5 7 11.5t3 12.5h-10v-24zM663 454l-9 7v-16zM526 454q4 2 4 8q0 4 -4 8q-4 0 -4 -7
q0 -3 1 -6t3 -3zM598 461l9 17l-17 -8zM751 461q0 2 0.5 10.5t0.5 10.5t0.5 4t0.5 6q0 6 -2 11.5t-8 6.5q-7 -2 -8 -6.5t-1 -9.5q0 -9 4.5 -18t12.5 -15zM478 470q14 5 24 15.5t10 27.5q-13 0 -24.5 -11.5t-11.5 -23.5q0 -2 0.5 -4.5t1.5 -3.5zM550 488q0 1 0.5 1t0.5 1
q0 8 -9 12q0 -1 -0.5 -2t-0.5 -2q0 -8 9 -12v2zM647 524q5 0 13 1.5t11 8.5h-24v-10zM565 250v16l9 -8zM535 203q30 0 46.5 12.5t16.5 38.5v142q0 26 -17 38.5t-46 12.5h-199q-35 0 -56 -11.5t-21 -39.5v-142q0 -28 21 -39.5t56 -11.5h199z" />
    <glyph glyph-name="r" unicode="r" horiz-adv-x="567" 
d="M112 393q-5 4 -10 6.5t-15 2.5l9 -17zM256 -38q-10 4 -19 11t-9 18q9 0 20.5 -4.5t11.5 -14.5zM303 13l0.5 4t2 8.5t3.5 8.5t6 4l2 -1h2l-0.5 -4t-1.5 -8.5t-3 -8.5t-6 -4q-1 0 -2.5 0.5t-2.5 0.5zM312 -76q-9 5 -9 12q0 8 9 12v-24zM44 0v650h229v-75q32 40 83.5 57.5
t121.5 17.5h79v-203h-221q-30 0 -46.5 -12.5t-16.5 -38.5v-396h-229z" />
    <glyph glyph-name="s" unicode="s" horiz-adv-x="751" 
d="M274 239q-60 0 -106 11t-78 35t-48.5 63.5t-16.5 96.5t16.5 96t48.5 63t78 35t106 11h431v-203h-431q-12 0 -19.5 -4t-7.5 -14t7.5 -14t19.5 -4h203q60 0 106 -11t78 -35t48.5 -63.5t16.5 -96.5t-16.5 -96t-48.5 -63t-78 -35t-106 -11h-431v203h431q12 0 19.5 4t7.5 14
t-7.5 14t-19.5 4h-203zM434 64q2 0 6.5 4.5t10 11t9.5 13t6 11.5l2.5 3t5.5 7t5.5 8t2.5 7q0 2 -7 10t-9 10q-1 -9 -6.5 -16t-12 -14t-12.5 -14t-9 -17q-1 -2 -2 -12t-1 -12h11zM523 56q1 0 2 -0.5t2 -0.5q11 0 13.5 15t3.5 26q-15 0 -18.5 -5t-3.5 -19v-8t1 -8zM538 342
q0 -6 2 -18t10 -12q5 0 9 2t4 7q0 11 -8 16t-17 5zM539 281q-13 0 -18.5 -11t-5.5 -21q11 2 17.5 9.5t6.5 18.5v4zM545 185q0 -7 3 -13.5t7 -11.5q3 5 6 11.5t3 13.5h-19zM699 193q2 2 5.5 11t3.5 12q0 9 -16 9zM322 49l-16 7v-24zM426 144q-8 -4 -8 -12q0 -4 5.5 -6.5
t10.5 -4.5z" />
    <glyph glyph-name="t" unicode="t" horiz-adv-x="490" 
d="M459 203v-203h-109q-73 0 -130 13.5t-96 43.5t-59.5 78.5t-20.5 118.5v496h229v-100h187v-203h-187v-193q0 -28 21 -39.5t56 -11.5h109zM332 46q0 5 -1 14t-9 12q-9 -4 -9 -12t6 -11t13 -3zM269 89q0 1 5.5 1.5t8.5 0.5q7 0 11 -2t7.5 -4t7.5 -4t10 -2q0 17 -5.5 22
t-20.5 5q-14 0 -24 -1.5t-24 -7.5q1 -2 4 -7t5 -10.5t4 -9l2 -3.5q0 5 2.5 12.5t6.5 9.5zM278 755q0 17 8.5 26.5t20.5 9.5q1 0 3.5 -4.5t7.5 -4.5q0 -20 -7 -24.5t-18 -4.5q-2 0 -7.5 1t-7.5 1z" />
    <glyph glyph-name="u" unicode="u" horiz-adv-x="869" 
d="M100 287q7 0 10 3t4.5 7.5l3 9t6.5 6.5q-4 9 -12 9q-5 0 -7 -4t-3.5 -9.5t-1.5 -11.5v-10zM695 16q0 -4 5.5 -7t8.5 -3q0 2 0.5 9t1.5 9q0 1 4 7.5t4 8.5t-3 5t-5 3zM229 34q-7 0 -13 -3t-11 -6q2 -8 10 -9.5t14 -1.5v20zM727 418q0 -6 1 -10t7 -6q9 3 9 12q0 6 -5 8
t-12 4v-8zM84 172q-7 -5 -11.5 -16t-4.5 -17q0 -2 3 -5t5 -3zM695 40l-17 8v-4q0 -6 2 -10t7 -10zM188 51h-17q0 -12 10 -16zM205 -24q0 2 3 5.5t5 3.5t8.5 -3.5t7.5 -5.5h-24zM132 351q11 0 16 11h-16v-11zM350 -5q-73 0 -130 13.5t-96 43.5t-59.5 78.5t-20.5 118.5v401
h229v-401q0 -28 21 -39.5t56 -11.5h183q29 0 46 12.5t17 38.5v401h229v-650h-229v68q-35 -39 -90.5 -56t-130.5 -17h-25z" />
    <glyph glyph-name="v" unicode="v" horiz-adv-x="832" 
d="M-20 650h243l193 -412l193 412h243l-305 -650h-262zM665 620q-10 0 -10 -10q0 -7 7 -7q2 0 7.5 3t5.5 7zM551 653l4 17q3 2 7 5q3 2 5 3.5t3 1.5q9 -5 10.5 -16t6.5 -18zM353 137q2 2 4.5 8t2.5 8t-2.5 5t-4.5 3q-9 -4 -9 -12t9 -12zM449 210l-24 7l3 -16zM607 617
q0 -6 2 -18t10 -12q5 0 9 2t4 7q0 11 -8 16t-17 5zM608 556q-13 0 -18.5 -11t-5.5 -21q11 2 17.5 9.5t6.5 18.5v4z" />
    <glyph glyph-name="w" unicode="w" horiz-adv-x="1254" 
d="M627 365l-142 -365h-252l-253 650h243l140 -361l141 361h246l140 -361l141 361h243l-253 -650h-252zM366 12q2 4 5 16t3 16q0 5 -8.5 15.5t-16.5 10.5v-50zM212 128q0 -16 10 -28.5t27 -12.5q0 17 -9.5 29t-27.5 12zM406 92q0 3 -1.5 8.5t-4.5 11t-7.5 9.5t-10.5 4
q-5 -2 -11 -9t-8 -13q15 0 19.5 -5.5t15.5 -5.5h8zM1083 501q0 -6 4 -13.5t9 -14.5t11 -13.5t10 -9.5q1 2 1.5 6t0.5 6q0 14 -11 26.5t-25 12.5zM1007 192l-18 5q-2 0 -4 -6.5t-3.5 -15.5t-2 -17t-0.5 -11q14 0 17.5 11t3.5 23zM1114 404q7 -6 15 -6q13 0 13 11q0 9 -5 17
t-11 12zM846 553q0 -2 0.5 -6t0.5 -6q0 -14 -7 -18t-21 -4q0 15 6.5 22t20.5 12zM1101 662q-2 0 -13 3t-15 4q-1 1 -1 2v3q3 5 6 9q2 3 4.5 5.5t2.5 3.5l23 5zM85 470q3 -8 14 -9.5t19 -1.5q0 20 -17 20q-5 0 -9.5 -1t-6.5 -8zM1083 622q-8 -3 -9.5 -15.5t-1.5 -20.5
q10 0 14.5 7.5t4.5 16.5q0 7 -8 12zM253 81q0 -11 2.5 -25.5t13.5 -19.5q0 1 0.5 4t0.5 4q0 9 -3 23t-14 14zM349 122q10 0 18.5 4t8.5 15l-23 5zM941 44q6 5 10 11.5t6 12.5q-1 0 -4 0.5t-4 0.5q-6 0 -11 -3t-5 -10t8 -12zM1033 517q10 4 10 13q0 5 -5 7.5t-12 3.5
q-1 -1 -1 -2v-2q0 -5 2.5 -9.5t5.5 -10.5zM467 -41q5 16 16 24l8 -8q-3 -5 -8 -10.5t-12 -5.5h-4zM1021 92q-2 6 -4 11.5t-8 5.5q-4 0 -4 -1v-24zM78 496q-19 0 -19 -20q19 0 19 20zM719 476q11 0 16 10q-5 9 -12 9q-1 0 -1 -0.5t-1 -0.5h-2v-18zM542 470q0 2 0.5 4.5
t0.5 3.5q0 6 -2.5 11.5t-10.5 5.5q-1 0 -1 -0.5t-1 -0.5h-2zM1077 301q4 5 7 11.5t3 12.5l-10 3v-27zM1069 543q-2 0 -5 -3.5t-3 -5.5q0 -3 3 -12t5 -12v33zM1013 261q10 5 10 16l-14 -5zM949 253q2 0 5 3t3 5t-3 8t-5 8v-24zM797 593l-7 9l16 7zM973 430h-9l9 -16v16z
M1142 543v15l-9 -8z" />
    <glyph glyph-name="x" unicode="x" horiz-adv-x="833" 
d="M151 10q0 8 2 16t8 14l47 -28q14 9 25 9q0 7 -2 17.5t-5.5 20t-8 16t-8.5 6.5q-1 0 -4.5 -3t-7.5 -6t-8 -5.5t-5 -2.5q-7 0 -11.5 2t-9.5 2q0 5 3.5 7.5t3.5 8.5l-1 2v2q-10 -7 -21.5 -10t-23.5 -5.5t-23.5 -6t-20.5 -10.5q-2 -6 -8.5 -11t-13 -11t-12 -14t-5.5 -20h-59
l282 334l-267 316h275l148 -175l148 175h275l-268 -316l283 -334h-275l-163 192l-163 -192h-106v10zM326 477q5 -2 10.5 -11t8.5 -17q2 -6 2 -7q0 -6 -1 -9q-3 -7 -6.5 -14.5t-3.5 -15.5q10 0 15 2q3 1 9 5q12 7 12 20t-9 23t-9 24q0 4 0.5 7.5t0.5 7.5q0 8 -3 14.5t-14 6.5
q-2 -4 -5.5 -6t-3.5 -5zM263 174q0 2 2 4.5t2 4.5q-4 0 -15 -1t-24.5 -3t-26.5 -5.5t-20 -8.5q-6 -5 -6 -9q0 -3 3 -6q2 -3 11.5 -9t12.5 -8q4 13 13 21.5t20 13.5q8 3 14 4.5t14 1.5zM425 383q0 8 -6.5 11.5t-14.5 3.5q-7 0 -16.5 -2t-9.5 -10q0 -5 2.5 -13t10.5 -8t10 11
t2 14q3 -7 7.5 -9.5t8.5 -6.5zM296 173q3 0 6.5 -3.5t6.5 -3.5q3 1 8 4t10 5q5 3 11 6l-4 11q-11 0 -24.5 -2.5t-13.5 -16.5zM538 78q2 -2 2 -6t2 -6t5 -2t8 -5q5 2 6 6.5t1 8.5q0 12 -12 12q-7 0 -12 -8zM317 428q0 6 -1 15t-9 11q-9 -4 -9 -12t6 -11t13 -3zM475 406l-8 17
l-7 -22z" />
    <glyph glyph-name="y" unicode="y" horiz-adv-x="832" 
d="M226 0q20 0 31 8t11 21q0 8 -4 16l-284 605h243l193 -411l193 411h243l-342 -727q-32 -69 -103.5 -97.5t-177.5 -28.5h-137v203h134zM506 5q2 2 5.5 8t3.5 8q0 1 -3.5 4.5t-5.5 3.5q-2 -2 -5 -8t-3 -9q0 -2 3 -4.5t5 -2.5zM515 101q0 1 0.5 3.5t0.5 4.5q0 5 -1 9.5
t-9 6.5q0 -7 -2 -9t-2 -3q0 -9 13 -12zM306 116q-2 8 -6.5 14t-12.5 6q0 -6 3 -13t11 -7h5zM376 130q1 0 5 -2t8 -4.5l8 -5t6 -2.5q14 0 14 4q0 5 -11 13.5t-16 16.5q-8 0 -11 -7t-3 -13zM266 224q0 5 -1.5 8.5t-7.5 5.5q-2 -2 -4.5 -12t-5 -21.5t-4.5 -22t-2 -13.5
q0 -8 4.5 -15.5t4.5 -15.5q0 -3 -1 -5q3 0 6 11t5.5 25.5t4 28.5t1.5 20v6zM111 431q0 -4 2.5 -10.5t6.5 -6.5q6 0 13 4.5t7 12.5l-24 4zM562 469q11 0 15 8.5t4 17.5l-13 5z" />
    <glyph glyph-name="z" unicode="z" horiz-adv-x="783" 
d="M739 650v-177l-340 -270h340v-203h-695v177l340 270h-340v203h695zM229 64q-1 -3 -1 -10q0 -14 9 -22t24 -8q1 0 3.5 3t4.5 5q7 11 14.5 17t14.5 9.5t12 6.5t7 7q-3 -1 -8 -1q-7 0 -13 2.5t-11 6.5q8 3 9 12t1 14q-8 0 -14 -7t-10.5 -16t-6.5 -19t-3 -16q-5 10 -10 13.5
t-14 3.5q-1 0 -4 -0.5t-4 -0.5zM590 64q-8 -10 -8 -20t8 -15.5t16 -5.5q11 0 18.5 5t18.5 5q10 0 16.5 -2.5t11.5 -14.5q0 5 0.5 12.5t0.5 8.5t1.5 3t1.5 4q0 6 -3 13t-9 7t-13 -3t-16 -5q-6 0 -8.5 5t-8.5 5q0 -7 -2 -17t-13 -10h-2q-1 0 -2 1q-2 2 -4.5 12t-3.5 12z
M598 498q14 10 16.5 26.5t2.5 30.5q-6 0 -16.5 -2t-10.5 -10q0 -11 4.5 -20t4.5 -19q0 -4 -1 -6zM767 72q5 7 11 16t14 9l8 -8q-5 -11 -10.5 -14t-14.5 -3h-8zM436 40q0 -6 4 -11.5t10 -5.5t8 4.5t4 12.5l-23 7zM580 385q-2 8 -6.5 11t-9.5 3q-1 0 -2 -1t-3 -2t-3 -2l16 -18
zM341 40q-7 -5 -13 -11.5t-6 -14.5q20 0 20 18q0 2 -0.5 4.5t-0.5 3.5zM390 104l-9 9q-6 -2 -7 -7t-1 -10v-4q0 -2 1 -3zM640 503l-18 11q0 -13 9 -24zM205 458q5 1 11 3.5t6 8.5l-1 2v1q-6 -1 -11.5 -3t-5.5 -8q0 -3 1 -4zM181 482v16q-5 -2 -7.5 -6.5t-2.5 -9.5h10z
M542 129q1 0 4 -0.5t4 -0.5q5 0 10 1t7 7z" />
    <glyph glyph-name="braceleft" unicode="{" horiz-adv-x="553" 
d="M443 750q-35 0 -56 -11.5t-21 -39.5v-172q0 -59 -27.5 -95.5t-81.5 -56.5q54 -20 81.5 -57t27.5 -95v-172q0 -28 21 -39.5t56 -11.5h85v-203h-85q-73 0 -130 13.5t-96 43.5t-59.5 78.5t-20.5 118.5v172q0 28 -21 39.5t-56 11.5h-35v202h35q35 0 56 11.5t21 39.5v172
q0 70 20.5 118.5t59.5 78.5t96 43.5t130 13.5h85v-203h-85zM348 572l7 26q-8 0 -18 -4t-10 -14zM231 756q0 10 -11.5 13.5t-17.5 3.5q-1 -1 -1 -2v-2q0 -8 11.5 -10.5t18.5 -2.5zM246 588q6 0 10.5 2t9.5 7l-8 15q-6 -4 -10 -10.5t-6 -13.5h4zM275 637q0 -2 -0.5 -5t-0.5 -4
q0 -5 1 -9.5t7 -6.5v2q0 1 0.5 1t0.5 1q0 6 -2.5 10.5t-5.5 10.5zM235 539q6 2 12 4.5t6 7.5q0 1 -0.5 2.5t-0.5 2.5q-7 -2 -12 -4.5t-5 -7.5v-5zM235 580h-9q0 -11 9 -17v17z" />
    <glyph glyph-name="bar" unicode="|" horiz-adv-x="346" 
d="M296 -203h-246v953h246v-953zM82 383q6 2 12 2q9 0 13 -2q2 -2 4.5 -12t3.5 -12q0 -2 4 -2t6 4t3.5 8.5t2 8.5t0.5 5q0 2 -1.5 8.5t-4.5 13t-6.5 12t-6.5 5.5q-1 0 -3 -8l-2 -8q-3 -2 -12 -10.5t-13 -12.5zM75 326q6 12 9 19t5 10q2 4 2 5q0 2 -6 5t-8 3
q0 -13 -5.5 -21.5t-5.5 -20.5h9zM163 319q17 0 17 11q0 3 -2 7.5t-7 4.5q-16 0 -16 -11q0 -4 1.5 -8t6.5 -4zM123 334q2 -5 7.5 -7.5t10.5 -2.5q0 14 -10 18zM265 173q8 0 19 8q-1 0 -3.5 0.5t-3.5 0.5q-6 0 -10.5 -1t-6.5 -8h5z" />
    <glyph glyph-name="braceright" unicode="}" horiz-adv-x="553" 
d="M110 0q35 0 56 11.5t21 39.5v172q0 58 27.5 95t81.5 57q-54 20 -81.5 56.5t-27.5 95.5v172q0 28 -21 39.5t-56 11.5h-85v203h85q73 0 130 -13.5t96 -43.5t59.5 -78.5t20.5 -118.5v-172q0 -28 21 -39.5t56 -11.5h35v-202h-35q-35 0 -56 -11.5t-21 -39.5v-172
q0 -70 -20.5 -118.5t-59.5 -78.5t-96 -43.5t-130 -13.5h-85v203h85zM355 255q6 0 16 0.5t20 2t17 5t7 9.5q0 2 -0.5 5t-0.5 4l-62 -16zM381 150q-1 0 -3 4q-1 2 -2 3q-6 0 -9 -9t-4 -14zM187 749q6 2 12 4.5t6 7.5q0 1 -0.5 2.5t-0.5 2.5q-7 -2 -12 -4.5t-5 -7.5v-5z
M187 790h-9q0 -11 9 -17v17zM235 709h-10q0 -5 3 -9t7 -7v16z" />
    <glyph glyph-name="asciitilde" unicode="~" horiz-adv-x="851" 
d="M20 267q0 70 15.5 118.5t44.5 78.5t72 43.5t98 13.5q58 0 97.5 -13.5t72.5 -30t65.5 -30t75.5 -14.5q19 0 30 12.5t11 38.5v29h229v-29q0 -70 -15.5 -118.5t-44.5 -78.5t-72 -43.5t-98 -13.5q-58 0 -98 13.5t-73 30t-65 30t-75 14.5q-19 0 -30 -12.5t-11 -38.5v-29h-229
v29zM749 419q-2 14 -11.5 23.5t-22.5 10.5q-1 -1 -1 -2q-1 -1 -1 -4q0 -11 9.5 -19.5t19.5 -8.5h7zM766 415q6 2 12 2q9 0 13 -2q2 -2 4.5 -12t3.5 -12q0 -2 4 -2t6 4t3.5 8.5t2 8.5t0.5 5q0 2 -1.5 8.5t-4.5 13t-6.5 12t-6.5 5.5q-1 0 -3 -8l-2 -8q-3 -2 -12 -10.5
t-13 -12.5z" />
    <glyph glyph-name="exclamdown" unicode="&#xa1;" horiz-adv-x="346" 
d="M311 627q0 -29 -11 -54t-29.5 -43.5t-44 -29.5t-53.5 -11q-29 0 -54 11t-43.5 29.5t-29.5 43.5t-11 54q0 28 11 53.5t29.5 44t43.5 29.5t54 11q28 0 53.5 -11t44 -29.5t29.5 -44t11 -53.5zM296 0h-246v430h246v-430zM179 121q0 -8 -5 -14.5t-5 -16.5q11 0 23 10t12 21
l-1 2v2q-1 2 -8 8.5t-8 8.5q-3 3 -4 9.5t-2.5 13t-4 11.5t-7.5 5q-4 -2 -12 -7.5t-10 -8.5q-1 0 -1 -4q0 -3 1 -3q1 -2 6 -6.5t10 -10t10 -10.5l6 -6v-4zM270 342l-12 -8q0 -16 2.5 -32t6.5 -32q8 7 9.5 22t1.5 27zM199 213q12 0 12 16q0 2 -3.5 5.5t-8.5 5.5l-12 6
q-2 0 -5 -3t-3 -5q0 -6 6.5 -15.5t13.5 -9.5zM234 533q3 -8 12 -8t9 14l-14 2zM249 550l-6 6q-13 0 -18 -14zM259 254q-1 2 -7.5 5t-8.5 3t-5 -3t-3 -5h24z" />
    <glyph glyph-name="cent" unicode="&#xa2;" horiz-adv-x="736" 
d="M372 168l-17 19q-12 -4 -22.5 -13t-10.5 -25l12 -19zM311 147l-17 16l-2 -4l-2 -4q0 -5 4 -8t8 -9zM400 -21q0 11 -9 15q-5 -2 -6.5 -8.5t-1.5 -11.5zM706 203v-203h-176v-91h-194v91q-73 0 -130 13.5t-96 43.5t-59.5 78.5t-20.5 118.5v142q0 70 20.5 118.5t59.5 78.5
t96 43.5t130 13.5v91h194v-91h176v-203h-370q-35 0 -56 -11.5t-21 -39.5v-142q0 -28 21 -39.5t56 -11.5h370z" />
    <glyph glyph-name="sterling" unicode="&#xa3;" horiz-adv-x="898" 
d="M467 532q-50 0 -78.5 -17t-28.5 -58v-26h140v-112h-154q-9 -35 -24.5 -60t-39.5 -41h586v-218h-838v218h4q40 2 58.5 28.5t20.5 72.5h-83v112h84v26q0 81 23.5 137t68.5 90.5t111 50t150 15.5h48q84 0 150 -15.5t111 -50t68.5 -90.5t23.5 -137v-35h-246v35q0 41 -28.5 58
t-78.5 17h-48zM164 340q-8 -2 -17 -3t-21 -6l-4 -4q-2 -2 -2 -3q-1 -1 -1 -2q1 1 3 -2.5t4 -7.5t5 -7.5t5 -3.5q3 0 10.5 1.5t11.5 4.5q1 1 1 5t-0.5 9t-0.5 8q0 6 6 11zM124 162q5 0 5 7q0 5 -1.5 11t-2.5 7q-7 16 -19 16q-8 0 -8 -7q0 -3 1 -5q3 -7 9.5 -18t15.5 -11z
M208 327q-8 5 -13.5 13.5t-10.5 16.5h-13q-1 -5 -1.5 -8.5t-0.5 -5.5q8 -7 17.5 -11.5t17.5 -4.5h4zM445 675q6 4 11 14t5 15t-3 10t-9 5zM700 696q0 1 0.5 4t0.5 4q0 4 -1 8t-7 6q-7 -4 -7 -11q0 -6 4.5 -8t9.5 -3z" />
    <glyph glyph-name="yen" unicode="&#xa5;" horiz-adv-x="886" 
d="M320 176v45h-168v112h167l-354 417h293l185 -218l185 218h293l-354 -417h167v-112h-168v-45h168v-112h-168v-64h-246v64h-168v112h168zM373 644q-2 10 -4.5 15.5t-5.5 10t-5 10t-2 15.5q0 4 0.5 12t3 15t6.5 12.5t11 5.5q8 0 12 -5t8 -11l-8 -8l-5 -67zM516 358
q2 3 8.5 7.5t14 8.5t15 7t13.5 3q0 11 -10 13t-18 2q-2 0 -4.5 -0.5t-4.5 -0.5h-5q-5 -2 -10.5 -13.5t-5.5 -18.5zM252 6q6 0 11 3t10 7t10 7t12 3q0 -14 -14.5 -26t-28.5 -16v22zM500 456q0 -5 1.5 -11t7.5 -7q5 1 6.5 5.5t1.5 9.5q0 19 -1.5 25.5t-6.5 7.5
q-6 -1 -7.5 -6.5t-1.5 -10.5l-7 -6zM714 623q0 11 -4.5 23t-16.5 17l-8 -7l17 -33h12zM455 435l-27 19q0 -4 0.5 -10t2.5 -12t5 -10t9 -4zM310 402q11 0 15.5 12.5t4.5 20.5q-11 0 -18 -10.5t-7 -18.5zM428 193q0 -5 1.5 -11t4.5 -11l4 5q7 10 7 17q0 8 -9 12q-8 -4 -8 -12z
M428 486q4 7 6.5 13t2.5 14q-5 0 -11.5 -4t-6.5 -11q0 -5 2 -7t7 -5zM653 583q2 2 5 8t3 8t-3 5t-5 3q-8 -5 -8 -12q0 -8 8 -12zM685 591q2 -8 6 -13.5t13 -5.5q0 6 -3 12.5t-11 6.5h-5zM337 -44l11 19q5 -2 7.5 -6t2.5 -9zM372 423q-5 8 -12 8q-1 0 -1.5 -1t-2.5 -2
q-2 -2 -4 -3l4 -11zM283 438q8 2 9 6.5t1 9.5q0 1 -0.5 4t-0.5 5q-9 -3 -9 -17v-8zM492 414q2 -8 17 -8h7q-11 8 -19 8h-5z" />
    <glyph glyph-name="section" unicode="&#xa7;" horiz-adv-x="771" 
d="M487 511q60 0 106 -11t78 -35t48.5 -63.5t16.5 -96.5q0 -53 -14.5 -90t-41.5 -61q28 -25 42 -62t14 -90q0 -57 -16.5 -96t-48.5 -63t-78 -35t-106 -11h-431v203h431q12 0 19.5 4t7.5 14t-7.5 14t-19.5 4h-203q-60 0 -106 11t-78 35t-48.5 63.5t-16.5 96.5q0 101 55 151
q-55 49 -55 152q0 57 16.5 96t48.5 63t78 35t106 11h431v-203h-431q-12 0 -19.5 -4t-7.5 -14t7.5 -14t19.5 -4h203zM514 208v113q0 10 -7.5 14t-19.5 4h-230v-113q0 -10 7.5 -14t19.5 -4h230zM96 -63q16 8 38 8q3 0 5.5 -0.5t5.5 -0.5q-4 3 -11 9.5t-14.5 14t-13.5 13
t-7 5.5t-3 -2q-1 -1 -3 -1zM151 -86q2 -2 11 -4.5t13 -2.5q14 0 14 13q0 5 -4.5 7.5t-11 4t-13 2.5t-9.5 3q0 -1 -1.5 -5.5t-1.5 -6.5q0 -5 1 -7zM454 -111q8 -13 19 -13q5 0 8.5 2.5t3.5 7.5q0 4 -3 6.5t-5 2.5h-4zM206 224q-1 1 -1 2v3q-11 0 -16 -11.5t-7 -18.5
q0 -1 1 -1h2q9 0 15 8.5t6 17.5zM364 614q-6 3 -8.5 11.5t-3.5 13.5q-9 -12 -9 -27zM235 -113q4 0 10.5 1t8.5 7q-2 7 -9 7q-6 0 -8 -5t-2 -10zM78 293q6 0 9.5 5.5t3.5 8.5q0 5 -4 5t-9 3v-22zM96 545q7 0 9.5 5t2.5 10q0 3 -3.5 3.5t-8.5 2.5v-21zM515 -105q-5 -4 -9 -11
t-4 -15q8 0 10.5 7t2.5 13v6zM700 38q-7 0 -10.5 -4.5t-3.5 -10.5q14 2 14 15zM718 289q-14 0 -14 -15q14 3 14 15zM182 450q0 2 -2.5 4.5t-3.5 2.5q-2 0 -6 -2.5t-6 -4.5h18z" />
    <glyph glyph-name="dieresis" unicode="&#xa8;" horiz-adv-x="392" 
d="M87 855q36 0 61.5 -25.5t25.5 -61.5t-25.5 -61.5t-61.5 -25.5t-61.5 25.5t-25.5 61.5t25.5 61.5t61.5 25.5zM305 855q36 0 61.5 -25.5t25.5 -61.5t-25.5 -61.5t-61.5 -25.5t-61.5 25.5t-25.5 61.5t25.5 61.5t61.5 25.5zM274 732q10 0 13.5 -8t10.5 -8q18 0 18 17
q-12 0 -20.5 4t-19.5 4zM120 838q-11 -8 -17 -14.5t-6 -18.5q16 0 19.5 8t3.5 21v4zM288 708q-5 0 -8 -3.5t-3 -7.5q0 -1 1 -2l2 -2q2 1 5.5 4.5t3.5 7.5q0 2 -1 3z" />
    <glyph glyph-name="copyright" unicode="&#xa9;" horiz-adv-x="917" 
d="M531 750q84 0 150 -15.5t111 -50t68.5 -90.5t23.5 -137v-164q0 -81 -23.5 -137t-68.5 -90.5t-111 -50t-150 -15.5h-145q-84 0 -150 15.5t-111 50t-68.5 90.5t-23.5 137v164q0 81 23.5 137t68.5 90.5t111 50t150 15.5h145zM762 487q0 82 -55.5 118.5t-154.5 36.5h-187
q-99 0 -154.5 -36.5t-55.5 -118.5v-224q0 -82 55.5 -118.5t154.5 -36.5h187q99 0 154.5 36.5t55.5 118.5v224zM617 311v-108h-197q-78 0 -120 30.5t-42 105.5v73q0 75 42 105.5t120 30.5h197v-108h-197q-19 0 -29.5 -6t-10.5 -22v-73q0 -16 10.5 -22t29.5 -6h197zM357 466
q10 0 13.5 -8t10.5 -8q18 0 18 17q-12 0 -20.5 4t-19.5 4zM711 139q5 -13 11.5 -20.5t21.5 -7.5q0 13 -9.5 20.5t-23.5 7.5zM355 515q-11 -8 -17 -14.5t-6 -18.5q16 0 19.5 8t3.5 21v4zM790 208q0 2 -1 4t-3 2q-4 0 -12 -4t-11 -6q1 -10 7 -10t12 5t8 9zM229 731
q-4 0 -6.5 -3.5t-2.5 -6.5t2.5 -6t6.5 -3q3 0 4.5 3t1.5 6q0 7 -6 10zM727 213q-4 0 -5.5 3t-1.5 6t1.5 6.5t5.5 3.5q3 0 3.5 -3.5t0.5 -6.5t-0.5 -6t-3.5 -3zM68 217q8 0 8 8t-8 8q-4 0 -4 -8t4 -8zM711 198q0 9 8 9q4 0 4 -9q0 -6 -4 -6q-8 0 -8 6zM371 442q-5 0 -8 -3.5
t-3 -7.5q0 -1 1 -2l2 -2q2 1 5.5 4.5t3.5 7.5q0 2 -1 3z" />
    <glyph glyph-name="ordfeminine" unicode="&#xaa;" horiz-adv-x="730" 
d="M700 218h-229v38q-32 -25 -79.5 -35.5t-111.5 -10.5q-60 0 -106.5 11t-78.5 35.5t-48.5 64.5t-16.5 97v132q0 57 16.5 97t48.5 64.5t78.5 35.5t105.5 11q65 0 112.5 -11t79.5 -36v39h229v-532zM414 401q26 0 41.5 9t15.5 31v87q0 22 -15.5 31t-41.5 9h-115
q-26 0 -41.5 -9t-15.5 -31v-87q0 -22 15.5 -31t41.5 -9h115zM476 693l-2 7q-2 0 -10 -2t-8 -8zM484 561q5 -8 20.5 -9.5t26.5 -1.5q0 3 -3 10.5t-11 7.5q-4 0 -16 -2.5t-17 -4.5zM597 634q0 11 -4.5 23t-16.5 17l-8 -7l17 -33h12zM536 594q2 2 5 8t3 8t-3 5t-5 3
q-8 -5 -8 -12q0 -8 8 -12zM568 602q2 -8 6 -13.5t13 -5.5q0 6 -3 12.5t-11 6.5h-5z" />
    <glyph glyph-name="guillemotleft" unicode="&#xab;" horiz-adv-x="517" 
d="M237 94h-124l-83 231l83 232h124v-463zM467 94h-124l-83 231l83 232h124v-463zM300 253q4 5 6.5 10t2.5 10q0 8 -9 12q-8 -4 -8 -12q0 -9 8 -20zM194 270q0 5 -2.5 9t-7.5 6l-11 -19zM166 299q18 13 18 35h-5.5t-9 -1t-8 -3.5t-3.5 -6.5q0 -2 3 -12t5 -12zM216 414
q-5 0 -10.5 -4t-5.5 -10q0 -4 7 -16t15 -12z" />
    <glyph glyph-name="logicalnot" unicode="&#xac;" horiz-adv-x="708" 
d="M683 137h-229v139h-439v198h668v-337zM633 169q-10 5 -14.5 11.5t-11.5 8.5q0 13 -12 13q-8 0 -10.5 -5.5t-2.5 -11.5q0 -13 10 -23t24 -10q7 0 12 4.5t5 12.5zM559 169q5 2 7.5 9t2.5 12q-7 0 -10 3.5t-4.5 7.5t-4 7.5t-8.5 3.5q0 -11 3 -24t14 -19zM433 321
q-8 -6 -16 -13.5t-8 -19.5q12 0 20 10t8 21l-1 2v2zM526 234q-9 -5 -9 -19q12 0 18 10z" />
    <glyph glyph-name="registered" unicode="&#xae;" horiz-adv-x="917" 
d="M531 750q84 0 150 -15.5t111 -50t68.5 -90.5t23.5 -137v-164q0 -81 -23.5 -137t-68.5 -90.5t-111 -50t-150 -15.5h-145q-84 0 -150 15.5t-111 50t-68.5 90.5t-23.5 137v164q0 81 23.5 137t68.5 90.5t111 50t150 15.5h145zM762 487q0 82 -55.5 118.5t-154.5 36.5h-187
q-99 0 -154.5 -36.5t-55.5 -118.5v-224q0 -82 55.5 -118.5t154.5 -36.5h187q99 0 154.5 36.5t55.5 118.5v224zM500 548q77 0 119.5 -30.5t42.5 -104.5q0 -46 -16 -74.5t-47 -42.5l79 -93h-142l-64 75h-81v-75h-122v345h231zM391 440v-54h109q17 0 27 6.5t10 20.5t-10 20.5
t-27 6.5h-109zM369 6q2 0 4 4.5t4.5 9.5t4.5 10t5 7q-7 11 -12.5 13t-13.5 2h-8q-3 0 -11.5 -1.5t-18.5 -3.5t-19 -4.5t-12 -5.5q4 -2 13.5 -4t20 -5.5t20.5 -8.5t15 -13h8zM572 250q-3 13 -16 13h-3q-1 0 -2 -1h-1q0 -5 5 -13t11 -9q6 0 6 10zM545 535q-3 0 -8 -0.5
t-10.5 -2.5t-9.5 -5.5t-4 -8.5q10 0 16.5 5.5t15.5 5.5v6zM772 599q0 4 -3.5 6.5t-6.5 2.5t-6 -2.5t-3 -6.5q0 -3 3 -4.5t6 -1.5q7 0 10 6zM204 289q-1 0 -3 1.5t-2 3.5q0 8 6 9.5t12 1.5v-8zM179 109q0 -3 3 -3.5t6 -0.5t6.5 0.5t3.5 3.5q0 4 -3.5 5.5t-6.5 1.5t-6 -1.5
t-3 -5.5zM274 718q8 0 8 8q0 4 -8 4t-8 -4q0 -8 8 -8zM158 117q0 -4 6 -4q9 0 9 4q0 8 -9 8q-6 0 -6 -8z" />
    <glyph glyph-name="degree" unicode="&#xb0;" horiz-adv-x="498" 
d="M302 750q84 0 130 -32.5t46 -112.5v-85q0 -80 -46 -112.5t-130 -32.5h-106q-84 0 -130 32.5t-46 112.5v85q0 80 46 112.5t130 32.5h106zM302 483q25 0 39 8.5t14 28.5v85q0 20 -14 28.5t-39 8.5h-106q-25 0 -39.5 -8.5t-14.5 -28.5v-85q0 -20 14.5 -28.5t39.5 -8.5h106z
M109 612q-3 0 -14.5 -2.5t-14.5 -4.5q4 -2 12.5 -4.5t12.5 -2.5l2 -2q3 -3 5 -4q3 -3 7 -6q2 0 3 8.5t3 10.5q-6 10 -12 10zM130 540q-2 2 -4.5 7t-2.5 7t4 4l4 2v6q0 8 -16 10l-6 -29z" />
    <glyph glyph-name="plusminus" unicode="&#xb1;" horiz-adv-x="604" 
d="M180 602v146h246v-146h148v-198h-544v198h150zM574 346v-198h-544v198h544zM330 97q0 -4 -3 -12t-7.5 -16.5t-10 -14.5t-9.5 -6q-12 0 -26.5 6t-25.5 11q-2 1 -5.5 4t-3.5 4q0 2 3.5 10t8 16.5t9.5 15.5t8 7q8 0 12.5 -7.5t5.5 -9.5zM185 182q6 4 7.5 16.5t1.5 20.5
q-2 0 -9 -2t-7 -8q0 -4 2.5 -13.5t4.5 -13.5zM430 420q4 -2 13.5 -4.5t13.5 -2.5q0 9 -2 15t-2 8q-8 0 -13.5 -5t-9.5 -11z" />
    <glyph glyph-name="acute" unicode="&#xb4;" horiz-adv-x="217" 
d="M0 840h217l-52 -144h-165v144zM160 815q0 -4 -3 -6t-7 -4.5t-7.5 -6t-3.5 -9.5q2 2 4.5 5t6.5 3q5 -4 12 -4q14 0 19 16q0 2 1.5 10t2.5 11h-4q-12 0 -21 -9v-6zM170 759q13 4 13 12q0 7 -4 9q-7 -2 -8.5 -6t-1.5 -9q0 -1 0.5 -3t0.5 -3z" />
    <glyph glyph-name="mu" unicode="&#xb5;" horiz-adv-x="915" 
d="M183 -40q11 0 15.5 12.5t4.5 20.5q-11 0 -18 -10.5t-7 -18.5zM245 -19q-5 8 -12 8q-1 0 -1.5 -1t-2.5 -2q-2 -2 -4 -3l4 -11zM156 -4q8 2 9 6.5t1 9.5q0 1 -0.5 4t-0.5 5q-9 -3 -9 -17v-8zM249 -49q0 -1 2.5 -2.5t3.5 -1.5q6 0 6 7q0 1 -0.5 1t-0.5 1v1q-2 0 -3.5 -1
t-3.5 -2q-2 -2 -4 -3zM273 254q0 -51 62 -51h164q30 0 46.5 12.5t16.5 38.5v396h229v-396q0 -28 21 -39.5t56 -11.5h42v-203h-42q-84 0 -145.5 17t-100.5 57q-22 -40 -59.5 -57t-89.5 -17h-52q-51 0 -88.5 16t-59.5 54v-273h-229v853h229v-396z" />
    <glyph glyph-name="paragraph" unicode="&#xb6;" horiz-adv-x="944" 
d="M894 750v-953h-194v735h-96v-735h-194v367h-39q-84 0 -150 15.5t-111 50t-68.5 90.5t-23.5 137t23.5 137t68.5 90.5t111 50t150 15.5h523zM449 409v4q0 7 -8 12q-5 -4 -11 -12t-6 -13t6 -13t11 -11zM637 628q1 0 3.5 -0.5t3.5 -0.5q12 0 19 7.5t14 18.5l-17 7zM493 216
q5 0 12 1t7 8q0 5 -3 11t-9 6q-7 0 -10 -10.5t-10 -15.5h13zM552 689q-3 8 -9 17.5t-17 9.5q0 -11 3 -19.5t16 -8.5q1 0 3.5 0.5t3.5 0.5zM524 620q-1 2 -7 4.5t-8 2.5q-5 0 -7 -4t-2 -8q0 -6 5 -10t11 -8q1 -1 0 2t-1 5q0 11 9 16zM290 715q-2 0 -4.5 -3t-2.5 -5
q0 -9 7.5 -16t15.5 -9zM460 580q-8 -12 -8 -26q2 0 9 2t7 7q0 3 -3 9t-5 8zM521 643q0 14 -10 14q-1 0 -5 -2.5t-5 -2.5q6 -4 10 -6.5t10 -2.5zM552 574l-26 6q0 -12 10 -15z" />
    <glyph glyph-name="periodcentered" unicode="&#xb7;" horiz-adv-x="316" 
d="M20 469q0 28 11 53.5t29.5 44t43.5 29.5t54 11q28 0 53.5 -11t44 -29.5t29.5 -44t11 -53.5q0 -29 -11 -54t-29.5 -43.5t-44 -29.5t-53.5 -11q-29 0 -54 11t-43.5 29.5t-29.5 43.5t-11 54zM259 398q0 6 -4.5 16t-12.5 13q-3 -2 -7.5 -3.5t-7.5 -3.5l-9 -14q0 -8 3.5 -16
t11.5 -8z" />
    <glyph glyph-name="cedilla" unicode="&#xb8;" horiz-adv-x="235" 
d="M37 -106l56 157h37v-95h9q47 0 71.5 -17.5t24.5 -62.5q0 -44 -24.5 -61.5t-71.5 -17.5h-139l22 61h117q12 0 20 3.5t8 14.5t-8 14.5t-20 3.5h-102zM92 -148q-4 -1 -13 -10t-11 -14q0 -2 3 -8t5 -8q3 -3 5 -3q0 25 19 35zM191 -123q1 -1 4 -1.5t4 -0.5q8 0 14.5 4.5
t6.5 13.5l-5 8q-2 0 -4.5 1t-3.5 1q-18 0 -18 -20z" />
    <glyph glyph-name="ordmasculine" unicode="&#xba;" horiz-adv-x="713" 
d="M432 750q60 0 106.5 -11t79 -35.5t49 -64.5t16.5 -97v-116q0 -57 -16.5 -97t-49 -64.5t-79 -35.5t-106.5 -11h-152q-60 0 -106.5 11t-78.5 35.5t-48.5 64.5t-16.5 97v116q0 57 16.5 97t48.5 64.5t78.5 35.5t106.5 11h152zM414 401q26 0 41.5 9t15.5 31v87q0 22 -15.5 31
t-41.5 9h-115q-26 0 -41.5 -9t-15.5 -31v-87q0 -22 15.5 -31t41.5 -9h115zM472 329q8 0 10.5 4t2.5 9q0 13 -13 13t-13 -13q0 -5 2.5 -9t10.5 -4zM436 368q0 2 -6 6t-14 4q-5 0 -10.5 -4t-5.5 -6q0 -8 5.5 -10.5t10.5 -2.5q16 0 20 13zM503 356q5 -8 20.5 -9.5t26.5 -1.5
q0 3 -3 10.5t-11 7.5q-4 0 -16 -2.5t-17 -4.5z" />
    <glyph glyph-name="guillemotright" unicode="&#xbb;" horiz-adv-x="517" 
d="M280 557h124l83 -232l-83 -231h-124v463zM50 557h124l83 -232l-83 -231h-124v463zM315 319l-27 19q0 -4 0.5 -10t2.5 -12t5 -10t9 -4zM170 286q11 0 15.5 12.5t4.5 20.5q-11 0 -18 -10.5t-7 -18.5zM232 307q-5 8 -12 8q-1 0 -1.5 -1t-2.5 -2q-2 -2 -4 -3l4 -11zM143 322
q8 2 9 6.5t1 9.5q0 1 -0.5 4t-0.5 5q-9 -3 -9 -17v-8z" />
    <glyph glyph-name="questiondown" unicode="&#xbf;" horiz-adv-x="616" 
d="M390 430v-154h-60q-20 0 -32 -6t-12 -22q0 -17 12 -23.5t32 -6.5h261v-218h-261q-73 0 -129.5 11t-95.5 36.5t-59.5 66.5t-20.5 101t20.5 101t59.5 66.5t95.5 36.5t129.5 11h60zM467 627q0 -29 -11 -54t-29.5 -43.5t-44 -29.5t-53.5 -11q-29 0 -54 11t-43.5 29.5
t-29.5 43.5t-11 54q0 28 11 53.5t29.5 44t43.5 29.5t54 11q28 0 53.5 -11t44 -29.5t29.5 -44t11 -53.5zM312 132q1 13 12 23t14 17l-17 32q-3 -6 -5 -12.5t-4 -11.5q-7 3 -7 10v5q0 3 -3 5t-14 4q-9 -13 -9 -32h18q1 -6 3 -12q2 -5 3 -11t2 -10q0 -1 0.5 -3.5t0.5 -3.5h6z
M265 220q-4 -10 -11.5 -17t-7.5 -17q11 0 15 6t4 16v12zM417 196q-2 0 -5 -3t-3 -5t3 -8t5 -8v24zM441 148h-7l7 -16v16z" />
    <glyph glyph-name="Agrave" unicode="&#xc0;" horiz-adv-x="935" 
d="M608 750l352 -750h-258l-46 98h-377l-46 -98h-258l352 750h281zM563 296l-96 203l-95 -203h191zM388 541q0 9 7 10.5t14 1.5h6.5t5.5 -1t3.5 -9.5t3.5 -8.5q8 0 11.5 1.5t4.5 1.5q10 -6 14 -11t7 -9t6.5 -7.5t13.5 -5.5v5q0 5 -7.5 17.5t-9.5 17.5q10 -4 15 -4
q16 0 29.5 12t20.5 25q-2 6 -6.5 7t-9.5 1q-9 0 -16 -4t-13.5 -8.5t-13 -8.5t-13.5 -4q-26 0 -48.5 5.5t-51.5 5.5q0 -11 9.5 -20t17.5 -14v4zM614 568q0 1 1 5l2 8t2.5 7.5l1.5 3.5q1 2 6.5 2t11.5 0.5t11 2.5t5 8t-6 8.5t-12 3.5v50q-5 0 -10.5 -4.5t-10.5 -10.5
t-8.5 -12.5t-3.5 -10.5q0 -8 5 -12.5t5 -11.5q0 -5 -2.5 -6.5t-6 -2t-6 -2t-2.5 -5.5q0 -8 4.5 -16t4.5 -16q0 -2 -0.5 -2.5t-0.5 -2.5zM690 -18q-1 -8 -7.5 -17t-15 -16.5t-18 -12.5t-17.5 -5q0 3 4.5 12.5t10 20t10.5 19l5 8.5q6 0 8.5 -6t3.5 -11zM275 207q0 -2 3.5 -5
t5.5 -3q11 0 14 6t3 17t-1 20.5t-8 20.5zM590 195q0 10 -4 23.5t-17 13.5q-8 0 -11 -11.5t-3 -17.5q23 0 35 -20v12zM315 181q13 0 23 9t10 25q-2 2 -11.5 4.5t-12.5 3.5q-5 -11 -7 -21t-2 -21zM372 641q-2 1 -8 3.5t-7 4.5q-2 1 -8.5 8.5t-9.5 7.5t-8.5 -3t-6.5 -5
q5 -6 12 -15t7 -19q8 0 16 5.5t13 12.5zM701 231q9 6 17.5 8t18.5 2q0 3 -5 7t-11 8.5t-12 8.5t-8 6q-6 -2 -7 -6t-1 -9q0 -13 8 -25zM654 440q-6 -2 -7.5 -4.5t-1.5 -7.5q0 -8 3.5 -14.5t12.5 -6.5q6 0 11.5 2.5t5.5 10.5l-1 2v2q-2 3 -11 9t-12 7zM327 551q0 1 -1 4.5
t-2 5.5q-2 1 -6.5 5.5t-9.5 10t-9.5 9.5t-6.5 6q-1 -1 -1 -3v-4q0 -16 10 -25t26 -9zM758 139q-3 8 -9.5 13t-14.5 7l-8 -17q-1 0 -1 -1v-2h33zM464 214q0 10 -11 16.5t-16 8.5q-1 -1 -1 -3.5v-4.5q0 -11 10 -14t18 -3zM557 484q0 -9 3 -20t15 -11q0 12 -6 22.5t-12 20.5
v-12zM637 293q-7 0 -19.5 -4t-12.5 -18q8 6 16 8t16 2v12zM726 167q2 2 5 11.5t3 12.5q0 2 -3 5t-5 3t-5 -3t-3 -5q0 -3 3 -12.5t5 -11.5zM684 530q0 -8 5 -14.5t12 -11.5q0 2 0.5 4.5t0.5 3.5q0 18 -18 18zM661 157q8 0 13.5 5.5t5.5 12.5h-19v-18zM541 416v4q0 7 -8 12
l-8 -8zM260 247h-11q0 -9 11 -16v16zM645 344q11 4 11 15h-11v-15zM260 207v10q-11 0 -16 -10h16zM552 796h-165l-52 144h217v-144zM497 890q0 14 -3 28t-19 16q-1 -1 -2 -3q-1 -1 -1 -3v-1q0 -11 7 -28t18 -25v16zM537 866q-2 8 -6 14t-13 6q0 -7 3 -13.5t11 -6.5h5z" />
    <glyph glyph-name="Aacute" unicode="&#xc1;" horiz-adv-x="935" 
d="M608 750l352 -750h-258l-46 98h-377l-46 -98h-258l352 750h281zM563 296l-96 203l-95 -203h191zM388 541q0 9 7 10.5t14 1.5h6.5t5.5 -1t3.5 -9.5t3.5 -8.5q8 0 11.5 1.5t4.5 1.5q10 -6 14 -11t7 -9t6.5 -7.5t13.5 -5.5v5q0 5 -7.5 17.5t-9.5 17.5q10 -4 15 -4
q16 0 29.5 12t20.5 25q-2 6 -6.5 7t-9.5 1q-9 0 -16 -4t-13.5 -8.5t-13 -8.5t-13.5 -4q-26 0 -48.5 5.5t-51.5 5.5q0 -11 9.5 -20t17.5 -14v4zM614 568q0 1 1 5l2 8t2.5 7.5l1.5 3.5q1 2 6.5 2t11.5 0.5t11 2.5t5 8t-6 8.5t-12 3.5v50q-5 0 -10.5 -4.5t-10.5 -10.5
t-8.5 -12.5t-3.5 -10.5q0 -8 5 -12.5t5 -11.5q0 -5 -2.5 -6.5t-6 -2t-6 -2t-2.5 -5.5q0 -8 4.5 -16t4.5 -16q0 -2 -0.5 -2.5t-0.5 -2.5zM690 -18q-1 -8 -7.5 -17t-15 -16.5t-18 -12.5t-17.5 -5q0 3 4.5 12.5t10 20t10.5 19l5 8.5q6 0 8.5 -6t3.5 -11zM275 207q0 -2 3.5 -5
t5.5 -3q11 0 14 6t3 17t-1 20.5t-8 20.5zM590 195q0 10 -4 23.5t-17 13.5q-8 0 -11 -11.5t-3 -17.5q23 0 35 -20v12zM315 181q13 0 23 9t10 25q-2 2 -11.5 4.5t-12.5 3.5q-5 -11 -7 -21t-2 -21zM372 641q-2 1 -8 3.5t-7 4.5q-2 1 -8.5 8.5t-9.5 7.5t-8.5 -3t-6.5 -5
q5 -6 12 -15t7 -19q8 0 16 5.5t13 12.5zM701 231q9 6 17.5 8t18.5 2q0 3 -5 7t-11 8.5t-12 8.5t-8 6q-6 -2 -7 -6t-1 -9q0 -13 8 -25zM654 440q-6 -2 -7.5 -4.5t-1.5 -7.5q0 -8 3.5 -14.5t12.5 -6.5q6 0 11.5 2.5t5.5 10.5l-1 2v2q-2 3 -11 9t-12 7zM327 551q0 1 -1 4.5
t-2 5.5q-2 1 -6.5 5.5t-9.5 10t-9.5 9.5t-6.5 6q-1 -1 -1 -3v-4q0 -16 10 -25t26 -9zM758 139q-3 8 -9.5 13t-14.5 7l-8 -17q-1 0 -1 -1v-2h33zM464 214q0 10 -11 16.5t-16 8.5q-1 -1 -1 -3.5v-4.5q0 -11 10 -14t18 -3zM557 484q0 -9 3 -20t15 -11q0 12 -6 22.5t-12 20.5
v-12zM637 293q-7 0 -19.5 -4t-12.5 -18q8 6 16 8t16 2v12zM726 167q2 2 5 11.5t3 12.5q0 2 -3 5t-5 3t-5 -3t-3 -5q0 -3 3 -12.5t5 -11.5zM684 530q0 -8 5 -14.5t12 -11.5q0 2 0.5 4.5t0.5 3.5q0 18 -18 18zM661 157q8 0 13.5 5.5t5.5 12.5h-19v-18zM541 416v4q0 7 -8 12
l-8 -8zM260 247h-11q0 -9 11 -16v16zM645 344q11 4 11 15h-11v-15zM260 207v10q-11 0 -16 -10h16zM383 925h217l-52 -144h-165v144zM543 900q0 -4 -3 -6t-7 -4.5t-7.5 -6t-3.5 -9.5q2 2 4.5 5t6.5 3q5 -4 12 -4q14 0 19 16q0 2 1.5 10t2.5 11h-4q-12 0 -21 -9v-6zM553 844
q13 4 13 12q0 7 -4 9q-7 -2 -8.5 -6t-1.5 -9q0 -1 0.5 -3t0.5 -3z" />
    <glyph glyph-name="Acircumflex" unicode="&#xc2;" horiz-adv-x="935" 
d="M608 750l352 -750h-258l-46 98h-377l-46 -98h-258l352 750h281zM563 296l-96 203l-95 -203h191zM388 541q0 9 7 10.5t14 1.5h6.5t5.5 -1t3.5 -9.5t3.5 -8.5q8 0 11.5 1.5t4.5 1.5q10 -6 14 -11t7 -9t6.5 -7.5t13.5 -5.5v5q0 5 -7.5 17.5t-9.5 17.5q10 -4 15 -4
q16 0 29.5 12t20.5 25q-2 6 -6.5 7t-9.5 1q-9 0 -16 -4t-13.5 -8.5t-13 -8.5t-13.5 -4q-26 0 -48.5 5.5t-51.5 5.5q0 -11 9.5 -20t17.5 -14v4zM614 568q0 1 1 5l2 8t2.5 7.5l1.5 3.5q1 2 6.5 2t11.5 0.5t11 2.5t5 8t-6 8.5t-12 3.5v50q-5 0 -10.5 -4.5t-10.5 -10.5
t-8.5 -12.5t-3.5 -10.5q0 -8 5 -12.5t5 -11.5q0 -5 -2.5 -6.5t-6 -2t-6 -2t-2.5 -5.5q0 -8 4.5 -16t4.5 -16q0 -2 -0.5 -2.5t-0.5 -2.5zM690 -18q-1 -8 -7.5 -17t-15 -16.5t-18 -12.5t-17.5 -5q0 3 4.5 12.5t10 20t10.5 19l5 8.5q6 0 8.5 -6t3.5 -11zM275 207q0 -2 3.5 -5
t5.5 -3q11 0 14 6t3 17t-1 20.5t-8 20.5zM590 195q0 10 -4 23.5t-17 13.5q-8 0 -11 -11.5t-3 -17.5q23 0 35 -20v12zM315 181q13 0 23 9t10 25q-2 2 -11.5 4.5t-12.5 3.5q-5 -11 -7 -21t-2 -21zM372 641q-2 1 -8 3.5t-7 4.5q-2 1 -8.5 8.5t-9.5 7.5t-8.5 -3t-6.5 -5
q5 -6 12 -15t7 -19q8 0 16 5.5t13 12.5zM701 231q9 6 17.5 8t18.5 2q0 3 -5 7t-11 8.5t-12 8.5t-8 6q-6 -2 -7 -6t-1 -9q0 -13 8 -25zM654 440q-6 -2 -7.5 -4.5t-1.5 -7.5q0 -8 3.5 -14.5t12.5 -6.5q6 0 11.5 2.5t5.5 10.5l-1 2v2q-2 3 -11 9t-12 7zM327 551q0 1 -1 4.5
t-2 5.5q-2 1 -6.5 5.5t-9.5 10t-9.5 9.5t-6.5 6q-1 -1 -1 -3v-4q0 -16 10 -25t26 -9zM758 139q-3 8 -9.5 13t-14.5 7l-8 -17q-1 0 -1 -1v-2h33zM464 214q0 10 -11 16.5t-16 8.5q-1 -1 -1 -3.5v-4.5q0 -11 10 -14t18 -3zM557 484q0 -9 3 -20t15 -11q0 12 -6 22.5t-12 20.5
v-12zM637 293q-7 0 -19.5 -4t-12.5 -18q8 6 16 8t16 2v12zM726 167q2 2 5 11.5t3 12.5q0 2 -3 5t-5 3t-5 -3t-3 -5q0 -3 3 -12.5t5 -11.5zM684 530q0 -8 5 -14.5t12 -11.5q0 2 0.5 4.5t0.5 3.5q0 18 -18 18zM661 157q8 0 13.5 5.5t5.5 12.5h-19v-18zM541 416v4q0 7 -8 12
l-8 -8zM260 247h-11q0 -9 11 -16v16zM645 344q11 4 11 15h-11v-15zM260 207v10q-11 0 -16 -10h16zM378 940h178l52 -144h-282zM536 909q-12 17 -35 17q0 -8 7.5 -16.5t16.5 -8.5q4 0 6.5 1.5t4.5 6.5z" />
    <glyph glyph-name="Atilde" unicode="&#xc3;" horiz-adv-x="935" 
d="M608 750l352 -750h-258l-46 98h-377l-46 -98h-258l352 750h281zM563 296l-96 203l-95 -203h191zM388 541q0 9 7 10.5t14 1.5h6.5t5.5 -1t3.5 -9.5t3.5 -8.5q8 0 11.5 1.5t4.5 1.5q10 -6 14 -11t7 -9t6.5 -7.5t13.5 -5.5v5q0 5 -7.5 17.5t-9.5 17.5q10 -4 15 -4
q16 0 29.5 12t20.5 25q-2 6 -6.5 7t-9.5 1q-9 0 -16 -4t-13.5 -8.5t-13 -8.5t-13.5 -4q-26 0 -48.5 5.5t-51.5 5.5q0 -11 9.5 -20t17.5 -14v4zM614 568q0 1 1 5l2 8t2.5 7.5l1.5 3.5q1 2 6.5 2t11.5 0.5t11 2.5t5 8t-6 8.5t-12 3.5v50q-5 0 -10.5 -4.5t-10.5 -10.5
t-8.5 -12.5t-3.5 -10.5q0 -8 5 -12.5t5 -11.5q0 -5 -2.5 -6.5t-6 -2t-6 -2t-2.5 -5.5q0 -8 4.5 -16t4.5 -16q0 -2 -0.5 -2.5t-0.5 -2.5zM690 -18q-1 -8 -7.5 -17t-15 -16.5t-18 -12.5t-17.5 -5q0 3 4.5 12.5t10 20t10.5 19l5 8.5q6 0 8.5 -6t3.5 -11zM275 207q0 -2 3.5 -5
t5.5 -3q11 0 14 6t3 17t-1 20.5t-8 20.5zM590 195q0 10 -4 23.5t-17 13.5q-8 0 -11 -11.5t-3 -17.5q23 0 35 -20v12zM315 181q13 0 23 9t10 25q-2 2 -11.5 4.5t-12.5 3.5q-5 -11 -7 -21t-2 -21zM372 641q-2 1 -8 3.5t-7 4.5q-2 1 -8.5 8.5t-9.5 7.5t-8.5 -3t-6.5 -5
q5 -6 12 -15t7 -19q8 0 16 5.5t13 12.5zM701 231q9 6 17.5 8t18.5 2q0 3 -5 7t-11 8.5t-12 8.5t-8 6q-6 -2 -7 -6t-1 -9q0 -13 8 -25zM654 440q-6 -2 -7.5 -4.5t-1.5 -7.5q0 -8 3.5 -14.5t12.5 -6.5q6 0 11.5 2.5t5.5 10.5l-1 2v2q-2 3 -11 9t-12 7zM327 551q0 1 -1 4.5
t-2 5.5q-2 1 -6.5 5.5t-9.5 10t-9.5 9.5t-6.5 6q-1 -1 -1 -3v-4q0 -16 10 -25t26 -9zM758 139q-3 8 -9.5 13t-14.5 7l-8 -17q-1 0 -1 -1v-2h33zM464 214q0 10 -11 16.5t-16 8.5q-1 -1 -1 -3.5v-4.5q0 -11 10 -14t18 -3zM557 484q0 -9 3 -20t15 -11q0 12 -6 22.5t-12 20.5
v-12zM637 293q-7 0 -19.5 -4t-12.5 -18q8 6 16 8t16 2v12zM726 167q2 2 5 11.5t3 12.5q0 2 -3 5t-5 3t-5 -3t-3 -5q0 -3 3 -12.5t5 -11.5zM684 530q0 -8 5 -14.5t12 -11.5q0 2 0.5 4.5t0.5 3.5q0 18 -18 18zM661 157q8 0 13.5 5.5t5.5 12.5h-19v-18zM541 416v4q0 7 -8 12
l-8 -8zM260 247h-11q0 -9 11 -16v16zM645 344q11 4 11 15h-11v-15zM260 207v10q-11 0 -16 -10h16zM414 834q-24 0 -24 -31v-7h-165v7q0 84 35.5 118t101.5 34q34 0 57 -8.5t40 -18t31 -18t30 -8.5q24 0 24 31v7h165v-7q0 -84 -35.5 -118t-101.5 -34q-34 0 -57.5 8t-40.5 18
t-31 18.5t-29 8.5zM378 861l-28 -4q1 -2 5 -9t8.5 -14.5t9.5 -13.5t9 -6zM351 866q0 2 0.5 6t0.5 6q0 12 -8 16.5t-25 4.5z" />
    <glyph glyph-name="Adieresis" unicode="&#xc4;" horiz-adv-x="935" 
d="M608 750l352 -750h-258l-46 98h-377l-46 -98h-258l352 750h281zM563 296l-96 203l-95 -203h191zM388 541q0 9 7 10.5t14 1.5h6.5t5.5 -1t3.5 -9.5t3.5 -8.5q8 0 11.5 1.5t4.5 1.5q10 -6 14 -11t7 -9t6.5 -7.5t13.5 -5.5v5q0 5 -7.5 17.5t-9.5 17.5q10 -4 15 -4
q16 0 29.5 12t20.5 25q-2 6 -6.5 7t-9.5 1q-9 0 -16 -4t-13.5 -8.5t-13 -8.5t-13.5 -4q-26 0 -48.5 5.5t-51.5 5.5q0 -11 9.5 -20t17.5 -14v4zM614 568q0 1 1 5l2 8t2.5 7.5l1.5 3.5q1 2 6.5 2t11.5 0.5t11 2.5t5 8t-6 8.5t-12 3.5v50q-5 0 -10.5 -4.5t-10.5 -10.5
t-8.5 -12.5t-3.5 -10.5q0 -8 5 -12.5t5 -11.5q0 -5 -2.5 -6.5t-6 -2t-6 -2t-2.5 -5.5q0 -8 4.5 -16t4.5 -16q0 -2 -0.5 -2.5t-0.5 -2.5zM690 -18q-1 -8 -7.5 -17t-15 -16.5t-18 -12.5t-17.5 -5q0 3 4.5 12.5t10 20t10.5 19l5 8.5q6 0 8.5 -6t3.5 -11zM275 207q0 -2 3.5 -5
t5.5 -3q11 0 14 6t3 17t-1 20.5t-8 20.5zM590 195q0 10 -4 23.5t-17 13.5q-8 0 -11 -11.5t-3 -17.5q23 0 35 -20v12zM315 181q13 0 23 9t10 25q-2 2 -11.5 4.5t-12.5 3.5q-5 -11 -7 -21t-2 -21zM372 641q-2 1 -8 3.5t-7 4.5q-2 1 -8.5 8.5t-9.5 7.5t-8.5 -3t-6.5 -5
q5 -6 12 -15t7 -19q8 0 16 5.5t13 12.5zM701 231q9 6 17.5 8t18.5 2q0 3 -5 7t-11 8.5t-12 8.5t-8 6q-6 -2 -7 -6t-1 -9q0 -13 8 -25zM654 440q-6 -2 -7.5 -4.5t-1.5 -7.5q0 -8 3.5 -14.5t12.5 -6.5q6 0 11.5 2.5t5.5 10.5l-1 2v2q-2 3 -11 9t-12 7zM327 551q0 1 -1 4.5
t-2 5.5q-2 1 -6.5 5.5t-9.5 10t-9.5 9.5t-6.5 6q-1 -1 -1 -3v-4q0 -16 10 -25t26 -9zM758 139q-3 8 -9.5 13t-14.5 7l-8 -17q-1 0 -1 -1v-2h33zM464 214q0 10 -11 16.5t-16 8.5q-1 -1 -1 -3.5v-4.5q0 -11 10 -14t18 -3zM557 484q0 -9 3 -20t15 -11q0 12 -6 22.5t-12 20.5
v-12zM637 293q-7 0 -19.5 -4t-12.5 -18q8 6 16 8t16 2v12zM726 167q2 2 5 11.5t3 12.5q0 2 -3 5t-5 3t-5 -3t-3 -5q0 -3 3 -12.5t5 -11.5zM684 530q0 -8 5 -14.5t12 -11.5q0 2 0.5 4.5t0.5 3.5q0 18 -18 18zM661 157q8 0 13.5 5.5t5.5 12.5h-19v-18zM541 416v4q0 7 -8 12
l-8 -8zM260 247h-11q0 -9 11 -16v16zM645 344q11 4 11 15h-11v-15zM260 207v10q-11 0 -16 -10h16zM358 955q36 0 61.5 -25.5t25.5 -61.5t-25.5 -61.5t-61.5 -25.5t-61.5 25.5t-25.5 61.5t25.5 61.5t61.5 25.5zM576 955q36 0 61.5 -25.5t25.5 -61.5t-25.5 -61.5t-61.5 -25.5
t-61.5 25.5t-25.5 61.5t25.5 61.5t61.5 25.5zM545 832q10 0 13.5 -8t10.5 -8q18 0 18 17q-12 0 -20.5 4t-19.5 4zM391 938q-11 -8 -17 -14.5t-6 -18.5q16 0 19.5 8t3.5 21v4zM559 808q-5 0 -8 -3.5t-3 -7.5q0 -1 1 -2l2 -2q2 1 5.5 4.5t3.5 7.5q0 2 -1 3z" />
    <glyph glyph-name="Aring" unicode="&#xc5;" horiz-adv-x="935" 
d="M608 750l352 -750h-258l-46 98h-377l-46 -98h-258l352 750h281zM563 296l-96 203l-95 -203h191zM388 541q0 9 7 10.5t14 1.5h6.5t5.5 -1t3.5 -9.5t3.5 -8.5q8 0 11.5 1.5t4.5 1.5q10 -6 14 -11t7 -9t6.5 -7.5t13.5 -5.5v5q0 5 -7.5 17.5t-9.5 17.5q10 -4 15 -4
q16 0 29.5 12t20.5 25q-2 6 -6.5 7t-9.5 1q-9 0 -16 -4t-13.5 -8.5t-13 -8.5t-13.5 -4q-26 0 -48.5 5.5t-51.5 5.5q0 -11 9.5 -20t17.5 -14v4zM614 568q0 1 1 5l2 8t2.5 7.5l1.5 3.5q1 2 6.5 2t11.5 0.5t11 2.5t5 8t-6 8.5t-12 3.5v50q-5 0 -10.5 -4.5t-10.5 -10.5
t-8.5 -12.5t-3.5 -10.5q0 -8 5 -12.5t5 -11.5q0 -5 -2.5 -6.5t-6 -2t-6 -2t-2.5 -5.5q0 -8 4.5 -16t4.5 -16q0 -2 -0.5 -2.5t-0.5 -2.5zM690 -18q-1 -8 -7.5 -17t-15 -16.5t-18 -12.5t-17.5 -5q0 3 4.5 12.5t10 20t10.5 19l5 8.5q6 0 8.5 -6t3.5 -11zM275 207q0 -2 3.5 -5
t5.5 -3q11 0 14 6t3 17t-1 20.5t-8 20.5zM590 195q0 10 -4 23.5t-17 13.5q-8 0 -11 -11.5t-3 -17.5q23 0 35 -20v12zM315 181q13 0 23 9t10 25q-2 2 -11.5 4.5t-12.5 3.5q-5 -11 -7 -21t-2 -21zM372 641q-2 1 -8 3.5t-7 4.5q-2 1 -8.5 8.5t-9.5 7.5t-8.5 -3t-6.5 -5
q5 -6 12 -15t7 -19q8 0 16 5.5t13 12.5zM701 231q9 6 17.5 8t18.5 2q0 3 -5 7t-11 8.5t-12 8.5t-8 6q-6 -2 -7 -6t-1 -9q0 -13 8 -25zM654 440q-6 -2 -7.5 -4.5t-1.5 -7.5q0 -8 3.5 -14.5t12.5 -6.5q6 0 11.5 2.5t5.5 10.5l-1 2v2q-2 3 -11 9t-12 7zM327 551q0 1 -1 4.5
t-2 5.5q-2 1 -6.5 5.5t-9.5 10t-9.5 9.5t-6.5 6q-1 -1 -1 -3v-4q0 -16 10 -25t26 -9zM758 139q-3 8 -9.5 13t-14.5 7l-8 -17q-1 0 -1 -1v-2h33zM464 214q0 10 -11 16.5t-16 8.5q-1 -1 -1 -3.5v-4.5q0 -11 10 -14t18 -3zM557 484q0 -9 3 -20t15 -11q0 12 -6 22.5t-12 20.5
v-12zM637 293q-7 0 -19.5 -4t-12.5 -18q8 6 16 8t16 2v12zM726 167q2 2 5 11.5t3 12.5q0 2 -3 5t-5 3t-5 -3t-3 -5q0 -3 3 -12.5t5 -11.5zM684 530q0 -8 5 -14.5t12 -11.5q0 2 0.5 4.5t0.5 3.5q0 18 -18 18zM661 157q8 0 13.5 5.5t5.5 12.5h-19v-18zM541 416v4q0 7 -8 12
l-8 -8zM260 247h-11q0 -9 11 -16v16zM645 344q11 4 11 15h-11v-15zM260 207v10q-11 0 -16 -10h16zM522 940q35 0 54.5 -13.5t19.5 -48.5v-20q0 -35 -19.5 -48.5t-54.5 -13.5h-107q-35 0 -54.5 13.5t-19.5 48.5v20q0 35 19.5 48.5t54.5 13.5h107zM509 857q13 0 13 10
q0 11 -13 11h-82q-12 0 -12 -11q0 -10 12 -10h82zM575 857q0 -2 3.5 -8.5t5.5 -8.5q1 2 3 8t2 8q0 1 1 2q2 2 2 4t-3.5 4.5t-4.5 4.5q-4 -2 -4.5 -4t-0.5 -4zM438 916l5 15q-1 -2 -4.5 -4t-5.5 -2q-1 0 -2 3q-1 1 -2 3q-6 0 -7.5 -2t-3.5 -9z" />
    <glyph glyph-name="AE" unicode="&#xc6;" horiz-adv-x="1289" 
d="M1239 750v-218h-529l27 -58h443v-198h-350l27 -58h382v-218h-537l-46 98h-377l-46 -98h-258l352 750h912zM563 296l-96 203l-95 -203h191zM609 588q0 9 7 10.5t14 1.5h6.5t5.5 -1t3.5 -9.5t3.5 -8.5q8 0 11.5 1.5t4.5 1.5q10 -6 14 -11t7 -9t6.5 -7.5t13.5 -5.5v5
q0 5 -7.5 17.5t-9.5 17.5q10 -4 15 -4q16 0 29.5 12t20.5 25q-2 6 -6.5 7t-9.5 1q-9 0 -16 -4t-13.5 -8.5t-13 -8.5t-13.5 -4q-26 0 -48.5 5.5t-51.5 5.5q0 -11 9.5 -20t17.5 -14v4zM275 521q-9 -28 -15 -61q0 -7 8 -12q6 19 24 32q-1 -2 -1 -5q0 -4 3.5 -5t5.5 -6
q1 -4 2 -18t1 -18q3 0 5 4q2 2 5 8t3 8q2 -2 8 -4.5t8 -3.5q1 0 2.5 -0.5t2.5 -0.5q0 23 7.5 29.5t30.5 6.5q0 2 -3 5q-2 3 -11.5 12.5t-12.5 11.5q-3 -16 -11 -16q-6 0 -15 2.5t-18 7t-15.5 10.5t-6.5 13h-7zM690 -18q-1 -8 -7.5 -17t-15 -16.5t-18 -12.5t-17.5 -5
q0 3 4.5 12.5t10 20t10.5 19l5 8.5q6 0 8.5 -6t3.5 -11zM292 392q1 -3 5.5 -9.5t10.5 -13.5t13 -12.5t14 -5.5q3 0 5 1q4 2 13.5 11t10.5 12q-3 -1 -9 -1q-8 0 -14.5 3t-12.5 6.5t-13 6.5t-15 3q-1 0 -4 -0.5t-4 -0.5zM275 207q0 -2 3.5 -5t5.5 -3q11 0 14 6t3 17t-1 20.5
t-8 20.5zM1108 71q0 10 -4 23.5t-17 13.5q-8 0 -11 -11.5t-3 -17.5q23 0 35 -20v12zM315 181q13 0 23 9t10 25q-2 2 -11.5 4.5t-12.5 3.5q-5 -11 -7 -21t-2 -21zM593 688q-2 1 -8 3.5t-7 4.5q-2 1 -8.5 8.5t-9.5 7.5t-8.5 -3t-6.5 -5q5 -6 12 -15t7 -19q8 0 16 5.5t13 12.5z
M1080 164q6 -9 8 -17.5t2 -18.5q3 0 7 5t8.5 11t8.5 12t6 8q-2 6 -6 7t-9 1q-13 0 -25 -8zM548 598q0 1 -1 4.5t-2 5.5q-2 1 -6.5 5.5t-9.5 10t-9.5 9.5t-6.5 6q-1 -1 -1 -3v-4q0 -16 10 -25t26 -9zM464 214q0 10 -11 16.5t-16 8.5q-1 -1 -1 -3.5v-4.5q0 -11 10 -14t18 -3z
M557 484q0 -9 3 -20t15 -11q0 12 -6 22.5t-12 20.5v-12zM719 318q-7 0 -19.5 -4t-12.5 -18q8 6 16 8t16 2v12zM1016 139q2 -2 11.5 -5t12.5 -3q2 0 5 3t3 5t-3 5t-5 3q-3 0 -12.5 -3t-11.5 -5zM747 432l-16 30q-4 -2 -4 -9q0 -8 3.5 -14.5t12.5 -6.5h4zM684 530
q0 -8 5 -14.5t12 -11.5q0 2 0.5 4.5t0.5 3.5q0 18 -18 18zM1179 33q8 0 13.5 5.5t5.5 12.5h-19v-18zM244 368q1 -1 2 -1h2q3 0 7.5 2t4.5 6q0 3 -3 9t-5 8zM988 128h19q0 2 1 3l-17 8h-1q-1 0 -2 1v-12zM541 416v4q0 7 -8 12l-8 -8zM260 247h-11q0 -9 11 -16v16zM727 369
q11 4 11 15h-11v-15zM260 207v10q-11 0 -16 -10h16zM348 422q11 0 16 10h-16v-10zM1085 611q9 0 21.5 7.5t12.5 15.5l-6 6l-6 6q-2 4 -11.5 13t-13.5 11q-1 0 -4 -3t-3 -5q0 -1 3.5 -7.5t3.5 -8.5t0.5 -7t1 -11t1 -11t0.5 -6zM1228 622q-2 10 -8.5 16.5t-15.5 7.5
q-1 -1 -1 -2v-2q0 -8 6.5 -14t13.5 -6h5zM932 668q0 6 -1 15t-9 11q-2 -1 -5 -7t-3 -8q0 -7 8 -9t10 -2z" />
    <glyph glyph-name="Ccedilla" unicode="&#xc7;" horiz-adv-x="848" 
d="M385 -106l38 106h-37q-84 0 -150 15.5t-111 50t-68.5 90.5t-23.5 137v164q0 70 18 121.5t52.5 86.5t85 54.5t116.5 26.5q-8 -3 -16.5 -7t-12.5 -6q2 -8 4 -12.5t8 -4.5q11 0 21 8.5t15 16.5q0 3 -5 6q31 3 67 3h426v-218h-59q-4 6 -11 8q0 -6 1 -8h-275q11 11 15 11h5
q2 2 4.5 12.5t4.5 11.5q1 2 12 4.5t12 4.5q1 1 2 6.5t2 12.5t2 13t2 8q0 3 4.5 5t4.5 7t-4 8.5t-9 3.5q-7 0 -10.5 -8t-5 -17.5t-2.5 -19t-2 -12.5q-6 -9 -17.5 -13t-23.5 -8.5t-21 -11t-9 -18.5h-48q-50 0 -78.5 -17t-28.5 -58v-164q0 -41 28.5 -58t78.5 -17h426v-218h-334
v-44h9q47 0 71.5 -17.5t24.5 -62.5q0 -44 -24.5 -61.5t-71.5 -17.5h-139l22 61h117q12 0 20 3.5t8 14.5t-8 14.5t-20 3.5h-102zM349 25q0 -1 3 -3.5t5 -3.5q11 8 14 17t9 15q4 4 11 5.5t7 6.5q0 8 -8.5 15t-16.5 7l-4 -19l-24 -7q0 6 -2.5 11.5t-2.5 12.5q3 6 11 14t16.5 18
t15 20.5t6.5 19.5q0 1 -6.5 4t-9.5 4q-1 0 -1.5 0.5t-1.5 0.5q0 -16 -7.5 -28t-16 -23.5t-16 -23t-7.5 -26.5q0 -11 2 -15.5t5 -6t8 -2.5t11 -4v-9zM253 582q14 14 16 38q0 7 -3.5 16t-8.5 18t-10 17.5t-7 14.5q-5 0 -7.5 -4t-4 -9.5t-1.5 -11v-9.5q0 -9 6 -16.5t11 -15.5
q-2 -8 -2 -11q0 -11 5.5 -15t5.5 -12zM171 202q8 -5 17 -15t9 -21q0 -8 -5.5 -15.5t-11.5 -12.5q1 0 3.5 -0.5t4.5 -0.5q6 0 11 3.5t9.5 7.5l9 8t10.5 6q-2 6 -6.5 14t-10.5 16.5t-12 15.5t-11 10zM300 197q7 0 11.5 -4t8.5 -9.5t8.5 -9.5t10.5 -4q31 0 31 30q-22 0 -36 6.5
t-34 6.5l-3 -15q1 0 1.5 -0.5t1.5 -0.5zM51 267q8 -22 20 -35t38 -13q0 20 -15.5 34t-38.5 14h-4zM710 644q-6 6 -12 12.5t-12 15.5q0 10 8 21q-2 0 -8.5 -2.5t-13.5 -6t-13 -8.5t-6 -11q0 -8 4.5 -12.5t11.5 -6.5t13.5 -2.5t11.5 -0.5q2 0 8 0.5t8 0.5zM212 90q1 0 4 -0.5
t4 -0.5q3 0 10.5 9.5t15 22t14 24.5t8.5 17q-11 0 -16 -3t-7 -7.5t-3.5 -10t-5.5 -11.5q-1 -1 -8 -3.5t-8 -4.5q-2 -3 -5 -15.5t-3 -16.5zM661 292q0 -21 -6 -35.5t-32 -14.5q0 21 9 33t29 25v-8zM748 780q-8 0 -16 7t-8 15v5l12 8l12 8q8 -3 9.5 -11t1.5 -14zM164 524
q-1 3 -2 8.5t-3 10.5q-2 6 -3 13h-18q0 -12 5 -20.5t5 -19.5q0 -8 -1 -12.5t-5 -9.5q10 10 22 25v5zM533 -113q2 -5 5 -8.5t9 -3.5q8 0 14.5 4.5t6.5 13.5q-2 2 -2 7.5t-2 7.5q-2 0 -5 -2.5t-4 -2.5q-8 0 -15 -3.5t-7 -12.5zM220 264q-4 0 -14.5 -4t-10.5 -12
q0 -4 8.5 -12.5t16.5 -8.5v37zM143 32q-2 -8 -9.5 -15t-15.5 -7v10t1.5 12t4 10t7.5 4t8.5 -4.5t3.5 -9.5zM440 -148q-4 -1 -13 -10t-11 -14q0 -4 4.5 -11.5t8.5 -7.5q0 25 19 35zM180 339q-5 8 -11.5 13t-15.5 5v-4.5t1 -9t3.5 -8.5t6.5 -4q2 0 8 3t8 5zM75 451
q4 10 6.5 18t2.5 18q-8 0 -12.5 -8t-4.5 -16q0 -7 8 -12zM308 130q6 4 10 11t6 13q0 1 -3 1q-8 0 -13.5 -6t-5.5 -12l3 -3q0 -1 2 -3zM666 562q1 0 1 1t-0.5 5t-1.5 8.5t-3.5 8.5t-6.5 4q-3 0 -3 -2l0.5 -4t1.5 -8.5t3.5 -8.5t6.5 -4h2zM130 476q0 -13 10 -16q8 3 8 13
l-14 9zM156 578q7 0 12 5t5 13h-17v-18zM152 310q0 -6 3.5 -10t8.5 -9l2 4q1 2 3 3q0 13 -13 17zM260 540q8 5 8 12q0 12 -12 12h-4zM403 349q0 -8 -6.5 -11t-13.5 -3q0 8 6 12t14 6v-4zM308 677q-5 0 -9 -1t-6 -8l7 -8l16 17h-8zM726 50q7 -11 16 -11v19zM204 298
q7 3 8.5 11.5t1.5 13.5l-8 2zM604 50q0 -11 9 -16l6 20zM573 96q10 0 17 10l-12 4zM67 291q10 4 10 16l-9 3q0 -5 -0.5 -9.5t-0.5 -9.5zM171 644l-7 9l-8 -9l2 -7zM765 774h2q1 0 1 0.5t1 0.5q12 0 12 -13v-4zM344 273q0 11 10 15v-15h-10zM194 531q-1 0 -2 1
q-5 0 -7.5 -1.5t-4.5 -6.5q1 -1 2 -1h2q7 0 12 8h-2zM140 613l-5 -19l12 10z" />
    <glyph glyph-name="Egrave" unicode="&#xc8;" horiz-adv-x="862" 
d="M516 161q-5 0 -8 4t-4.5 9t-2 9.5t-1.5 6.5q-1 1 -4 1t-6.5 -0.5t-5.5 -0.5q-3 1 -4.5 4.5t-3.5 6.5l51 5q-6 2 -13 4.5t-12 7.5h310v-218h-762v750h762v-218h-516v-58h458v-198h-458v-58h176q-14 -14 -18.5 -19t-4.5 -6q0 -6 9.5 -13t21 -13t22 -10t12.5 -4zM514 796
h-165l-52 144h217v-144zM679 697q1 0 2 0.5t2 0.5l2 -1h2q1 -1 3 -4.5t4.5 -8t5 -8t4.5 -3.5q3 0 12 4t11 4q3 0 13 -3t12 -5q-1 2 -1 7.5v12.5v12.5t1 7.5q0 2 3 4.5t5 3.5q3 -2 7.5 -8.5t8.5 -14t7 -13.5t5 -6q4 0 4 2q8 13 8 32q-5 16 -16.5 21t-25.5 5q-3 0 -8.5 -0.5
t-6.5 -1.5q-6 -6 -11 -18t-5 -22q-13 13 -25 15t-27 2h-22.5t-13.5 -1q-1 0 -7.5 -4t-8.5 -4q-4 2 -13 9t-11 11q0 -15 7 -21.5t17 -11.5l21 -10.5t19 -17.5zM121 437q10 -8 20.5 -15t23.5 -7q1 0 4 0.5t4 0.5q-2 2 -5 11.5t-3 12.5q0 2 4 8.5t4 7.5t0.5 3.5t0.5 4.5
q0 10 -5 21.5t-16 11.5q-8 0 -10.5 -7.5t-2.5 -13.5t1 -7.5t2 -3.5t2 -7t1 -18h-29zM726 58v12.5t1 7.5l9 16v17q-8 -12 -14.5 -18.5t-18.5 -6.5q-8 0 -16 8t-9 7q-8 -10 -8 -19q0 -8 7 -11t16 -6t18.5 -8.5t14.5 -17.5v19zM459 890q0 14 -3 28t-19 16q-1 -1 -2 -3
q-1 -1 -1 -3v-1q0 -11 7 -28t18 -25v16zM348 391q-1 0 -2 1q-10 0 -20 -8.5t-16 -16.5q7 -4 17.5 -6t14.5 -10l8 40h-2zM85 600q1 -2 5 -9t8.5 -14.5t9.5 -13.5t9 -6l-4 47zM607 629q11 0 23 8t12 20l-26 7zM543 54q-1 2 -1 8q0 11 6.5 22t19.5 11q4 0 7 -1q-2 6 -5 7t-8 1
q-11 0 -23.5 -13t-12.5 -23q0 -6 5 -8t12 -4zM519 631q14 0 16 11.5t2 21.5l-28 -5zM188 -47q2 3 11.5 12.5t12.5 11.5q0 -1 0.5 -5.5t0.5 -6.5q0 -8 -1 -14t-8 -14q-16 3 -16 16zM470 624q3 28 24 40q-1 1 -5.5 1h-6.5q-12 0 -16 -4t-4 -16q0 -7 1 -13t7 -8zM795 796
q0 -16 -7.5 -22t-21.5 -6h-3h-3q-1 0 -1 1q8 11 15.5 19t20.5 8zM165 520q0 2 0.5 6t0.5 6q0 12 -8 16.5t-25 4.5zM559 456q-8 -10 -11 -23.5t-5 -24.5q13 5 15 13t2 19v8t-1 8zM725 228q-2 0 -5.5 3t-3.5 5q0 5 3.5 17t13.5 12q0 -11 -2 -18.5t-6 -18.5zM687 301
q0 -19 16 -19h3q2 0 3 0.5t2 0.5q-7 5 -10 15t-11 10h-2q-1 0 -1 -1v-6zM679 22q10 5 15 13.5t5 18.5h-12zM406 88q0 1 0.5 1t0.5 1q0 6 -2.5 10t-6.5 11q-8 -5 -8 -13q0 -6 4.5 -8t11.5 -3v1zM519 320q7 4 12.5 10.5t5.5 15.5q-18 0 -18 -19v-7zM694 151q0 -8 5 -13.5
t13 -5.5v19h-18zM510 593q7 2 14 5.5t10 10.5h-24v-16zM499 866q-2 8 -6 14t-13 6q0 -7 3 -13.5t11 -6.5h5zM517 424q0 -12 10 -16v16h-10zM414 134q-4 9 -12 9h-4v-9h16zM237 -34q4 -4 4 -8q0 -6 -4 -8q-3 0 -3 8t3 8z" />
    <glyph glyph-name="Eacute" unicode="&#xc9;" horiz-adv-x="862" 
d="M516 161q-5 0 -8 4t-4.5 9t-2 9.5t-1.5 6.5q-1 1 -4 1t-6.5 -0.5t-5.5 -0.5q-3 1 -4.5 4.5t-3.5 6.5l51 5q-6 2 -13 4.5t-12 7.5h310v-218h-762v750h762v-218h-516v-58h458v-198h-458v-58h176q-14 -14 -18.5 -19t-4.5 -6q0 -6 9.5 -13t21 -13t22 -10t12.5 -4zM349 940
h217l-52 -144h-165v144zM679 697q1 0 2 0.5t2 0.5l2 -1h2q1 -1 3 -4.5t4.5 -8t5 -8t4.5 -3.5q3 0 12 4t11 4q3 0 13 -3t12 -5q-1 2 -1 7.5v12.5v12.5t1 7.5q0 2 3 4.5t5 3.5q3 -2 7.5 -8.5t8.5 -14t7 -13.5t5 -6q4 0 4 2q8 13 8 32q-5 16 -16.5 21t-25.5 5q-3 0 -8.5 -0.5
t-6.5 -1.5q-6 -6 -11 -18t-5 -22q-13 13 -25 15t-27 2h-22.5t-13.5 -1q-1 0 -7.5 -4t-8.5 -4q-4 2 -13 9t-11 11q0 -15 7 -21.5t17 -11.5l21 -10.5t19 -17.5zM121 437q10 -8 20.5 -15t23.5 -7q1 0 4 0.5t4 0.5q-2 2 -5 11.5t-3 12.5q0 2 4 8.5t4 7.5t0.5 3.5t0.5 4.5
q0 10 -5 21.5t-16 11.5q-8 0 -10.5 -7.5t-2.5 -13.5t1 -7.5t2 -3.5t2 -7t1 -18h-29zM726 58v12.5t1 7.5l9 16v17q-8 -12 -14.5 -18.5t-18.5 -6.5q-8 0 -16 8t-9 7q-8 -10 -8 -19q0 -8 7 -11t16 -6t18.5 -8.5t14.5 -17.5v19zM509 915q0 -4 -3 -6t-7 -4.5t-7.5 -6t-3.5 -9.5
q2 2 4.5 5t6.5 3q5 -4 12 -4q14 0 19 16q0 2 1.5 10t2.5 11h-4q-12 0 -21 -9v-6zM348 391q-1 0 -2 1q-10 0 -20 -8.5t-16 -16.5q7 -4 17.5 -6t14.5 -10l8 40h-2zM85 600q1 -2 5 -9t8.5 -14.5t9.5 -13.5t9 -6l-4 47zM607 629q11 0 23 8t12 20l-26 7zM543 54q-1 2 -1 8
q0 11 6.5 22t19.5 11q4 0 7 -1q-2 6 -5 7t-8 1q-11 0 -23.5 -13t-12.5 -23q0 -6 5 -8t12 -4zM519 631q14 0 16 11.5t2 21.5l-28 -5zM188 -47q2 3 11.5 12.5t12.5 11.5q0 -1 0.5 -5.5t0.5 -6.5q0 -8 -1 -14t-8 -14q-16 3 -16 16zM470 624q3 28 24 40q-1 1 -5.5 1h-6.5
q-12 0 -16 -4t-4 -16q0 -7 1 -13t7 -8zM795 796q0 -16 -7.5 -22t-21.5 -6h-3h-3q-1 0 -1 1q8 11 15.5 19t20.5 8zM165 520q0 2 0.5 6t0.5 6q0 12 -8 16.5t-25 4.5zM559 456q-8 -10 -11 -23.5t-5 -24.5q13 5 15 13t2 19v8t-1 8zM725 228q-2 0 -5.5 3t-3.5 5q0 5 3.5 17
t13.5 12q0 -11 -2 -18.5t-6 -18.5zM687 301q0 -19 16 -19h3q2 0 3 0.5t2 0.5q-7 5 -10 15t-11 10h-2q-1 0 -1 -1v-6zM679 22q10 5 15 13.5t5 18.5h-12zM406 88q0 1 0.5 1t0.5 1q0 6 -2.5 10t-6.5 11q-8 -5 -8 -13q0 -6 4.5 -8t11.5 -3v1zM519 320q7 4 12.5 10.5t5.5 15.5
q-18 0 -18 -19v-7zM694 151q0 -8 5 -13.5t13 -5.5v19h-18zM510 593q7 2 14 5.5t10 10.5h-24v-16zM519 859q13 4 13 12q0 7 -4 9q-7 -2 -8.5 -6t-1.5 -9q0 -1 0.5 -3t0.5 -3zM517 424q0 -12 10 -16v16h-10zM414 134q-4 9 -12 9h-4v-9h16zM237 -34q4 -4 4 -8q0 -6 -4 -8
q-3 0 -3 8t3 8z" />
    <glyph glyph-name="Ecircumflex" unicode="&#xca;" horiz-adv-x="862" 
d="M516 161q-5 0 -8 4t-4.5 9t-2 9.5t-1.5 6.5q-1 1 -4 1t-6.5 -0.5t-5.5 -0.5q-3 1 -4.5 4.5t-3.5 6.5l51 5q-6 2 -13 4.5t-12 7.5h310v-218h-762v750h762v-218h-516v-58h458v-198h-458v-58h176q-14 -14 -18.5 -19t-4.5 -6q0 -6 9.5 -13t21 -13t22 -10t12.5 -4zM342 940
h178l52 -144h-282zM679 697q1 0 2 0.5t2 0.5l2 -1h2q1 -1 3 -4.5t4.5 -8t5 -8t4.5 -3.5q3 0 12 4t11 4q3 0 13 -3t12 -5q-1 2 -1 7.5v12.5v12.5t1 7.5q0 2 3 4.5t5 3.5q3 -2 7.5 -8.5t8.5 -14t7 -13.5t5 -6q4 0 4 2q8 13 8 32q-5 16 -16.5 21t-25.5 5q-3 0 -8.5 -0.5
t-6.5 -1.5q-6 -6 -11 -18t-5 -22q-13 13 -25 15t-27 2h-22.5t-13.5 -1q-1 0 -7.5 -4t-8.5 -4q-4 2 -13 9t-11 11q0 -15 7 -21.5t17 -11.5l21 -10.5t19 -17.5zM121 437q10 -8 20.5 -15t23.5 -7q1 0 4 0.5t4 0.5q-2 2 -5 11.5t-3 12.5q0 2 4 8.5t4 7.5t0.5 3.5t0.5 4.5
q0 10 -5 21.5t-16 11.5q-8 0 -10.5 -7.5t-2.5 -13.5t1 -7.5t2 -3.5t2 -7t1 -18h-29zM726 58v12.5t1 7.5l9 16v17q-8 -12 -14.5 -18.5t-18.5 -6.5q-8 0 -16 8t-9 7q-8 -10 -8 -19q0 -8 7 -11t16 -6t18.5 -8.5t14.5 -17.5v19zM348 391q-1 0 -2 1q-10 0 -20 -8.5t-16 -16.5
q7 -4 17.5 -6t14.5 -10l8 40h-2zM85 600q1 -2 5 -9t8.5 -14.5t9.5 -13.5t9 -6l-4 47zM607 629q11 0 23 8t12 20l-26 7zM543 54q-1 2 -1 8q0 11 6.5 22t19.5 11q4 0 7 -1q-2 6 -5 7t-8 1q-11 0 -23.5 -13t-12.5 -23q0 -6 5 -8t12 -4zM519 631q14 0 16 11.5t2 21.5l-28 -5z
M188 -47q2 3 11.5 12.5t12.5 11.5q0 -1 0.5 -5.5t0.5 -6.5q0 -8 -1 -14t-8 -14q-16 3 -16 16zM470 624q3 28 24 40q-1 1 -5.5 1h-6.5q-12 0 -16 -4t-4 -16q0 -7 1 -13t7 -8zM795 796q0 -16 -7.5 -22t-21.5 -6h-3h-3q-1 0 -1 1q8 11 15.5 19t20.5 8zM500 909q-12 17 -35 17
q0 -8 7.5 -16.5t16.5 -8.5q4 0 6.5 1.5t4.5 6.5zM165 520q0 2 0.5 6t0.5 6q0 12 -8 16.5t-25 4.5zM559 456q-8 -10 -11 -23.5t-5 -24.5q13 5 15 13t2 19v8t-1 8zM725 228q-2 0 -5.5 3t-3.5 5q0 5 3.5 17t13.5 12q0 -11 -2 -18.5t-6 -18.5zM687 301q0 -19 16 -19h3q2 0 3 0.5
t2 0.5q-7 5 -10 15t-11 10h-2q-1 0 -1 -1v-6zM679 22q10 5 15 13.5t5 18.5h-12zM406 88q0 1 0.5 1t0.5 1q0 6 -2.5 10t-6.5 11q-8 -5 -8 -13q0 -6 4.5 -8t11.5 -3v1zM519 320q7 4 12.5 10.5t5.5 15.5q-18 0 -18 -19v-7zM694 151q0 -8 5 -13.5t13 -5.5v19h-18zM510 593
q7 2 14 5.5t10 10.5h-24v-16zM517 424q0 -12 10 -16v16h-10zM414 134q-4 9 -12 9h-4v-9h16zM237 -34q4 -4 4 -8q0 -6 -4 -8q-3 0 -3 8t3 8z" />
    <glyph glyph-name="Edieresis" unicode="&#xcb;" horiz-adv-x="862" 
d="M516 161q-5 0 -8 4t-4.5 9t-2 9.5t-1.5 6.5q-1 1 -4 1t-6.5 -0.5t-5.5 -0.5q-3 1 -4.5 4.5t-3.5 6.5l51 5q-6 2 -13 4.5t-12 7.5h310v-218h-762v750h762v-218h-516v-58h458v-198h-458v-58h176q-14 -14 -18.5 -19t-4.5 -6q0 -6 9.5 -13t21 -13t22 -10t12.5 -4zM322 955
q36 0 61.5 -25.5t25.5 -61.5t-25.5 -61.5t-61.5 -25.5t-61.5 25.5t-25.5 61.5t25.5 61.5t61.5 25.5zM540 955q36 0 61.5 -25.5t25.5 -61.5t-25.5 -61.5t-61.5 -25.5t-61.5 25.5t-25.5 61.5t25.5 61.5t61.5 25.5zM679 697q1 0 2 0.5t2 0.5l2 -1h2q1 -1 3 -4.5t4.5 -8t5 -8
t4.5 -3.5q3 0 12 4t11 4q3 0 13 -3t12 -5q-1 2 -1 7.5v12.5v12.5t1 7.5q0 2 3 4.5t5 3.5q3 -2 7.5 -8.5t8.5 -14t7 -13.5t5 -6q4 0 4 2q8 13 8 32q-5 16 -16.5 21t-25.5 5q-3 0 -8.5 -0.5t-6.5 -1.5q-6 -6 -11 -18t-5 -22q-13 13 -25 15t-27 2h-22.5t-13.5 -1q-1 0 -7.5 -4
t-8.5 -4q-4 2 -13 9t-11 11q0 -15 7 -21.5t17 -11.5l21 -10.5t19 -17.5zM121 437q10 -8 20.5 -15t23.5 -7q1 0 4 0.5t4 0.5q-2 2 -5 11.5t-3 12.5q0 2 4 8.5t4 7.5t0.5 3.5t0.5 4.5q0 10 -5 21.5t-16 11.5q-8 0 -10.5 -7.5t-2.5 -13.5t1 -7.5t2 -3.5t2 -7t1 -18h-29zM726 58
v12.5t1 7.5l9 16v17q-8 -12 -14.5 -18.5t-18.5 -6.5q-8 0 -16 8t-9 7q-8 -10 -8 -19q0 -8 7 -11t16 -6t18.5 -8.5t14.5 -17.5v19zM348 391q-1 0 -2 1q-10 0 -20 -8.5t-16 -16.5q7 -4 17.5 -6t14.5 -10l8 40h-2zM85 600q1 -2 5 -9t8.5 -14.5t9.5 -13.5t9 -6l-4 47zM607 629
q11 0 23 8t12 20l-26 7zM543 54q-1 2 -1 8q0 11 6.5 22t19.5 11q4 0 7 -1q-2 6 -5 7t-8 1q-11 0 -23.5 -13t-12.5 -23q0 -6 5 -8t12 -4zM519 631q14 0 16 11.5t2 21.5l-28 -5zM509 832q10 0 13.5 -8t10.5 -8q18 0 18 17q-12 0 -20.5 4t-19.5 4zM188 -47q2 3 11.5 12.5
t12.5 11.5q0 -1 0.5 -5.5t0.5 -6.5q0 -8 -1 -14t-8 -14q-16 3 -16 16zM470 624q3 28 24 40q-1 1 -5.5 1h-6.5q-12 0 -16 -4t-4 -16q0 -7 1 -13t7 -8zM795 796q0 -16 -7.5 -22t-21.5 -6h-3h-3q-1 0 -1 1q8 11 15.5 19t20.5 8zM165 520q0 2 0.5 6t0.5 6q0 12 -8 16.5t-25 4.5z
M355 938q-11 -8 -17 -14.5t-6 -18.5q16 0 19.5 8t3.5 21v4zM559 456q-8 -10 -11 -23.5t-5 -24.5q13 5 15 13t2 19v8t-1 8zM725 228q-2 0 -5.5 3t-3.5 5q0 5 3.5 17t13.5 12q0 -11 -2 -18.5t-6 -18.5zM687 301q0 -19 16 -19h3q2 0 3 0.5t2 0.5q-7 5 -10 15t-11 10h-2
q-1 0 -1 -1v-6zM679 22q10 5 15 13.5t5 18.5h-12zM406 88q0 1 0.5 1t0.5 1q0 6 -2.5 10t-6.5 11q-8 -5 -8 -13q0 -6 4.5 -8t11.5 -3v1zM519 320q7 4 12.5 10.5t5.5 15.5q-18 0 -18 -19v-7zM694 151q0 -8 5 -13.5t13 -5.5v19h-18zM510 593q7 2 14 5.5t10 10.5h-24v-16z
M517 424q0 -12 10 -16v16h-10zM414 134q-4 9 -12 9h-4v-9h16zM523 808q-5 0 -8 -3.5t-3 -7.5q0 -1 1 -2l2 -2q2 1 5.5 4.5t3.5 7.5q0 2 -1 3zM237 -34q4 -4 4 -8q0 -6 -4 -8q-3 0 -3 8t3 8z" />
    <glyph glyph-name="Igrave" unicode="&#xcc;" horiz-adv-x="346" 
d="M296 0h-246v750h246v-750zM155 48q13 0 20.5 8t7.5 19q-10 0 -21 -5.5t-11 -17.5v-4h4zM119 587q8 5 13.5 11t5.5 15q-7 0 -17 -2t-10 -13q0 -7 8 -11zM215 121q0 2 -3.5 3t-8.5 1q-11 0 -11 -4q1 -4 11 -4q9 0 12 4zM136 552q7 0 13.5 5t11 12t7 15t2.5 14q0 13 -13 13
q-1 0 -1 -0.5t-1 -0.5h-1q-2 -19 -10 -31t-8 -27zM128 545q-12 0 -21.5 -6t-9.5 -19q0 -2 0.5 -3t0.5 -3q2 0 3 -0.5t3 -0.5q13 0 18.5 9.5t5.5 22.5zM255 796h-165l-52 144h217v-144zM200 890q0 14 -3 28t-19 16q-1 -1 -2 -3q-1 -1 -1 -3v-1q0 -11 7 -28t18 -25v16z
M240 866q-2 8 -6 14t-13 6q0 -7 3 -13.5t11 -6.5h5z" />
    <glyph glyph-name="Iacute" unicode="&#xcd;" horiz-adv-x="346" 
d="M296 0h-246v750h246v-750zM155 48q13 0 20.5 8t7.5 19q-10 0 -21 -5.5t-11 -17.5v-4h4zM119 587q8 5 13.5 11t5.5 15q-7 0 -17 -2t-10 -13q0 -7 8 -11zM215 121q0 2 -3.5 3t-8.5 1q-11 0 -11 -4q1 -4 11 -4q9 0 12 4zM136 552q7 0 13.5 5t11 12t7 15t2.5 14q0 13 -13 13
q-1 0 -1 -0.5t-1 -0.5h-1q-2 -19 -10 -31t-8 -27zM128 545q-12 0 -21.5 -6t-9.5 -19q0 -2 0.5 -3t0.5 -3q2 0 3 -0.5t3 -0.5q13 0 18.5 9.5t5.5 22.5zM91 940h217l-52 -144h-165v144zM251 915q0 -4 -3 -6t-7 -4.5t-7.5 -6t-3.5 -9.5q2 2 4.5 5t6.5 3q5 -4 12 -4q14 0 19 16
q0 2 1.5 10t2.5 11h-4q-12 0 -21 -9v-6zM261 859q13 4 13 12q0 7 -4 9q-7 -2 -8.5 -6t-1.5 -9q0 -1 0.5 -3t0.5 -3z" />
    <glyph glyph-name="Icircumflex" unicode="&#xce;" horiz-adv-x="346" 
d="M296 0h-246v750h246v-750zM155 48q13 0 20.5 8t7.5 19q-10 0 -21 -5.5t-11 -17.5v-4h4zM119 587q8 5 13.5 11t5.5 15q-7 0 -17 -2t-10 -13q0 -7 8 -11zM215 121q0 2 -3.5 3t-8.5 1q-11 0 -11 -4q1 -4 11 -4q9 0 12 4zM136 552q7 0 13.5 5t11 12t7 15t2.5 14q0 13 -13 13
q-1 0 -1 -0.5t-1 -0.5h-1q-2 -19 -10 -31t-8 -27zM128 545q-12 0 -21.5 -6t-9.5 -19q0 -2 0.5 -3t0.5 -3q2 0 3 -0.5t3 -0.5q13 0 18.5 9.5t5.5 22.5zM84 940h178l52 -144h-282zM242 909q-12 17 -35 17q0 -8 7.5 -16.5t16.5 -8.5q4 0 6.5 1.5t4.5 6.5z" />
    <glyph glyph-name="Idieresis" unicode="&#xcf;" horiz-adv-x="346" 
d="M296 0h-246v750h246v-750zM155 48q13 0 20.5 8t7.5 19q-10 0 -21 -5.5t-11 -17.5v-4h4zM119 587q8 5 13.5 11t5.5 15q-7 0 -17 -2t-10 -13q0 -7 8 -11zM215 121q0 2 -3.5 3t-8.5 1q-11 0 -11 -4q1 -4 11 -4q9 0 12 4zM136 552q7 0 13.5 5t11 12t7 15t2.5 14q0 13 -13 13
q-1 0 -1 -0.5t-1 -0.5h-1q-2 -19 -10 -31t-8 -27zM128 545q-12 0 -21.5 -6t-9.5 -19q0 -2 0.5 -3t0.5 -3q2 0 3 -0.5t3 -0.5q13 0 18.5 9.5t5.5 22.5zM64 955q36 0 61.5 -25.5t25.5 -61.5t-25.5 -61.5t-61.5 -25.5t-61.5 25.5t-25.5 61.5t25.5 61.5t61.5 25.5zM282 955
q36 0 61.5 -25.5t25.5 -61.5t-25.5 -61.5t-61.5 -25.5t-61.5 25.5t-25.5 61.5t25.5 61.5t61.5 25.5zM251 832q10 0 13.5 -8t10.5 -8q18 0 18 17q-12 0 -20.5 4t-19.5 4zM97 938q-11 -8 -17 -14.5t-6 -18.5q16 0 19.5 8t3.5 21v4zM265 808q-5 0 -8 -3.5t-3 -7.5q0 -1 1 -2
l2 -2q2 1 5.5 4.5t3.5 7.5q0 2 -1 3z" />
    <glyph glyph-name="Eth" unicode="&#xd0;" horiz-adv-x="984" 
d="M63 431v319h535q84 0 150 -15.5t111 -50t68.5 -90.5t23.5 -137v-164q0 -81 -23.5 -137t-68.5 -90.5t-111 -50t-150 -15.5h-535v319h-83v112h83zM309 532v-101h141v-112h-141v-101h289q50 0 78.5 17t28.5 58v164q0 41 -28.5 58t-78.5 17h-289zM563 82q-14 0 -16 8t-2 16
l30 12q0 11 4.5 16t9.5 8.5t9.5 8t4.5 14.5q-15 0 -23 -5t-13.5 -12t-10.5 -14t-13 -11q-2 -2 -12 -4.5t-12 -4.5q-3 -3 -3 -7q0 -2 0.5 -4.5t0.5 -4.5q0 -5 -5.5 -8t-25.5 -3q0 -13 3.5 -22t16.5 -9q8 0 11 3t5 7t4.5 7t9.5 3t9 -4t2.5 -9.5t2 -9.5t8.5 -4q11 0 20 10
t11 20l2 3q0 2 -3 5t-5 3q-1 0 -7.5 -3.5t-7.5 -4.5h-5zM744 42q4 2 10 7.5t12.5 11.5t14 10.5t13.5 4.5q3 0 7 -2q1 1 2 2.5t4 3.5q14 13 31 31t27 35l7 15h-31q-2 -29 -18 -46.5t-42 -17.5h-6.5t-6.5 1q-1 -7 -5 -13.5t-8 -12.5t-7.5 -12.5t-3.5 -13.5v-4zM213 -64
q-8 0 -17.5 2t-14.5 7q-1 1 -1 5q0 5 0.5 9.5t0.5 7.5q0 5 -9.5 7.5t-14.5 2.5q2 2 8 5t8 3q6 0 13 -5.5t13 -12.5t10.5 -14.5t4.5 -11.5q0 -1 -0.5 -2.5t-0.5 -2.5zM829 464q-4 3 -7 8.5t-5.5 11t-6 9.5t-9.5 4q-7 0 -14 -9.5t-7 -14.5q0 -7 9 -8.5t19 -1.5q3 0 11 0.5
t10 0.5zM716 473q2 -1 5 -1h4q11 0 18 9t7 20q0 6 -5 9t-12 3q-2 0 -5 -3.5t-3 -5.5q-2 -3 -5 -15.5t-4 -15.5zM268 59q0 -14 8.5 -24.5t22.5 -10.5q0 17 -7 26t-24 9zM688 604l16 16q-2 8 -6.5 9t-9.5 1t-9.5 -1t-6.5 -9zM439 644q-17 0 -17 -12q0 -6 5.5 -10t11.5 -4v26z
M245 516q7 5 12.5 7t5.5 4q0 8 -5.5 10t-12.5 3v-24zM816 650q6 0 14 1.5t11 8.5h-25v-10zM455 602q5 0 13 1.5t11 8.5h-24v-10zM535 50h-9q0 -13 9 -24v24zM857 97q5 0 9 2t6 7h-15v-9z" />
    <glyph glyph-name="Ntilde" unicode="&#xd1;" horiz-adv-x="936" 
d="M640 345v405h246v-750h-246l-344 405v-405h-246v750h246zM415 834q-24 0 -24 -31v-7h-165v7q0 84 35.5 118t101.5 34q34 0 57 -8.5t40 -18t31 -18t30 -8.5q24 0 24 31v7h165v-7q0 -84 -35.5 -118t-101.5 -34q-34 0 -57.5 8t-40.5 18t-31 18.5t-29 8.5zM273 197
q-4 1 -13.5 7t-10.5 8t3 8.5t5 8.5q0 3 1 14.5t1 14.5q-16 0 -24.5 -5.5t-14.5 -13.5t-11.5 -17t-15.5 -17q10 -5 21 -11.5t19 -12.5q4 -3 6 -9t3.5 -11.5t3.5 -9.5t7 -4q1 0 2 0.5t2 0.5zM642 301q-1 0 -4 -3l-4 -4q-2 -6 -5 -21.5t-3 -19.5q0 -6 3 -11.5t9 -5.5
q7 0 7.5 5.5t4.5 11.5t8 7t8 1t8 1t8 7q3 3 4.5 8t1.5 10t-1 7q-6 0 -12.5 -5.5t-8.5 -11.5zM549 -150q-8 0 -16 7.5t-8 15.5q0 9 1.5 15.5t6.5 17.5q1 -1 6.5 -5.5t11.5 -9t10.5 -8.5t4.5 -5q0 -5 -5.5 -16.5t-11.5 -11.5zM815 799h9t12 -1t10 -3.5t4 -6.5q0 -10 -2.5 -20
t-13.5 -10q-13 0 -16 9t-3 20v12zM820 739q-9 0 -23 -7t-14 -19q5 0 14.5 -1.5t12.5 -9.5q7 2 10.5 9.5t3.5 15.5zM584 -42q0 17 -6 28t-6 25q9 0 18.5 -4.5t15.5 -12.5q-5 -2 -7.5 -8t-4 -12t-3.5 -11t-7 -5zM379 861l-28 -4q1 -2 5 -9t8.5 -14.5t9.5 -13.5t9 -6zM184 349
q0 1 0.5 4t0.5 5q0 9 -4 11.5t-14 2.5q0 4 0.5 6t0.5 4q0 3 -8 8q0 -2 -1 -6.5t-1 -6.5q0 -11 5.5 -18.5t20.5 -9.5zM352 866q0 2 0.5 6t0.5 6q0 12 -8 16.5t-25 4.5zM233 454q-1 6 -4.5 17.5t-13.5 11.5q0 -7 2.5 -18.5t10.5 -11.5q1 0 2.5 0.5t2.5 0.5zM264 66
q8 0 13.5 5.5t5.5 12.5l-15 3zM730 285q2 -6 6.5 -12.5t9.5 -11.5q0 1 0.5 3.5t0.5 4.5q0 6 -2 12t-10 6q-1 -1 -2 -1q-1 -1 -2 -1h-1zM497 558q-10 6 -10 18q14 0 19 -9zM586 241q0 5 -2 9t-5 9q0 3 -5 -8q0 -10 12 -14v4zM741 108q0 11 -11 17l4 -22zM598 -86v16l15 -16
h-15zM586 306q0 1 -1 1q-2 0 -2 1l-13 -14q1 -1 2 -1h2q5 0 8.5 3.5t3.5 9.5zM573 -70v8h9z" />
    <glyph glyph-name="Ograve" unicode="&#xd2;" horiz-adv-x="986" 
d="M600 750q84 0 150 -15.5t111 -50t68.5 -90.5t23.5 -137v-164q0 -81 -23.5 -137t-68.5 -90.5t-111 -50t-150 -15.5h-214q-84 0 -150 15.5t-111 50t-68.5 90.5t-23.5 137v164q0 81 23.5 137t68.5 90.5t111 50t150 15.5h214zM600 218q50 0 78.5 17t28.5 58v164
q0 41 -28.5 58t-78.5 17h-214q-50 0 -78.5 -17t-28.5 -58v-164q0 -41 28.5 -58t78.5 -17h214zM576 796h-165l-52 144h217v-144zM521 890q0 14 -3 28t-19 16q-1 -1 -2 -3q-1 -1 -1 -3v-1q0 -11 7 -28t18 -25v16zM387 692q-9 0 -18 -5.5t-9 -15.5q7 0 11.5 -2t8.5 -4.5t8 -4.5
t11 -2q0 10 -2 18t-6 16h-4zM471 596q18 13 18 35h-5.5t-9 -1t-8 -3.5t-3.5 -6.5q0 -2 3 -12t5 -12zM303 580q1 -2 7 -5t8 -3q8 0 9.5 11t1.5 18q-9 0 -17.5 -5t-8.5 -16zM857 415q0 5 -7 13t-9 13l-11 -37q6 0 16.5 2.5t10.5 8.5zM527 711q-5 0 -10.5 -4t-5.5 -10
q0 -4 6 -15t10 -13v42zM351 554v23q-5 0 -8 -4t-5 -9t-3 -10t-1 -6zM343 -65q-11 0 -16 11q2 4 6.5 7t9.5 3v-21zM561 866q-2 8 -6 14t-13 6q0 -7 3 -13.5t11 -6.5h5zM262 588q-4 10 -18 10q0 -12 10 -18zM804 552q0 -1 2.5 -3t4.5 -2q6 0 6 7l-2.5 5t-2.5 3q-2 0 -5 -4
t-3 -6z" />
    <glyph glyph-name="Oacute" unicode="&#xd3;" horiz-adv-x="986" 
d="M600 750q84 0 150 -15.5t111 -50t68.5 -90.5t23.5 -137v-164q0 -81 -23.5 -137t-68.5 -90.5t-111 -50t-150 -15.5h-214q-84 0 -150 15.5t-111 50t-68.5 90.5t-23.5 137v164q0 81 23.5 137t68.5 90.5t111 50t150 15.5h214zM600 218q50 0 78.5 17t28.5 58v164
q0 41 -28.5 58t-78.5 17h-214q-50 0 -78.5 -17t-28.5 -58v-164q0 -41 28.5 -58t78.5 -17h214zM411 940h217l-52 -144h-165v144zM571 915q0 -4 -3 -6t-7 -4.5t-7.5 -6t-3.5 -9.5q2 2 4.5 5t6.5 3q5 -4 12 -4q14 0 19 16q0 2 1.5 10t2.5 11h-4q-12 0 -21 -9v-6zM387 692
q-9 0 -18 -5.5t-9 -15.5q7 0 11.5 -2t8.5 -4.5t8 -4.5t11 -2q0 10 -2 18t-6 16h-4zM471 596q18 13 18 35h-5.5t-9 -1t-8 -3.5t-3.5 -6.5q0 -2 3 -12t5 -12zM303 580q1 -2 7 -5t8 -3q8 0 9.5 11t1.5 18q-9 0 -17.5 -5t-8.5 -16zM857 415q0 5 -7 13t-9 13l-11 -37
q6 0 16.5 2.5t10.5 8.5zM527 711q-5 0 -10.5 -4t-5.5 -10q0 -4 6 -15t10 -13v42zM351 554v23q-5 0 -8 -4t-5 -9t-3 -10t-1 -6zM343 -65q-11 0 -16 11q2 4 6.5 7t9.5 3v-21zM581 859q13 4 13 12q0 7 -4 9q-7 -2 -8.5 -6t-1.5 -9q0 -1 0.5 -3t0.5 -3zM262 588q-4 10 -18 10
q0 -12 10 -18zM804 552q0 -1 2.5 -3t4.5 -2q6 0 6 7l-2.5 5t-2.5 3q-2 0 -5 -4t-3 -6z" />
    <glyph glyph-name="Ocircumflex" unicode="&#xd4;" horiz-adv-x="986" 
d="M600 750q84 0 150 -15.5t111 -50t68.5 -90.5t23.5 -137v-164q0 -81 -23.5 -137t-68.5 -90.5t-111 -50t-150 -15.5h-214q-84 0 -150 15.5t-111 50t-68.5 90.5t-23.5 137v164q0 81 23.5 137t68.5 90.5t111 50t150 15.5h214zM600 218q50 0 78.5 17t28.5 58v164
q0 41 -28.5 58t-78.5 17h-214q-50 0 -78.5 -17t-28.5 -58v-164q0 -41 28.5 -58t78.5 -17h214zM387 692q-9 0 -18 -5.5t-9 -15.5q7 0 11.5 -2t8.5 -4.5t8 -4.5t11 -2q0 10 -2 18t-6 16h-4zM471 596q18 13 18 35h-5.5t-9 -1t-8 -3.5t-3.5 -6.5q0 -2 3 -12t5 -12zM830 404
q6 0 16.5 2.5t10.5 8.5q0 5 -7 13.5t-9 13.5zM303 580q1 -2 7 -5t8 -3q8 0 9.5 11t1.5 18q-9 0 -17.5 -5t-8.5 -16zM527 711q-5 0 -10.5 -4t-5.5 -10q0 -4 6 -15t10 -13v42zM351 554v23q-5 0 -8 -4t-5 -9t-3 -10t-1 -6zM343 -65q-11 0 -16 11q2 4 6.5 7t9.5 3v-21zM262 588
q-4 10 -18 10q0 -12 10 -18zM804 552q0 -1 2.5 -3t4.5 -2q6 0 6 7l-2.5 5t-2.5 3q-2 0 -5 -4t-3 -6zM404 940h178l52 -144h-282zM562 909q-12 17 -35 17q0 -8 7.5 -16.5t16.5 -8.5q4 0 6.5 1.5t4.5 6.5z" />
    <glyph glyph-name="Otilde" unicode="&#xd5;" horiz-adv-x="986" 
d="M600 750q84 0 150 -15.5t111 -50t68.5 -90.5t23.5 -137v-164q0 -81 -23.5 -137t-68.5 -90.5t-111 -50t-150 -15.5h-214q-84 0 -150 15.5t-111 50t-68.5 90.5t-23.5 137v164q0 81 23.5 137t68.5 90.5t111 50t150 15.5h214zM600 218q50 0 78.5 17t28.5 58v164
q0 41 -28.5 58t-78.5 17h-214q-50 0 -78.5 -17t-28.5 -58v-164q0 -41 28.5 -58t78.5 -17h214zM440 834q-24 0 -24 -31v-7h-165v7q0 84 35.5 118t101.5 34q34 0 57 -8.5t40 -18t31 -18t30 -8.5q24 0 24 31v7h165v-7q0 -84 -35.5 -118t-101.5 -34q-34 0 -57.5 8t-40.5 18
t-31 18.5t-29 8.5zM387 692q-9 0 -18 -5.5t-9 -15.5q7 0 11.5 -2t8.5 -4.5t8 -4.5t11 -2q0 10 -2 18t-6 16h-4zM404 861l-28 -4q1 -2 5 -9t8.5 -14.5t9.5 -13.5t9 -6zM471 596q18 13 18 35h-5.5t-9 -1t-8 -3.5t-3.5 -6.5q0 -2 3 -12t5 -12zM303 580q1 -2 7 -5t8 -3
q8 0 9.5 11t1.5 18q-9 0 -17.5 -5t-8.5 -16zM857 415q0 5 -7 13t-9 13l-11 -37q6 0 16.5 2.5t10.5 8.5zM377 866q0 2 0.5 6t0.5 6q0 12 -8 16.5t-25 4.5zM527 711q-5 0 -10.5 -4t-5.5 -10q0 -4 6 -15t10 -13v42zM351 554v23q-5 0 -8 -4t-5 -9t-3 -10t-1 -6zM343 -65
q-11 0 -16 11q2 4 6.5 7t9.5 3v-21zM262 588q-4 10 -18 10q0 -12 10 -18zM804 552q0 -1 2.5 -3t4.5 -2q6 0 6 7l-2.5 5t-2.5 3q-2 0 -5 -4t-3 -6z" />
    <glyph glyph-name="Odieresis" unicode="&#xd6;" horiz-adv-x="986" 
d="M600 750q84 0 150 -15.5t111 -50t68.5 -90.5t23.5 -137v-164q0 -81 -23.5 -137t-68.5 -90.5t-111 -50t-150 -15.5h-214q-84 0 -150 15.5t-111 50t-68.5 90.5t-23.5 137v164q0 81 23.5 137t68.5 90.5t111 50t150 15.5h214zM600 218q50 0 78.5 17t28.5 58v164
q0 41 -28.5 58t-78.5 17h-214q-50 0 -78.5 -17t-28.5 -58v-164q0 -41 28.5 -58t78.5 -17h214zM387 692q-9 0 -18 -5.5t-9 -15.5q7 0 11.5 -2t8.5 -4.5t8 -4.5t11 -2q0 10 -2 18t-6 16h-4zM471 596q18 13 18 35h-5.5t-9 -1t-8 -3.5t-3.5 -6.5q0 -2 3 -12t5 -12zM830 404
q6 0 16.5 2.5t10.5 8.5q0 5 -7 13.5t-9 13.5zM303 580q1 -2 7 -5t8 -3q8 0 9.5 11t1.5 18q-9 0 -17.5 -5t-8.5 -16zM527 711q-5 0 -10.5 -4t-5.5 -10q0 -4 6 -15t10 -13v42zM351 554v23q-5 0 -8 -4t-5 -9t-3 -10t-1 -6zM343 -65q-11 0 -16 11q2 4 6.5 7t9.5 3v-21zM262 588
q-4 10 -18 10q0 -12 10 -18zM804 552q0 -1 2.5 -3t4.5 -2q6 0 6 7l-2.5 5t-2.5 3q-2 0 -5 -4t-3 -6zM384 955q36 0 61.5 -25.5t25.5 -61.5t-25.5 -61.5t-61.5 -25.5t-61.5 25.5t-25.5 61.5t25.5 61.5t61.5 25.5zM602 955q36 0 61.5 -25.5t25.5 -61.5t-25.5 -61.5
t-61.5 -25.5t-61.5 25.5t-25.5 61.5t25.5 61.5t61.5 25.5zM571 832q10 0 13.5 -8t10.5 -8q18 0 18 17q-12 0 -20.5 4t-19.5 4zM417 938q-11 -8 -17 -14.5t-6 -18.5q16 0 19.5 8t3.5 21v4zM585 808q-5 0 -8 -3.5t-3 -7.5q0 -1 1 -2l2 -2q2 1 5.5 4.5t3.5 7.5q0 2 -1 3z" />
    <glyph glyph-name="Oslash" unicode="&#xd8;" horiz-adv-x="986" 
d="M953 293q0 -81 -23.5 -137t-68.5 -90.5t-111 -50t-150 -15.5h-214q-84 0 -150 15.5t-111 50t-68.5 90.5t-23.5 137v164q0 81 23.5 137t68.5 90.5t111 50t150 15.5h214q84 0 150 -15.5t111 -50t68.5 -90.5t23.5 -137v-164zM387 692q-9 0 -18 -5.5t-9 -15.5q7 0 11.5 -2
t8.5 -4.5t8 -4.5t11 -2q0 10 -2 18t-6 16h-4zM647 498q18 13 18 35h-5.5t-9 -1t-8 -3.5t-3.5 -6.5q0 -2 3 -12t5 -12zM830 404q6 0 16.5 2.5t10.5 8.5q0 5 -7 13.5t-9 13.5zM303 580q1 -2 7 -5t8 -3q8 0 9.5 11t1.5 18q-9 0 -17.5 -5t-8.5 -16zM712 612q-5 0 -15 -3.5
t-10 -9.5q0 -4 10 -12t35 -8zM351 554v23q-5 0 -8 -4t-5 -9t-3 -10t-1 -6zM343 -65q-11 0 -16 11q2 4 6.5 7t9.5 3v-21zM262 588q-4 10 -18 10q0 -12 10 -18zM732 602q0 -1 2.5 -3t4.5 -2q6 0 6 7l-2.5 5t-2.5 3q-2 0 -5 -4t-3 -6zM279 293q0 -10 1 -15l214 254h-108
q-50 0 -78.5 -17t-28.5 -58v-164zM707 457q0 9 -1 14l-215 -253h109q50 0 78.5 17t28.5 58v164z" />
    <glyph glyph-name="Ugrave" unicode="&#xd9;" horiz-adv-x="960" 
d="M914 293q0 -81 -23.5 -137t-68.5 -90.5t-111 -50t-150 -15.5h-162q-84 0 -150 15.5t-111 50t-68.5 90.5t-23.5 137v457h246v-457q0 -41 28.5 -58t78.5 -17h162q50 0 78.5 17t28.5 58v457h246v-457zM684 195q0 -7 -1.5 -17t-1.5 -21q0 -1 3.5 -4.5l4.5 -4.5
q4 -6 4.5 -14.5t0.5 -17.5t2 -16t8 -8q7 16 8 27t1 26q0 14 -4.5 22.5t-4.5 21.5q0 16 7.5 30t17.5 26q-5 -4 -10.5 -5t-10 -2.5t-7.5 -5t-4 -11.5q-8 6 -16.5 8t-17.5 2v-5.5t1 -4.5q2 -2 10.5 -8t9.5 -8v-10zM640 553q-5 0 -10.5 -4t-5.5 -10q0 -14 11 -29.5t22 -23.5
q-2 0 -8.5 -0.5t-8.5 -0.5q-18 0 -25 12.5t-7 29.5q0 14 8 24.5t24 10.5v-9zM600 28q0 3 -1 9.5t-2 14.5t-2 14.5t-2 9.5q-1 2 -4 5t-5 3q-11 -5 -14 -20t-3 -24q0 -8 10.5 -10t22.5 -2zM169 -22q0 9 6 12.5t14 5t16 2t13 4.5v-7q0 -13 -7.5 -16t-21.5 -3zM633 341
q0 2 -3.5 5t-5.5 3t-8 -3.5t-7 -4.5q-1 0 -4 -0.5t-5 -0.5l17 24l32 -6zM425 44q-3 8 -12 9.5t-14 1.5q0 -6 3 -13t11 -7q7 0 12 9zM670 79q0 -10 5.5 -15.5t13.5 -11.5v2q0 1 0.5 1t0.5 1q0 8 -5 15.5t-15 7.5zM192 270q5 2 10.5 4.5t5.5 6.5q0 8 -9 13zM553 12q3 1 3 8
q0 2 -1.5 6t-3.5 5q-3 0 -3.5 -3.5t-0.5 -6.5t2 -6t4 -3zM721 486v10q-10 0 -17 -10h17zM624 372q-11 0 -15 9h15v-9zM563 796h-165l-52 144h217v-144zM508 890q0 14 -3 28t-19 16q-1 -1 -2 -3q-1 -1 -1 -3v-1q0 -11 7 -28t18 -25v16zM548 866q-2 8 -6 14t-13 6
q0 -7 3 -13.5t11 -6.5h5z" />
    <glyph glyph-name="Uacute" unicode="&#xda;" horiz-adv-x="960" 
d="M914 293q0 -81 -23.5 -137t-68.5 -90.5t-111 -50t-150 -15.5h-162q-84 0 -150 15.5t-111 50t-68.5 90.5t-23.5 137v457h246v-457q0 -41 28.5 -58t78.5 -17h162q50 0 78.5 17t28.5 58v457h246v-457zM684 195q0 -7 -1.5 -17t-1.5 -21q0 -1 3.5 -4.5l4.5 -4.5
q4 -6 4.5 -14.5t0.5 -17.5t2 -16t8 -8q7 16 8 27t1 26q0 14 -4.5 22.5t-4.5 21.5q0 16 7.5 30t17.5 26q-5 -4 -10.5 -5t-10 -2.5t-7.5 -5t-4 -11.5q-8 6 -16.5 8t-17.5 2v-5.5t1 -4.5q2 -2 10.5 -8t9.5 -8v-10zM640 553q-5 0 -10.5 -4t-5.5 -10q0 -14 11 -29.5t22 -23.5
q-2 0 -8.5 -0.5t-8.5 -0.5q-18 0 -25 12.5t-7 29.5q0 14 8 24.5t24 10.5v-9zM600 28q0 3 -1 9.5t-2 14.5t-2 14.5t-2 9.5q-1 2 -4 5t-5 3q-11 -5 -14 -20t-3 -24q0 -8 10.5 -10t22.5 -2zM169 -22q0 9 6 12.5t14 5t16 2t13 4.5v-7q0 -13 -7.5 -16t-21.5 -3zM633 341
q0 2 -3.5 5t-5.5 3t-8 -3.5t-7 -4.5q-1 0 -4 -0.5t-5 -0.5l17 24l32 -6zM425 44q-3 8 -12 9.5t-14 1.5q0 -6 3 -13t11 -7q7 0 12 9zM670 79q0 -10 5.5 -15.5t13.5 -11.5v2q0 1 0.5 1t0.5 1q0 8 -5 15.5t-15 7.5zM192 270q5 2 10.5 4.5t5.5 6.5q0 8 -9 13zM553 12q3 1 3 8
q0 2 -1.5 6t-3.5 5q-3 0 -3.5 -3.5t-0.5 -6.5t2 -6t4 -3zM721 486v10q-10 0 -17 -10h17zM624 372q-11 0 -15 9h15v-9zM398 940h217l-52 -144h-165v144zM558 915q0 -4 -3 -6t-7 -4.5t-7.5 -6t-3.5 -9.5q2 2 4.5 5t6.5 3q5 -4 12 -4q14 0 19 16q0 2 1.5 10t2.5 11h-4
q-12 0 -21 -9v-6zM568 859q13 4 13 12q0 7 -4 9q-7 -2 -8.5 -6t-1.5 -9q0 -1 0.5 -3t0.5 -3z" />
    <glyph glyph-name="Ucircumflex" unicode="&#xdb;" horiz-adv-x="960" 
d="M914 293q0 -81 -23.5 -137t-68.5 -90.5t-111 -50t-150 -15.5h-162q-84 0 -150 15.5t-111 50t-68.5 90.5t-23.5 137v457h246v-457q0 -41 28.5 -58t78.5 -17h162q50 0 78.5 17t28.5 58v457h246v-457zM684 195q0 -7 -1.5 -17t-1.5 -21q0 -1 3.5 -4.5l4.5 -4.5
q4 -6 4.5 -14.5t0.5 -17.5t2 -16t8 -8q7 16 8 27t1 26q0 14 -4.5 22.5t-4.5 21.5q0 16 7.5 30t17.5 26q-5 -4 -10.5 -5t-10 -2.5t-7.5 -5t-4 -11.5q-8 6 -16.5 8t-17.5 2v-5.5t1 -4.5q2 -2 10.5 -8t9.5 -8v-10zM640 553q-5 0 -10.5 -4t-5.5 -10q0 -14 11 -29.5t22 -23.5
q-2 0 -8.5 -0.5t-8.5 -0.5q-18 0 -25 12.5t-7 29.5q0 14 8 24.5t24 10.5v-9zM600 28q0 3 -1 9.5t-2 14.5t-2 14.5t-2 9.5q-1 2 -4 5t-5 3q-11 -5 -14 -20t-3 -24q0 -8 10.5 -10t22.5 -2zM169 -22q0 9 6 12.5t14 5t16 2t13 4.5v-7q0 -13 -7.5 -16t-21.5 -3zM633 341
q0 2 -3.5 5t-5.5 3t-8 -3.5t-7 -4.5q-1 0 -4 -0.5t-5 -0.5l17 24l32 -6zM425 44q-3 8 -12 9.5t-14 1.5q0 -6 3 -13t11 -7q7 0 12 9zM670 79q0 -10 5.5 -15.5t13.5 -11.5v2q0 1 0.5 1t0.5 1q0 8 -5 15.5t-15 7.5zM192 270q5 2 10.5 4.5t5.5 6.5q0 8 -9 13zM553 12q3 1 3 8
q0 2 -1.5 6t-3.5 5q-3 0 -3.5 -3.5t-0.5 -6.5t2 -6t4 -3zM721 486v10q-10 0 -17 -10h17zM624 372q-11 0 -15 9h15v-9zM391 940h178l52 -144h-282zM549 909q-12 17 -35 17q0 -8 7.5 -16.5t16.5 -8.5q4 0 6.5 1.5t4.5 6.5z" />
    <glyph glyph-name="Udieresis" unicode="&#xdc;" horiz-adv-x="960" 
d="M914 293q0 -81 -23.5 -137t-68.5 -90.5t-111 -50t-150 -15.5h-162q-84 0 -150 15.5t-111 50t-68.5 90.5t-23.5 137v457h246v-457q0 -41 28.5 -58t78.5 -17h162q50 0 78.5 17t28.5 58v457h246v-457zM684 195q0 -7 -1.5 -17t-1.5 -21q0 -1 3.5 -4.5l4.5 -4.5
q4 -6 4.5 -14.5t0.5 -17.5t2 -16t8 -8q7 16 8 27t1 26q0 14 -4.5 22.5t-4.5 21.5q0 16 7.5 30t17.5 26q-5 -4 -10.5 -5t-10 -2.5t-7.5 -5t-4 -11.5q-8 6 -16.5 8t-17.5 2v-5.5t1 -4.5q2 -2 10.5 -8t9.5 -8v-10zM640 553q-5 0 -10.5 -4t-5.5 -10q0 -14 11 -29.5t22 -23.5
q-2 0 -8.5 -0.5t-8.5 -0.5q-18 0 -25 12.5t-7 29.5q0 14 8 24.5t24 10.5v-9zM600 28q0 3 -1 9.5t-2 14.5t-2 14.5t-2 9.5q-1 2 -4 5t-5 3q-11 -5 -14 -20t-3 -24q0 -8 10.5 -10t22.5 -2zM169 -22q0 9 6 12.5t14 5t16 2t13 4.5v-7q0 -13 -7.5 -16t-21.5 -3zM633 341
q0 2 -3.5 5t-5.5 3t-8 -3.5t-7 -4.5q-1 0 -4 -0.5t-5 -0.5l17 24l32 -6zM425 44q-3 8 -12 9.5t-14 1.5q0 -6 3 -13t11 -7q7 0 12 9zM670 79q0 -10 5.5 -15.5t13.5 -11.5v2q0 1 0.5 1t0.5 1q0 8 -5 15.5t-15 7.5zM192 270q5 2 10.5 4.5t5.5 6.5q0 8 -9 13zM553 12q3 1 3 8
q0 2 -1.5 6t-3.5 5q-3 0 -3.5 -3.5t-0.5 -6.5t2 -6t4 -3zM721 486v10q-10 0 -17 -10h17zM624 372q-11 0 -15 9h15v-9zM371 955q36 0 61.5 -25.5t25.5 -61.5t-25.5 -61.5t-61.5 -25.5t-61.5 25.5t-25.5 61.5t25.5 61.5t61.5 25.5zM589 955q36 0 61.5 -25.5t25.5 -61.5
t-25.5 -61.5t-61.5 -25.5t-61.5 25.5t-25.5 61.5t25.5 61.5t61.5 25.5zM558 832q10 0 13.5 -8t10.5 -8q18 0 18 17q-12 0 -20.5 4t-19.5 4zM404 938q-11 -8 -17 -14.5t-6 -18.5q16 0 19.5 8t3.5 21v4zM572 808q-5 0 -8 -3.5t-3 -7.5q0 -1 1 -2l2 -2q2 1 5.5 4.5t3.5 7.5
q0 2 -1 3z" />
    <glyph glyph-name="Yacute" unicode="&#xdd;" horiz-adv-x="886" 
d="M566 332v-332h-246v332l-355 418h293l185 -218l185 218h293zM373 644q-2 10 -4.5 15.5t-5.5 10t-5 10t-2 15.5q0 4 0.5 12t3 15t6.5 12.5t11 5.5q8 0 12 -5t8 -11l-8 -8l-5 -67zM467 286q0 -7 3 -13.5t6 -11.5q11 8 14 18.5t3 21.5q0 23 -9.5 33t-32.5 10q0 -17 5 -22.5
t10.5 -8t10.5 -6t5 -14.5zM516 358q2 3 8.5 7.5t14 8.5t15 7t13.5 3q0 11 -10 13t-18 2q-2 0 -4.5 -0.5t-4.5 -0.5h-5q-5 -2 -10.5 -13.5t-5.5 -18.5zM252 6q6 0 11 3t10 7t10 7t12 3q0 -14 -14.5 -26t-28.5 -16v22zM500 456q0 -5 1.5 -11t7.5 -7q5 1 6.5 5.5t1.5 9.5
q0 19 -1.5 25.5t-6.5 7.5q-6 -1 -7.5 -6.5t-1.5 -10.5l-7 -6zM714 623q0 11 -4.5 23t-16.5 17l-8 -7l17 -33h12zM455 435l-27 19q0 -4 0.5 -10t2.5 -12t5 -10t9 -4zM310 402q11 0 15.5 12.5t4.5 20.5q-11 0 -18 -10.5t-7 -18.5zM436 173q4 5 6.5 10t2.5 10q0 8 -9 12
q-8 -4 -8 -12q0 -9 8 -20zM428 486q4 7 6.5 13t2.5 14q-5 0 -11.5 -4t-6.5 -11q0 -5 2 -7t7 -5zM653 583q2 2 5 8t3 8t-3 5t-5 3q-8 -5 -8 -12q0 -8 8 -12zM685 591q2 -8 6 -13.5t13 -5.5q0 6 -3 12.5t-11 6.5h-5zM337 -44l11 19q5 -2 7.5 -6t2.5 -9zM372 423q-5 8 -12 8
q-1 0 -1.5 -1t-2.5 -2q-2 -2 -4 -3l4 -11zM283 438q8 2 9 6.5t1 9.5q0 1 -0.5 4t-0.5 5q-9 -3 -9 -17v-8zM492 414q2 -8 17 -8h7q-11 8 -19 8h-5zM361 940h217l-52 -144h-165v144zM521 915q0 -4 -3 -6t-7 -4.5t-7.5 -6t-3.5 -9.5q2 2 4.5 5t6.5 3q5 -4 12 -4q14 0 19 16
q0 2 1.5 10t2.5 11h-4q-12 0 -21 -9v-6zM531 859q13 4 13 12q0 7 -4 9q-7 -2 -8.5 -6t-1.5 -9q0 -1 0.5 -3t0.5 -3z" />
    <glyph glyph-name="Thorn" unicode="&#xde;" horiz-adv-x="927" 
d="M296 61v-61h-246v750h246v-58h256q84 0 150 -15.5t111 -50t68.5 -90.5t23.5 -137v-45q0 -81 -23.5 -137t-68.5 -90.5t-111 -50t-150 -15.5h-256zM296 474v-195h256q50 0 78.5 17t28.5 58v45q0 41 -28.5 58t-78.5 17h-256zM662 309q1 4 7 9.5t8 6.5q1 0 10.5 -3.5
t14.5 -5.5q2 -1 8.5 -4t7.5 -3q7 0 8 7.5t1 12.5q0 14 -9 17t-21 3q-14 0 -24.5 -8.5t-10.5 -24.5v-7zM816 710v4q0 7 8 12q5 -4 11 -12t6 -13t-6 -13t-11 -11zM618 379q2 2 11 8l12 8q3 -2 5.5 -7t2.5 -8t-5.5 -9.5t-9.5 -8.5q-8 1 -10.5 5t-5.5 12zM263 633q11 7 18.5 14
t7.5 19q0 1 -0.5 3.5t-0.5 3.5l-32 -23zM304 231q-7 5 -10 15.5t-10 10.5q-6 0 -9 -6t-3 -11q0 -7 7 -8t12 -1h13zM148 732q0 -11 9.5 -17t17.5 -9q0 1 0.5 3.5t0.5 3.5q0 13 -8.5 16t-19.5 3zM801 517q9 -5 9 -16q0 -2 -1 -5t0 -2q6 4 11 8t5 10q0 4 -2 8t-7 4
q-2 0 -8 -2.5t-7 -4.5zM670 356q8 2 15.5 9t7.5 16q0 2 -2.5 5t-4.5 3zM244 -65q-2 0 -9 2t-7 7q0 3 3 9t5 8q8 -12 8 -26zM804 540q13 0 18 9q-2 0 -4.5 2.5t-3.5 2.5q-10 0 -10 -14zM175 120q10 3 10 15h-10v-15zM256 247l-17 17v-5q0 -5 3.5 -8.5t8.5 -3.5h5z" />
    <glyph glyph-name="germandbls" unicode="&#xdf;" horiz-adv-x="827" 
d="M450 750q73 0 130.5 -11t96.5 -35t59.5 -63t20.5 -96t-20.5 -95.5t-58.5 -62.5q63 -22 96 -66t33 -116q0 -57 -20.5 -96t-59.5 -63t-96.5 -35t-130.5 -11h-190v203h190q29 0 47 10t18 33q0 21 -15.5 31t-41.5 12h-198v172h140q29 0 47 10t18 33t-18 33t-47 10h-100
q-35 0 -56 -11.5t-21 -39.5v-496h-229v496q0 70 20.5 118.5t59.5 78.5t96 43.5t130 13.5h100zM788 212q8 2 8 16q0 20 -11 36.5t-32 16.5q0 -7 4 -11.5t9.5 -8.5t9.5 -8.5t4 -11.5q0 -3 -0.5 -6.5t-0.5 -7.5q0 -12 9 -15zM186 58q0 12 -3.5 27.5t-5.5 22.5q-2 1 -4 1.5
t-10 0.5q-5 0 -10.5 -1.5t-7.5 -7.5q3 -9 10 -9q4 0 8.5 1.5t8.5 1.5q0 -5 -1 -11.5t-1 -11.5q0 -6 3 -10t13 -4zM378 36q-2 2 -5 8t-3 8t3 8t5 8q-11 -2 -25 -10t-14 -22h39zM410 76q-7 -1 -12 -3t-5 -9q0 -6 5.5 -10t11.5 -4v26zM756 165q4 6 4 23q0 8 -1 15t-3 9
q-3 0 -4 -5t-1 -12q0 -11 1.5 -20.5t3.5 -9.5zM579 631q-2 7 -6 13t-12 6q0 -7 3 -13.5t11 -6.5h2q1 0 1 0.5t1 0.5z" />
    <glyph glyph-name="agrave" unicode="&#xe0;" 
d="M336 0q-73 0 -130 13.5t-96 43.5t-59.5 78.5t-20.5 118.5v142q0 70 20.5 118.5t59.5 78.5t96 43.5t130 13.5h64q66 0 115.5 -15t82.5 -49v64h229v-650h-229v64q-33 -34 -82.5 -49t-115.5 -15h-64zM535 203q30 0 46.5 12.5t16.5 38.5v142q0 26 -17 38.5t-46 12.5h-199
q-35 0 -56 -11.5t-21 -39.5v-142q0 -28 21 -39.5t56 -11.5h199zM539 696h-165l-52 144h217v-144zM337 84q1 0 4 1q2 0 4 0.5t4 0.5q11 0 16 -9t5 -20q0 -6 -2 -14q12 0 14.5 4.5t2.5 11.5q0 10 -4 18.5t-4 18.5q0 9 3.5 16t8 14t8.5 14t4 16q0 7 -1.5 12t-6.5 12q0 -2 -1 -9
t-3 -14t-6 -12.5t-11 -5.5t-9 4.5t-2 10.5q0 4 0.5 8t0.5 9q0 7 -2.5 12t-10.5 5q-3 0 -9 -6t-12 -13.5t-11 -14t-5 -7.5t2.5 -4t5.5 -7t5.5 -7.5t2.5 -4.5q2 -6 2 -19q0 -12 -1 -23.5t-1 -16.5q1 5 3.5 11t5.5 8zM717 291q-15 2 -26 10.5t-24 8.5q0 -5 0.5 -12.5t2 -14
t5 -11.5t9.5 -5q3 0 8.5 2.5t11 5.5t9.5 6.5t4 5.5v4zM552 378q-1 10 -4 17.5t-6.5 13.5t-6 12.5t-2.5 15.5q20 0 25 -9t5 -26l-3 -28zM484 790q0 14 -3 28t-19 16q-1 -1 -2 -3q-1 -1 -1 -3v-1q0 -11 7 -28t18 -25v16zM286 152v33q-6 0 -14 -8t-9 -19zM546 527
q-11 0 -14.5 -10t-4.5 -18q1 -1 2 -1h2q11 0 13 11t2 18zM699 503l-3 10q-2 0 -6.5 -0.5t-9.5 -2.5t-9 -5t-4 -7zM524 766q-2 8 -6 14t-13 6q0 -7 3 -13.5t11 -6.5h5zM298 143q-6 -3 -7.5 -8t-1.5 -10q13 0 17 9zM527 459v16l-8 -16h8z" />
    <glyph glyph-name="aacute" unicode="&#xe1;" 
d="M336 0q-73 0 -130 13.5t-96 43.5t-59.5 78.5t-20.5 118.5v142q0 70 20.5 118.5t59.5 78.5t96 43.5t130 13.5h64q66 0 115.5 -15t82.5 -49v64h229v-650h-229v64q-33 -34 -82.5 -49t-115.5 -15h-64zM535 203q30 0 46.5 12.5t16.5 38.5v142q0 26 -17 38.5t-46 12.5h-199
q-35 0 -56 -11.5t-21 -39.5v-142q0 -28 21 -39.5t56 -11.5h199zM374 840h217l-52 -144h-165v144zM337 84q1 0 4 1q2 0 4 0.5t4 0.5q11 0 16 -9t5 -20q0 -6 -2 -14q12 0 14.5 4.5t2.5 11.5q0 10 -4 18.5t-4 18.5q0 9 3.5 16t8 14t8.5 14t4 16q0 7 -1.5 12t-6.5 12q0 -2 -1 -9
t-3 -14t-6 -12.5t-11 -5.5t-9 4.5t-2 10.5q0 4 0.5 8t0.5 9q0 7 -2.5 12t-10.5 5q-3 0 -9 -6t-12 -13.5t-11 -14t-5 -7.5t2.5 -4t5.5 -7t5.5 -7.5t2.5 -4.5q2 -6 2 -19q0 -12 -1 -23.5t-1 -16.5q1 5 3.5 11t5.5 8zM717 291q-15 2 -26 10.5t-24 8.5q0 -5 0.5 -12.5t2 -14
t5 -11.5t9.5 -5q3 0 8.5 2.5t11 5.5t9.5 6.5t4 5.5v4zM552 378q-1 10 -4 17.5t-6.5 13.5t-6 12.5t-2.5 15.5q20 0 25 -9t5 -26l-3 -28zM534 815q0 -4 -3 -6t-7 -4.5t-7.5 -6t-3.5 -9.5q2 2 4.5 5t6.5 3q5 -4 12 -4q14 0 19 16q0 2 1.5 10t2.5 11h-4q-12 0 -21 -9v-6z
M286 152v33q-6 0 -14 -8t-9 -19zM546 527q-11 0 -14.5 -10t-4.5 -18q1 -1 2 -1h2q11 0 13 11t2 18zM699 503l-3 10q-2 0 -6.5 -0.5t-9.5 -2.5t-9 -5t-4 -7zM544 759q13 4 13 12q0 7 -4 9q-7 -2 -8.5 -6t-1.5 -9q0 -1 0.5 -3t0.5 -3zM298 143q-6 -3 -7.5 -8t-1.5 -10
q13 0 17 9zM527 459v16l-8 -16h8z" />
    <glyph glyph-name="acircumflex" unicode="&#xe2;" 
d="M336 0q-73 0 -130 13.5t-96 43.5t-59.5 78.5t-20.5 118.5v142q0 70 20.5 118.5t59.5 78.5t96 43.5t130 13.5h64q66 0 115.5 -15t82.5 -49v64h229v-650h-229v64q-33 -34 -82.5 -49t-115.5 -15h-64zM535 203q30 0 46.5 12.5t16.5 38.5v142q0 26 -17 38.5t-46 12.5h-199
q-35 0 -56 -11.5t-21 -39.5v-142q0 -28 21 -39.5t56 -11.5h199zM368 840h178l52 -144h-282zM337 84q1 0 4 1q2 0 4 0.5t4 0.5q11 0 16 -9t5 -20q0 -6 -2 -14q12 0 14.5 4.5t2.5 11.5q0 10 -4 18.5t-4 18.5q0 9 3.5 16t8 14t8.5 14t4 16q0 7 -1.5 12t-6.5 12q0 -2 -1 -9
t-3 -14t-6 -12.5t-11 -5.5t-9 4.5t-2 10.5q0 4 0.5 8t0.5 9q0 7 -2.5 12t-10.5 5q-3 0 -9 -6t-12 -13.5t-11 -14t-5 -7.5t2.5 -4t5.5 -7t5.5 -7.5t2.5 -4.5q2 -6 2 -19q0 -12 -1 -23.5t-1 -16.5q1 5 3.5 11t5.5 8zM717 291q-15 2 -26 10.5t-24 8.5q0 -5 0.5 -12.5t2 -14
t5 -11.5t9.5 -5q3 0 8.5 2.5t11 5.5t9.5 6.5t4 5.5v4zM552 378q-1 10 -4 17.5t-6.5 13.5t-6 12.5t-2.5 15.5q20 0 25 -9t5 -26l-3 -28zM526 809q-12 17 -35 17q0 -8 7.5 -16.5t16.5 -8.5q4 0 6.5 1.5t4.5 6.5zM286 152v33q-6 0 -14 -8t-9 -19zM546 527q-11 0 -14.5 -10
t-4.5 -18q1 -1 2 -1h2q11 0 13 11t2 18zM699 503l-3 10q-2 0 -6.5 -0.5t-9.5 -2.5t-9 -5t-4 -7zM298 143q-6 -3 -7.5 -8t-1.5 -10q13 0 17 9zM527 459v16l-8 -16h8z" />
    <glyph glyph-name="atilde" unicode="&#xe3;" 
d="M336 0q-73 0 -130 13.5t-96 43.5t-59.5 78.5t-20.5 118.5v142q0 70 20.5 118.5t59.5 78.5t96 43.5t130 13.5h64q66 0 115.5 -15t82.5 -49v64h229v-650h-229v64q-33 -34 -82.5 -49t-115.5 -15h-64zM535 203q30 0 46.5 12.5t16.5 38.5v142q0 26 -17 38.5t-46 12.5h-199
q-35 0 -56 -11.5t-21 -39.5v-142q0 -28 21 -39.5t56 -11.5h199zM404 734q-24 0 -24 -31v-7h-165v7q0 84 35.5 118t101.5 34q34 0 57 -8.5t40 -18t31 -18t30 -8.5q24 0 24 31v7h165v-7q0 -84 -35.5 -118t-101.5 -34q-34 0 -57.5 8t-40.5 18t-31 18.5t-29 8.5zM337 84q1 0 4 1
q2 0 4 0.5t4 0.5q11 0 16 -9t5 -20q0 -6 -2 -14q12 0 14.5 4.5t2.5 11.5q0 10 -4 18.5t-4 18.5q0 9 3.5 16t8 14t8.5 14t4 16q0 7 -1.5 12t-6.5 12q0 -2 -1 -9t-3 -14t-6 -12.5t-11 -5.5t-9 4.5t-2 10.5q0 4 0.5 8t0.5 9q0 7 -2.5 12t-10.5 5q-3 0 -9 -6t-12 -13.5t-11 -14
t-5 -7.5t2.5 -4t5.5 -7t5.5 -7.5t2.5 -4.5q2 -6 2 -19q0 -12 -1 -23.5t-1 -16.5q1 5 3.5 11t5.5 8zM717 291q-15 2 -26 10.5t-24 8.5q0 -5 0.5 -12.5t2 -14t5 -11.5t9.5 -5q3 0 8.5 2.5t11 5.5t9.5 6.5t4 5.5v4zM552 378q-1 10 -4 17.5t-6.5 13.5t-6 12.5t-2.5 15.5
q20 0 25 -9t5 -26l-3 -28zM368 761l-28 -4q1 -2 5 -9t8.5 -14.5t9.5 -13.5t9 -6zM286 152v33q-6 0 -14 -8t-9 -19zM341 766q0 2 0.5 6t0.5 6q0 12 -8 16.5t-25 4.5zM546 527q-11 0 -14.5 -10t-4.5 -18q1 -1 2 -1h2q11 0 13 11t2 18zM699 503l-3 10q-2 0 -6.5 -0.5t-9.5 -2.5
t-9 -5t-4 -7zM298 143q-6 -3 -7.5 -8t-1.5 -10q13 0 17 9zM527 459v16l-8 -16h8z" />
    <glyph glyph-name="adieresis" unicode="&#xe4;" 
d="M336 0q-73 0 -130 13.5t-96 43.5t-59.5 78.5t-20.5 118.5v142q0 70 20.5 118.5t59.5 78.5t96 43.5t130 13.5h64q66 0 115.5 -15t82.5 -49v64h229v-650h-229v64q-33 -34 -82.5 -49t-115.5 -15h-64zM535 203q30 0 46.5 12.5t16.5 38.5v142q0 26 -17 38.5t-46 12.5h-199
q-35 0 -56 -11.5t-21 -39.5v-142q0 -28 21 -39.5t56 -11.5h199zM348 855q36 0 61.5 -25.5t25.5 -61.5t-25.5 -61.5t-61.5 -25.5t-61.5 25.5t-25.5 61.5t25.5 61.5t61.5 25.5zM566 855q36 0 61.5 -25.5t25.5 -61.5t-25.5 -61.5t-61.5 -25.5t-61.5 25.5t-25.5 61.5t25.5 61.5
t61.5 25.5zM337 84q1 0 4 1q2 0 4 0.5t4 0.5q11 0 16 -9t5 -20q0 -6 -2 -14q12 0 14.5 4.5t2.5 11.5q0 10 -4 18.5t-4 18.5q0 9 3.5 16t8 14t8.5 14t4 16q0 7 -1.5 12t-6.5 12q0 -2 -1 -9t-3 -14t-6 -12.5t-11 -5.5t-9 4.5t-2 10.5q0 4 0.5 8t0.5 9q0 7 -2.5 12t-10.5 5
q-3 0 -9 -6t-12 -13.5t-11 -14t-5 -7.5t2.5 -4t5.5 -7t5.5 -7.5t2.5 -4.5q2 -6 2 -19q0 -12 -1 -23.5t-1 -16.5q1 5 3.5 11t5.5 8zM717 291q-15 2 -26 10.5t-24 8.5q0 -5 0.5 -12.5t2 -14t5 -11.5t9.5 -5q3 0 8.5 2.5t11 5.5t9.5 6.5t4 5.5v4zM552 378q-1 10 -4 17.5
t-6.5 13.5t-6 12.5t-2.5 15.5q20 0 25 -9t5 -26l-3 -28zM535 732q10 0 13.5 -8t10.5 -8q18 0 18 17q-12 0 -20.5 4t-19.5 4zM286 152v33q-6 0 -14 -8t-9 -19zM381 838q-11 -8 -17 -14.5t-6 -18.5q16 0 19.5 8t3.5 21v4zM546 527q-11 0 -14.5 -10t-4.5 -18q1 -1 2 -1h2
q11 0 13 11t2 18zM699 503l-3 10q-2 0 -6.5 -0.5t-9.5 -2.5t-9 -5t-4 -7zM298 143q-6 -3 -7.5 -8t-1.5 -10q13 0 17 9zM549 708q-5 0 -8 -3.5t-3 -7.5q0 -1 1 -2l2 -2q2 1 5.5 4.5t3.5 7.5q0 2 -1 3zM527 459v16l-8 -16h8z" />
    <glyph glyph-name="aring" unicode="&#xe5;" 
d="M336 0q-73 0 -130 13.5t-96 43.5t-59.5 78.5t-20.5 118.5v142q0 70 20.5 118.5t59.5 78.5t96 43.5t130 13.5h64q66 0 115.5 -15t82.5 -49v64h229v-650h-229v64q-33 -34 -82.5 -49t-115.5 -15h-64zM535 203q30 0 46.5 12.5t16.5 38.5v142q0 26 -17 38.5t-46 12.5h-199
q-35 0 -56 -11.5t-21 -39.5v-142q0 -28 21 -39.5t56 -11.5h199zM511 840q35 0 54.5 -13.5t19.5 -48.5v-20q0 -35 -19.5 -48.5t-54.5 -13.5h-107q-35 0 -54.5 13.5t-19.5 48.5v20q0 35 19.5 48.5t54.5 13.5h107zM337 84q1 0 4 1q2 0 4 0.5t4 0.5q11 0 16 -9t5 -20
q0 -6 -2 -14q12 0 14.5 4.5t2.5 11.5q0 10 -4 18.5t-4 18.5q0 9 3.5 16t8 14t8.5 14t4 16q0 7 -1.5 12t-6.5 12q0 -2 -1 -9t-3 -14t-6 -12.5t-11 -5.5t-9 4.5t-2 10.5q0 4 0.5 8t0.5 9q0 7 -2.5 12t-10.5 5q-3 0 -9 -6t-12 -13.5t-11 -14t-5 -7.5t2.5 -4t5.5 -7t5.5 -7.5
t2.5 -4.5q2 -6 2 -19q0 -12 -1 -23.5t-1 -16.5q1 5 3.5 11t5.5 8zM498 757q13 0 13 10q0 11 -13 11h-82q-12 0 -12 -11q0 -10 12 -10h82zM717 291q-15 2 -26 10.5t-24 8.5q0 -5 0.5 -12.5t2 -14t5 -11.5t9.5 -5q3 0 8.5 2.5t11 5.5t9.5 6.5t4 5.5v4zM552 378q-1 10 -4 17.5
t-6.5 13.5t-6 12.5t-2.5 15.5q20 0 25 -9t5 -26l-3 -28zM286 152v33q-6 0 -14 -8t-9 -19zM546 527q-11 0 -14.5 -10t-4.5 -18q1 -1 2 -1h2q11 0 13 11t2 18zM699 503l-3 10q-2 0 -6.5 -0.5t-9.5 -2.5t-9 -5t-4 -7zM564 757q0 -2 3.5 -8.5t5.5 -8.5q1 2 3 8t2 8q0 1 1 2
q2 2 2 4t-3.5 4.5t-4.5 4.5q-4 -2 -4.5 -4t-0.5 -4zM427 816l5 15q-1 -2 -4.5 -4t-5.5 -2q-1 0 -2 3q-1 1 -2 3q-6 0 -7.5 -2t-3.5 -9zM298 143q-6 -3 -7.5 -8t-1.5 -10q13 0 17 9zM527 459v16l-8 -16h8z" />
    <glyph glyph-name="ae" unicode="&#xe6;" horiz-adv-x="1404" 
d="M598 396q0 26 -16.5 38.5t-46.5 12.5h-199q-35 0 -56 -11.5t-21 -39.5v-142q0 -28 21 -39.5t56 -11.5h199q29 0 45 11.5t18 34.5v147zM336 0q-73 0 -130 13.5t-96 43.5t-59.5 78.5t-20.5 118.5v142q0 70 20.5 118.5t59.5 78.5t96 43.5t130 13.5h64q66 0 115.5 -15
t82.5 -49v64h229v-53q39 28 94 40.5t127 12.5h82q60 0 106 -11t78 -35t48.5 -63t16.5 -96t-16.5 -96.5t-48.5 -63.5t-78 -35t-106 -11h-99q-69 0 -119.5 10.5t-84.5 33.5v-29q0 -28 21 -39.5t56 -11.5h451v-203h-451q-101 0 -170 25.5t-104 85.5q-28 -60 -86.5 -85.5
t-143.5 -25.5h-64zM1130 411q12 0 19.5 4t7.5 14t-7.5 14t-19.5 4h-276q-12 0 -19.5 -4t-7.5 -14t7.5 -14t19.5 -4h276zM330 604q-9 0 -18 -5.5t-9 -15.5q7 0 11.5 -2t8.5 -4.5t8 -4.5t11 -2q0 10 -2 18t-6 16h-4zM414 508q18 13 18 35h-5.5t-9 -1t-8 -3.5t-3.5 -6.5
q0 -2 3 -12t5 -12zM773 316q6 0 16.5 2.5t10.5 8.5q0 5 -7 13.5t-9 13.5zM246 492q1 -2 7 -5t8 -3q8 0 9.5 11t1.5 18q-9 0 -17.5 -5t-8.5 -16zM470 623q-5 0 -10.5 -4t-5.5 -10q0 -4 6 -15t10 -13v42zM294 466v23q-5 0 -8 -4t-5 -9t-3 -10t-1 -6zM931 -63q-11 0 -16 11
q2 4 6.5 7t9.5 3v-21zM205 500q-4 10 -18 10q0 -12 10 -18zM747 464q0 -1 2.5 -3t4.5 -2q6 0 6 7l-2.5 5t-2.5 3q-2 0 -5 -4t-3 -6zM980 132q10 0 12.5 5t2.5 11q0 7 -2.5 12t-9.5 5l-10 -7zM957 130q0 5 -1 14.5t-9 12.5q-2 0 -5.5 -3.5t-3.5 -5.5q0 -8 5.5 -13t13.5 -5z
" />
    <glyph glyph-name="ccedilla" unicode="&#xe7;" horiz-adv-x="736" 
d="M325 406l-5 8q0 7 4.5 10.5t9.5 5.5l7 -8zM546 50l-29 28l-4 -6q-3 -5 -3 -8q0 -9 7 -13.5t14 -15.5zM526 28l-16 -7l8 -13zM237 197q-4 8 -12 8h-4l3 -11zM385 -148q-4 -1 -13 -10t-11 -14q0 -2 3 -8t5 -8q3 -3 5 -3q0 25 19 35zM484 -123q1 -1 4 -1.5t4 -0.5
q8 0 14.5 4.5t6.5 13.5l-5 8q-2 0 -4.5 1t-3.5 1q-18 0 -18 -20zM330 -106l38 106h-32q-73 0 -130 13.5t-96 43.5t-59.5 78.5t-20.5 118.5v142q0 70 20.5 118.5t59.5 78.5t96 43.5t130 13.5h370v-203h-370q-35 0 -56 -11.5t-21 -39.5v-142q0 -28 21 -39.5t56 -11.5h370v-203
h-283v-44h9q47 0 71.5 -17.5t24.5 -62.5q0 -44 -24.5 -61.5t-71.5 -17.5h-139l22 61h117q12 0 20 3.5t8 14.5t-8 14.5t-20 3.5h-102z" />
    <glyph glyph-name="egrave" unicode="&#xe8;" horiz-adv-x="836" 
d="M758 140q2 -1 12 -5t12 -4t5 3v-134h-451q-73 0 -130 13.5t-96 43.5t-59.5 78.5t-20.5 118.5v142q0 70 20.5 118.5t59.5 78.5t96 43.5t130 13.5h226q60 0 106 -11t78 -35t48.5 -63t16.5 -96t-16.5 -96.5t-48.5 -63.5t-78 -35t-106 -11h-99q-69 0 -119.5 10.5t-84.5 33.5
v-29q0 -28 21 -39.5t56 -11.5h451v-42q-8 4 -16.5 7t-12.5 3q-1 0 -3.5 -2.5l-4.5 -4.5l-8 -24h16zM503 696h-165l-52 144h217v-144zM286 447q-12 0 -19.5 -4t-7.5 -14t7.5 -14t19.5 -4h276q12 0 19.5 4t7.5 14t-7.5 14t-19.5 4h-276zM200 -5q9 -5 9 -12q0 -5 -2 -7.5t-5 -3
t-5.5 -1t-3.5 -1.5q-3 -4 -4.5 -11t-4 -14t-6 -12t-10.5 -5q-10 0 -18.5 8t-8.5 19h19zM111 615q-11 9 -14 16.5t-3 18.5v6.5t1 5.5q7 -8 20 -13t13 -15q0 -7 -6 -12t-11 -7zM448 790q0 14 -3 28t-19 16q-1 -1 -2 -3q-1 -1 -1 -3v-1q0 -11 7 -28t18 -25v16zM104 -38
q0 6 2 13t6 11q0 1 2.5 1h4.5q6 0 12 -3t6 -10q0 -9 -10.5 -10.5t-18.5 -1.5h-4zM215 132q10 0 12.5 5t2.5 11q0 7 -2.5 12t-9.5 5l-6 -2zM674 44q0 8 -5.5 12.5t-13.5 4.5l-12 -4l5 -13h26zM192 130q0 5 -1 14.5t-9 12.5q-2 0 -5.5 -3.5t-3.5 -5.5q0 -8 5.5 -13t13.5 -5z
M632 84q10 -9 24 -9q5 0 9.5 1t6.5 8l-38 4zM639 125q7 2 8.5 7t1.5 12q0 2 -0.5 6.5t-0.5 6.5q-8 -2 -9 -8.5t-1 -12.5q0 -2 0.5 -6t0.5 -5zM488 766q-2 8 -6 14t-13 6q0 -7 3 -13.5t11 -6.5h5zM655 114q3 -17 19 -17q0 6 -3 12.5t-11 6.5zM209 59l-16 -8q4 -11 16 -11v19z
M422 68q-8 -4 -8 -12q0 -6 2.5 -10.5t5.5 -9.5v32zM568 92q3 3 3 12t-3 12q-2 0 -3.5 -3.5t-1.5 -8.5q0 -4 1 -7.5t4 -4.5zM760 450q0 -9 8 -20q0 1 0.5 3.5t0.5 4.5q0 5 -1 9.5t-8 6.5v-4zM463 36h-8v-16z" />
    <glyph glyph-name="eacute" unicode="&#xe9;" horiz-adv-x="836" 
d="M758 140q2 -1 12 -5t12 -4t5 3v-134h-451q-73 0 -130 13.5t-96 43.5t-59.5 78.5t-20.5 118.5v142q0 70 20.5 118.5t59.5 78.5t96 43.5t130 13.5h226q60 0 106 -11t78 -35t48.5 -63t16.5 -96t-16.5 -96.5t-48.5 -63.5t-78 -35t-106 -11h-99q-69 0 -119.5 10.5t-84.5 33.5
v-29q0 -28 21 -39.5t56 -11.5h451v-42q-8 4 -16.5 7t-12.5 3q-1 0 -3.5 -2.5l-4.5 -4.5l-8 -24h16zM338 840h217l-52 -144h-165v144zM286 447q-12 0 -19.5 -4t-7.5 -14t7.5 -14t19.5 -4h276q12 0 19.5 4t7.5 14t-7.5 14t-19.5 4h-276zM200 -5q9 -5 9 -12q0 -5 -2 -7.5t-5 -3
t-5.5 -1t-3.5 -1.5q-3 -4 -4.5 -11t-4 -14t-6 -12t-10.5 -5q-10 0 -18.5 8t-8.5 19h19zM111 615q-11 9 -14 16.5t-3 18.5v6.5t1 5.5q7 -8 20 -13t13 -15q0 -7 -6 -12t-11 -7zM498 815q0 -4 -3 -6t-7 -4.5t-7.5 -6t-3.5 -9.5q2 2 4.5 5t6.5 3q5 -4 12 -4q14 0 19 16
q0 2 1.5 10t2.5 11h-4q-12 0 -21 -9v-6zM104 -38q0 6 2 13t6 11q0 1 2.5 1h4.5q6 0 12 -3t6 -10q0 -9 -10.5 -10.5t-18.5 -1.5h-4zM215 132q10 0 12.5 5t2.5 11q0 7 -2.5 12t-9.5 5l-6 -2zM674 44q0 8 -5.5 12.5t-13.5 4.5l-12 -4l5 -13h26zM192 130q0 5 -1 14.5t-9 12.5
q-2 0 -5.5 -3.5t-3.5 -5.5q0 -8 5.5 -13t13.5 -5zM632 84q10 -9 24 -9q5 0 9.5 1t6.5 8l-38 4zM639 125q7 2 8.5 7t1.5 12q0 2 -0.5 6.5t-0.5 6.5q-8 -2 -9 -8.5t-1 -12.5q0 -2 0.5 -6t0.5 -5zM655 114q3 -17 19 -17q0 6 -3 12.5t-11 6.5zM508 759q13 4 13 12q0 7 -4 9
q-7 -2 -8.5 -6t-1.5 -9q0 -1 0.5 -3t0.5 -3zM209 59l-16 -8q4 -11 16 -11v19zM422 68q-8 -4 -8 -12q0 -6 2.5 -10.5t5.5 -9.5v32zM568 92q3 3 3 12t-3 12q-2 0 -3.5 -3.5t-1.5 -8.5q0 -4 1 -7.5t4 -4.5zM760 450q0 -9 8 -20q0 1 0.5 3.5t0.5 4.5q0 5 -1 9.5t-8 6.5v-4z
M463 36h-8v-16z" />
    <glyph glyph-name="ecircumflex" unicode="&#xea;" horiz-adv-x="836" 
d="M758 140q2 -1 12 -5t12 -4t5 3v-134h-451q-73 0 -130 13.5t-96 43.5t-59.5 78.5t-20.5 118.5v142q0 70 20.5 118.5t59.5 78.5t96 43.5t130 13.5h226q60 0 106 -11t78 -35t48.5 -63t16.5 -96t-16.5 -96.5t-48.5 -63.5t-78 -35t-106 -11h-99q-69 0 -119.5 10.5t-84.5 33.5
v-29q0 -28 21 -39.5t56 -11.5h451v-42q-8 4 -16.5 7t-12.5 3q-1 0 -3.5 -2.5l-4.5 -4.5l-8 -24h16zM338 840h178l52 -144h-282zM286 447q-12 0 -19.5 -4t-7.5 -14t7.5 -14t19.5 -4h276q12 0 19.5 4t7.5 14t-7.5 14t-19.5 4h-276zM200 -5q9 -5 9 -12q0 -5 -2 -7.5t-5 -3
t-5.5 -1t-3.5 -1.5q-3 -4 -4.5 -11t-4 -14t-6 -12t-10.5 -5q-10 0 -18.5 8t-8.5 19h19zM111 615q-11 9 -14 16.5t-3 18.5v6.5t1 5.5q7 -8 20 -13t13 -15q0 -7 -6 -12t-11 -7zM104 -38q0 6 2 13t6 11q0 1 2.5 1h4.5q6 0 12 -3t6 -10q0 -9 -10.5 -10.5t-18.5 -1.5h-4zM496 809
q-12 17 -35 17q0 -8 7.5 -16.5t16.5 -8.5q4 0 6.5 1.5t4.5 6.5zM215 132q10 0 12.5 5t2.5 11q0 7 -2.5 12t-9.5 5l-6 -2zM674 44q0 8 -5.5 12.5t-13.5 4.5l-12 -4l5 -13h26zM192 130q0 5 -1 14.5t-9 12.5q-2 0 -5.5 -3.5t-3.5 -5.5q0 -8 5.5 -13t13.5 -5zM632 84
q10 -9 24 -9q5 0 9.5 1t6.5 8l-38 4zM639 125q7 2 8.5 7t1.5 12q0 2 -0.5 6.5t-0.5 6.5q-8 -2 -9 -8.5t-1 -12.5q0 -2 0.5 -6t0.5 -5zM655 114q3 -17 19 -17q0 6 -3 12.5t-11 6.5zM209 59l-16 -8q4 -11 16 -11v19zM422 68q-8 -4 -8 -12q0 -6 2.5 -10.5t5.5 -9.5v32zM568 92
q3 3 3 12t-3 12q-2 0 -3.5 -3.5t-1.5 -8.5q0 -4 1 -7.5t4 -4.5zM760 450q0 -9 8 -20q0 1 0.5 3.5t0.5 4.5q0 5 -1 9.5t-8 6.5v-4zM463 36h-8v-16z" />
    <glyph glyph-name="edieresis" unicode="&#xeb;" horiz-adv-x="836" 
d="M758 140q2 -1 12 -5t12 -4t5 3v-134h-451q-73 0 -130 13.5t-96 43.5t-59.5 78.5t-20.5 118.5v142q0 70 20.5 118.5t59.5 78.5t96 43.5t130 13.5h226q60 0 106 -11t78 -35t48.5 -63t16.5 -96t-16.5 -96.5t-48.5 -63.5t-78 -35t-106 -11h-99q-69 0 -119.5 10.5t-84.5 33.5
v-29q0 -28 21 -39.5t56 -11.5h451v-42q-8 4 -16.5 7t-12.5 3q-1 0 -3.5 -2.5l-4.5 -4.5l-8 -24h16zM311 855q36 0 61.5 -25.5t25.5 -61.5t-25.5 -61.5t-61.5 -25.5t-61.5 25.5t-25.5 61.5t25.5 61.5t61.5 25.5zM529 855q36 0 61.5 -25.5t25.5 -61.5t-25.5 -61.5t-61.5 -25.5
t-61.5 25.5t-25.5 61.5t25.5 61.5t61.5 25.5zM286 447q-12 0 -19.5 -4t-7.5 -14t7.5 -14t19.5 -4h276q12 0 19.5 4t7.5 14t-7.5 14t-19.5 4h-276zM200 -5q9 -5 9 -12q0 -5 -2 -7.5t-5 -3t-5.5 -1t-3.5 -1.5q-3 -4 -4.5 -11t-4 -14t-6 -12t-10.5 -5q-10 0 -18.5 8t-8.5 19h19
zM111 615q-11 9 -14 16.5t-3 18.5v6.5t1 5.5q7 -8 20 -13t13 -15q0 -7 -6 -12t-11 -7zM104 -38q0 6 2 13t6 11q0 1 2.5 1h4.5q6 0 12 -3t6 -10q0 -9 -10.5 -10.5t-18.5 -1.5h-4zM498 732q10 0 13.5 -8t10.5 -8q18 0 18 17q-12 0 -20.5 4t-19.5 4zM215 132q10 0 12.5 5
t2.5 11q0 7 -2.5 12t-9.5 5l-6 -2zM344 838q-11 -8 -17 -14.5t-6 -18.5q16 0 19.5 8t3.5 21v4zM674 44q0 8 -5.5 12.5t-13.5 4.5l-12 -4l5 -13h26zM192 130q0 5 -1 14.5t-9 12.5q-2 0 -5.5 -3.5t-3.5 -5.5q0 -8 5.5 -13t13.5 -5zM632 84q10 -9 24 -9q5 0 9.5 1t6.5 8l-38 4z
M639 125q7 2 8.5 7t1.5 12q0 2 -0.5 6.5t-0.5 6.5q-8 -2 -9 -8.5t-1 -12.5q0 -2 0.5 -6t0.5 -5zM655 114q3 -17 19 -17q0 6 -3 12.5t-11 6.5zM209 59l-16 -8q4 -11 16 -11v19zM422 68q-8 -4 -8 -12q0 -6 2.5 -10.5t5.5 -9.5v32zM568 92q3 3 3 12t-3 12q-2 0 -3.5 -3.5
t-1.5 -8.5q0 -4 1 -7.5t4 -4.5zM760 450q0 -9 8 -20q0 1 0.5 3.5t0.5 4.5q0 5 -1 9.5t-8 6.5v-4zM512 708q-5 0 -8 -3.5t-3 -7.5q0 -1 1 -2l2 -2q2 1 5.5 4.5t3.5 7.5q0 2 -1 3zM463 36h-8v-16z" />
    <glyph glyph-name="igrave" unicode="&#xec;" horiz-adv-x="317" 
d="M241 696h-165l-52 144h217v-144zM186 790q0 14 -3 28t-19 16q-1 -1 -2 -3q-1 -1 -1 -3v-1q0 -11 7 -28t18 -25v16zM226 766q-2 8 -6 14t-13 6q0 -7 3 -13.5t11 -6.5h5zM273 0h-229v650h229v-650zM119 19q-12 17 -35 17q0 -8 7.5 -16.5t16.5 -8.5q4 0 6.5 1.5t4.5 6.5z
M155 66q8 0 10.5 7.5t2.5 13.5l-1 2v2q-5 -4 -10 -7t-5 -9q0 -1 1.5 -4.5t1.5 -4.5zM256 66q4 2 4 8q0 5 -4 9q-7 0 -7 -7q0 -2 1.5 -6t5.5 -4zM61 267q8 0 19 8.5t16 16.5q-14 2 -20 11.5t-6 21.5q0 6 3 9.5t7 7t7 8t3 11.5q-10 0 -17 -5.5t-11.5 -13.5t-7 -17.5
t-2.5 -16.5q-1 1 0.5 -3.5t3.5 -11t3.5 -13.5t1.5 -13zM192 308q3 -9 15 -9q-3 9 -15 9zM96 332l-9 -16q1 -1 2 -1h2q8 0 12 9z" />
    <glyph glyph-name="iacute" unicode="&#xed;" horiz-adv-x="317" 
d="M76 840h217l-52 -144h-165v144zM236 815q0 -4 -3 -6t-7 -4.5t-7.5 -6t-3.5 -9.5q2 2 4.5 5t6.5 3q5 -4 12 -4q14 0 19 16q0 2 1.5 10t2.5 11h-4q-12 0 -21 -9v-6zM246 759q13 4 13 12q0 7 -4 9q-7 -2 -8.5 -6t-1.5 -9q0 -1 0.5 -3t0.5 -3zM273 0h-229v650h229v-650z
M119 19q-12 17 -35 17q0 -8 7.5 -16.5t16.5 -8.5q4 0 6.5 1.5t4.5 6.5zM155 66q8 0 10.5 7.5t2.5 13.5l-1 2v2q-5 -4 -10 -7t-5 -9q0 -1 1.5 -4.5t1.5 -4.5zM256 66q4 2 4 8q0 5 -4 9q-7 0 -7 -7q0 -2 1.5 -6t5.5 -4zM61 267q8 0 19 8.5t16 16.5q-14 2 -20 11.5t-6 21.5
q0 6 3 9.5t7 7t7 8t3 11.5q-10 0 -17 -5.5t-11.5 -13.5t-7 -17.5t-2.5 -16.5q-1 1 0.5 -3.5t3.5 -11t3.5 -13.5t1.5 -13zM192 308q3 -9 15 -9q-3 9 -15 9zM96 332l-9 -16q1 -1 2 -1h2q8 0 12 9z" />
    <glyph glyph-name="icircumflex" unicode="&#xee;" horiz-adv-x="316" 
d="M273 0h-229v650h229v-650zM119 19q-12 17 -35 17q0 -8 7.5 -16.5t16.5 -8.5q4 0 6.5 1.5t4.5 6.5zM155 66q8 0 10.5 7.5t2.5 13.5l-1 2v2q-5 -4 -10 -7t-5 -9q0 -1 1.5 -4.5t1.5 -4.5zM256 66q4 2 4 8q0 5 -4 9q-7 0 -7 -7q0 -2 1.5 -6t5.5 -4zM61 267q8 0 19 8.5
t16 16.5q-14 2 -20 11.5t-6 21.5q0 6 3 9.5t7 7t7 8t3 11.5q-10 0 -17 -5.5t-11.5 -13.5t-7 -17.5t-2.5 -16.5q-1 1 0.5 -3.5t3.5 -11t3.5 -13.5t1.5 -13zM192 308q3 -9 15 -9q-3 9 -15 9zM96 332l-9 -16q1 -1 2 -1h2q8 0 12 9zM69 840h178l52 -144h-282zM227 809
q-12 17 -35 17q0 -8 7.5 -16.5t16.5 -8.5q4 0 6.5 1.5t4.5 6.5z" />
    <glyph glyph-name="idieresis" unicode="&#xef;" horiz-adv-x="316" 
d="M49 855q36 0 61.5 -25.5t25.5 -61.5t-25.5 -61.5t-61.5 -25.5t-61.5 25.5t-25.5 61.5t25.5 61.5t61.5 25.5zM267 855q36 0 61.5 -25.5t25.5 -61.5t-25.5 -61.5t-61.5 -25.5t-61.5 25.5t-25.5 61.5t25.5 61.5t61.5 25.5zM236 732q10 0 13.5 -8t10.5 -8q18 0 18 17
q-12 0 -20.5 4t-19.5 4zM82 838q-11 -8 -17 -14.5t-6 -18.5q16 0 19.5 8t3.5 21v4zM250 708q-5 0 -8 -3.5t-3 -7.5q0 -1 1 -2l2 -2q2 1 5.5 4.5t3.5 7.5q0 2 -1 3zM273 0h-229v650h229v-650zM119 19q-12 17 -35 17q0 -8 7.5 -16.5t16.5 -8.5q4 0 6.5 1.5t4.5 6.5zM155 66
q8 0 10.5 7.5t2.5 13.5l-1 2v2q-5 -4 -10 -7t-5 -9q0 -1 1.5 -4.5t1.5 -4.5zM256 66q4 2 4 8q0 5 -4 9q-7 0 -7 -7q0 -2 1.5 -6t5.5 -4zM61 267q8 0 19 8.5t16 16.5q-14 2 -20 11.5t-6 21.5q0 6 3 9.5t7 7t7 8t3 11.5q-10 0 -17 -5.5t-11.5 -13.5t-7 -17.5t-2.5 -16.5
q-1 1 0.5 -3.5t3.5 -11t3.5 -13.5t1.5 -13zM192 308q3 -9 15 -9q-3 9 -15 9zM96 332l-9 -16q1 -1 2 -1h2q8 0 12 9z" />
    <glyph glyph-name="eth" unicode="&#xf0;" horiz-adv-x="859" 
d="M312 474q45 0 81 -8t62 -26l-264 310h293l89 -105l90 105h171l-176 -205l126 -147q24 -28 37 -67.5t13 -93.5q0 -66 -19 -111t-56 -73t-90 -40.5t-122 -12.5h-235q-69 0 -122 12.5t-90 40.5t-56 73t-19 111t19 111t56 73t90 40.5t122 12.5zM312 276q-19 0 -30.5 -6.5
t-11.5 -21.5q0 -17 11.5 -23.5t30.5 -6.5h235q19 0 30.5 6.5t11.5 23.5q0 15 -11.5 21.5t-30.5 6.5h-235zM638 332q4 0 12 2.5t16.5 6.5t15 9.5t6.5 10.5q0 6 -9 10q0 13 -4.5 24t-24.5 11q-2 0 -3 -1l-9 -7q4 -6 8.5 -8t8.5 -4t6.5 -5.5t2.5 -11.5q0 -5 -1.5 -12.5
t-11.5 -7.5h-4q1 1 1 4q0 5 -5.5 7.5t-9.5 4.5zM421 598l15 21t10 24q0 6 -4 8t-12 4q-7 -12 -8 -20.5t-1 -20.5v-16zM510 703l-8 8q-8 -2 -8 -16q0 -9 1.5 -15.5t6.5 -16.5zM719 189q0 -1 4 -1q6 0 9 6t3 11q0 2 -3 4.5t-5 2.5zM610 313q-6 -4 -10 -11t-6 -13q1 -1 2 -1h2
q7 0 10 5.5t3 11.5q0 1 -0.5 3.5t-0.5 4.5zM625 283q6 7 7.5 11.5t1.5 12.5q0 1 -0.5 3.5t-0.5 3.5q-6 -1 -7.5 -6.5t-1.5 -12.5v-6t1 -6zM438 374h-5q-5 0 -8.5 -3.5t-3.5 -8.5v-4z" />
    <glyph glyph-name="ntilde" unicode="&#xf1;" horiz-adv-x="853" 
d="M311 459q15 9 23.5 21t8.5 39q-21 -6 -26.5 -18t-5.5 -30v-12zM573 -35l11 14l12 -31zM349 525q4 0 12 -7t11 -7q11 0 21.5 10.5t10.5 21.5q0 6 -2 10l-2 4q-5 0 -13 -3t-16 -8t-14 -10.5t-8 -10.5zM519 655q73 0 130 -13.5t96 -43.5t59.5 -78.5t20.5 -118.5v-401h-229
v401q0 28 -21 39.5t-56 11.5h-183q-30 0 -46.5 -12.5t-16.5 -38.5v-401h-229v650h229v-69q34 39 90 56.5t131 17.5h25zM386 734q-24 0 -24 -31v-7h-165v7q0 84 35.5 118t101.5 34q34 0 57 -8.5t40 -18t31 -18t30 -8.5q24 0 24 31v7h165v-7q0 -84 -35.5 -118t-101.5 -34
q-34 0 -57.5 8t-40.5 18t-31 18.5t-29 8.5zM350 761l-28 -4q1 -2 5 -9t8.5 -14.5t9.5 -13.5t9 -6zM323 766q0 2 0.5 6t0.5 6q0 12 -8 16.5t-25 4.5z" />
    <glyph glyph-name="ograve" unicode="&#xf2;" horiz-adv-x="857" 
d="M336 0q-73 0 -130 13.5t-96 43.5t-59.5 78.5t-20.5 118.5v142q0 70 20.5 118.5t59.5 78.5t96 43.5t130 13.5h185q73 0 130 -13.5t96 -43.5t59.5 -78.5t20.5 -118.5v-142q0 -70 -20.5 -118.5t-59.5 -78.5t-96 -43.5t-130 -13.5h-185zM336 447q-35 0 -56 -11.5t-21 -39.5
v-142q0 -28 21 -39.5t56 -11.5h185q35 0 56 11.5t21 39.5v142q0 28 -21 39.5t-56 11.5h-185zM551 -27q1 1 2 3l1.5 3t2.5 3q3 4 5 9q6 0 9 -5.5t4.5 -13.5t2 -16t0.5 -12l11 -5l-31 -2zM580 151q12 -3 18.5 -4t9.5 -2q4 -1 5 -1q4 0 6 10.5t2 13.5q-11 0 -23.5 -3t-17.5 -14
zM660 151q-2 2 -8 5.5t-8 3.5t-8.5 -3.5t-8.5 -5.5q2 -6 4 -11.5t9 -5.5t11.5 6t8.5 11zM645 28q1 0 2 1.5t5 1.5q-2 5 -9 10.5t-8 5.5q-4 0 -9 -3t-6 -5zM638 63q0 5 -1.5 13.5t-9.5 10.5l-2 -19zM620 221q5 0 13.5 1.5t10.5 9.5l-25 -3zM627 -25q-9 5 -9 16h9v-16z
M563 288l9 8v-16zM346 583q2 -7 6 -13.5t10 -11.5q7 2 8 6.5t1 9.5q0 11 -5.5 14t-15.5 3t-16 -4t-6 -15q12 0 18 11zM509 628q-3 0 -9 -0.5t-12 -2.5t-10 -6.5t-4 -11.5q2 -1 6.5 -1h6.5q22 0 22 22zM511 696h-165l-52 144h217v-144zM456 790q0 14 -3 28t-19 16
q-1 -1 -2 -3q-1 -1 -1 -3v-1q0 -11 7 -28t18 -25v16zM496 766q-2 8 -6 14t-13 6q0 -7 3 -13.5t11 -6.5h5z" />
    <glyph glyph-name="oacute" unicode="&#xf3;" horiz-adv-x="857" 
d="M336 0q-73 0 -130 13.5t-96 43.5t-59.5 78.5t-20.5 118.5v142q0 70 20.5 118.5t59.5 78.5t96 43.5t130 13.5h185q73 0 130 -13.5t96 -43.5t59.5 -78.5t20.5 -118.5v-142q0 -70 -20.5 -118.5t-59.5 -78.5t-96 -43.5t-130 -13.5h-185zM336 447q-35 0 -56 -11.5t-21 -39.5
v-142q0 -28 21 -39.5t56 -11.5h185q35 0 56 11.5t21 39.5v142q0 28 -21 39.5t-56 11.5h-185zM551 -27q1 1 2 3l1.5 3t2.5 3q3 4 5 9q6 0 9 -5.5t4.5 -13.5t2 -16t0.5 -12l11 -5l-31 -2zM580 151q12 -3 18.5 -4t9.5 -2q4 -1 5 -1q4 0 6 10.5t2 13.5q-11 0 -23.5 -3t-17.5 -14
zM660 151q-2 2 -8 5.5t-8 3.5t-8.5 -3.5t-8.5 -5.5q2 -6 4 -11.5t9 -5.5t11.5 6t8.5 11zM645 28q1 0 2 1.5t5 1.5q-2 5 -9 10.5t-8 5.5q-4 0 -9 -3t-6 -5zM638 63q0 5 -1.5 13.5t-9.5 10.5l-2 -19zM620 221q5 0 13.5 1.5t10.5 9.5l-25 -3zM627 -25q-9 5 -9 16h9v-16z
M563 288l9 8v-16zM346 583q2 -7 6 -13.5t10 -11.5q7 2 8 6.5t1 9.5q0 11 -5.5 14t-15.5 3t-16 -4t-6 -15q12 0 18 11zM509 628q-3 0 -9 -0.5t-12 -2.5t-10 -6.5t-4 -11.5q2 -1 6.5 -1h6.5q22 0 22 22zM346 840h217l-52 -144h-165v144zM506 815q0 -4 -3 -6t-7 -4.5t-7.5 -6
t-3.5 -9.5q2 2 4.5 5t6.5 3q5 -4 12 -4q14 0 19 16q0 2 1.5 10t2.5 11h-4q-12 0 -21 -9v-6zM516 759q13 4 13 12q0 7 -4 9q-7 -2 -8.5 -6t-1.5 -9q0 -1 0.5 -3t0.5 -3z" />
    <glyph glyph-name="ocircumflex" unicode="&#xf4;" horiz-adv-x="857" 
d="M336 0q-73 0 -130 13.5t-96 43.5t-59.5 78.5t-20.5 118.5v142q0 70 20.5 118.5t59.5 78.5t96 43.5t130 13.5h185q73 0 130 -13.5t96 -43.5t59.5 -78.5t20.5 -118.5v-142q0 -70 -20.5 -118.5t-59.5 -78.5t-96 -43.5t-130 -13.5h-185zM336 447q-35 0 -56 -11.5t-21 -39.5
v-142q0 -28 21 -39.5t56 -11.5h185q35 0 56 11.5t21 39.5v142q0 28 -21 39.5t-56 11.5h-185zM551 -27q1 1 2 3l1.5 3t2.5 3q3 4 5 9q6 0 9 -5.5t4.5 -13.5t2 -16t0.5 -12l11 -5l-31 -2zM580 151q12 -3 18.5 -4t9.5 -2q4 -1 5 -1q4 0 6 10.5t2 13.5q-11 0 -23.5 -3t-17.5 -14
zM660 151q-2 2 -8 5.5t-8 3.5t-8.5 -3.5t-8.5 -5.5q2 -6 4 -11.5t9 -5.5t11.5 6t8.5 11zM645 28q1 0 2 1.5t5 1.5q-2 5 -9 10.5t-8 5.5q-4 0 -9 -3t-6 -5zM638 63q0 5 -1.5 13.5t-9.5 10.5l-2 -19zM620 221q5 0 13.5 1.5t10.5 9.5l-25 -3zM627 -25q-9 5 -9 16h9v-16z
M563 288l9 8v-16zM346 583q2 -7 6 -13.5t10 -11.5q7 2 8 6.5t1 9.5q0 11 -5.5 14t-15.5 3t-16 -4t-6 -15q12 0 18 11zM509 628q-3 0 -9 -0.5t-12 -2.5t-10 -6.5t-4 -11.5q2 -1 6.5 -1h6.5q22 0 22 22zM339 840h178l52 -144h-282zM497 809q-12 17 -35 17q0 -8 7.5 -16.5
t16.5 -8.5q4 0 6.5 1.5t4.5 6.5z" />
    <glyph glyph-name="otilde" unicode="&#xf5;" horiz-adv-x="857" 
d="M336 0q-73 0 -130 13.5t-96 43.5t-59.5 78.5t-20.5 118.5v142q0 70 20.5 118.5t59.5 78.5t96 43.5t130 13.5h185q73 0 130 -13.5t96 -43.5t59.5 -78.5t20.5 -118.5v-142q0 -70 -20.5 -118.5t-59.5 -78.5t-96 -43.5t-130 -13.5h-185zM336 447q-35 0 -56 -11.5t-21 -39.5
v-142q0 -28 21 -39.5t56 -11.5h185q35 0 56 11.5t21 39.5v142q0 28 -21 39.5t-56 11.5h-185zM551 -27q1 1 2 3l1.5 3t2.5 3q3 4 5 9q6 0 9 -5.5t4.5 -13.5t2 -16t0.5 -12l11 -5l-31 -2zM580 151q12 -3 18.5 -4t9.5 -2q4 -1 5 -1q4 0 6 10.5t2 13.5q-11 0 -23.5 -3t-17.5 -14
zM660 151q-2 2 -8 5.5t-8 3.5t-8.5 -3.5t-8.5 -5.5q2 -6 4 -11.5t9 -5.5t11.5 6t8.5 11zM645 28q1 0 2 1.5t5 1.5q-2 5 -9 10.5t-8 5.5q-4 0 -9 -3t-6 -5zM638 63q0 5 -1.5 13.5t-9.5 10.5l-2 -19zM620 221q5 0 13.5 1.5t10.5 9.5l-25 -3zM627 -25q-9 5 -9 16h9v-16z
M563 288l9 8v-16zM346 583q2 -7 6 -13.5t10 -11.5q7 2 8 6.5t1 9.5q0 11 -5.5 14t-15.5 3t-16 -4t-6 -15q12 0 18 11zM509 628q-3 0 -9 -0.5t-12 -2.5t-10 -6.5t-4 -11.5q2 -1 6.5 -1h6.5q22 0 22 22zM375 734q-24 0 -24 -31v-7h-165v7q0 84 35.5 118t101.5 34q34 0 57 -8.5
t40 -18t31 -18t30 -8.5q24 0 24 31v7h165v-7q0 -84 -35.5 -118t-101.5 -34q-34 0 -57.5 8t-40.5 18t-31 18.5t-29 8.5zM339 761l-28 -4q1 -2 5 -9t8.5 -14.5t9.5 -13.5t9 -6zM312 766q0 2 0.5 6t0.5 6q0 12 -8 16.5t-25 4.5z" />
    <glyph glyph-name="odieresis" unicode="&#xf6;" horiz-adv-x="857" 
d="M336 0q-73 0 -130 13.5t-96 43.5t-59.5 78.5t-20.5 118.5v142q0 70 20.5 118.5t59.5 78.5t96 43.5t130 13.5h185q73 0 130 -13.5t96 -43.5t59.5 -78.5t20.5 -118.5v-142q0 -70 -20.5 -118.5t-59.5 -78.5t-96 -43.5t-130 -13.5h-185zM336 447q-35 0 -56 -11.5t-21 -39.5
v-142q0 -28 21 -39.5t56 -11.5h185q35 0 56 11.5t21 39.5v142q0 28 -21 39.5t-56 11.5h-185zM551 -27q1 1 2 3l1.5 3t2.5 3q3 4 5 9q6 0 9 -5.5t4.5 -13.5t2 -16t0.5 -12l11 -5l-31 -2zM580 151q12 -3 18.5 -4t9.5 -2q4 -1 5 -1q4 0 6 10.5t2 13.5q-11 0 -23.5 -3t-17.5 -14
zM660 151q-2 2 -8 5.5t-8 3.5t-8.5 -3.5t-8.5 -5.5q2 -6 4 -11.5t9 -5.5t11.5 6t8.5 11zM645 28q1 0 2 1.5t5 1.5q-2 5 -9 10.5t-8 5.5q-4 0 -9 -3t-6 -5zM638 63q0 5 -1.5 13.5t-9.5 10.5l-2 -19zM620 221q5 0 13.5 1.5t10.5 9.5l-25 -3zM627 -25q-9 5 -9 16h9v-16z
M563 288l9 8v-16zM346 583q2 -7 6 -13.5t10 -11.5q7 2 8 6.5t1 9.5q0 11 -5.5 14t-15.5 3t-16 -4t-6 -15q12 0 18 11zM509 628q-3 0 -9 -0.5t-12 -2.5t-10 -6.5t-4 -11.5q2 -1 6.5 -1h6.5q22 0 22 22zM319 855q36 0 61.5 -25.5t25.5 -61.5t-25.5 -61.5t-61.5 -25.5
t-61.5 25.5t-25.5 61.5t25.5 61.5t61.5 25.5zM537 855q36 0 61.5 -25.5t25.5 -61.5t-25.5 -61.5t-61.5 -25.5t-61.5 25.5t-25.5 61.5t25.5 61.5t61.5 25.5zM506 732q10 0 13.5 -8t10.5 -8q18 0 18 17q-12 0 -20.5 4t-19.5 4zM352 838q-11 -8 -17 -14.5t-6 -18.5q16 0 19.5 8
t3.5 21v4zM520 708q-5 0 -8 -3.5t-3 -7.5q0 -1 1 -2l2 -2q2 1 5.5 4.5t3.5 7.5q0 2 -1 3z" />
    <glyph glyph-name="divide" unicode="&#xf7;" horiz-adv-x="578" 
d="M561 474v-198h-544v198h544zM180 641q0 22 8.5 42t23.5 35t34.5 23.5t42.5 8.5q22 0 42 -8.5t35 -23.5t23.5 -35t8.5 -42q0 -23 -8.5 -42.5t-23.5 -34.5t-35 -23.5t-42 -8.5q-23 0 -42.5 8.5t-34.5 23.5t-23.5 34.5t-8.5 42.5zM180 109q0 22 8.5 42t23.5 35t34.5 23.5
t42.5 8.5q22 0 42 -8.5t35 -23.5t23.5 -35t8.5 -42q0 -23 -8.5 -42.5t-23.5 -34.5t-35 -23.5t-42 -8.5q-23 0 -42.5 8.5t-34.5 23.5t-23.5 34.5t-8.5 42.5zM334 423q14 4 28.5 16t14.5 26q-14 0 -25.5 -10t-24.5 -10zM440 399q0 5 -2.5 9t-7.5 6l-11 -19zM376 663
q0 11 -4.5 23t-16.5 17l-8 -7l15 -21z" />
    <glyph glyph-name="oslash" unicode="&#xf8;" horiz-adv-x="857" 
d="M336 0q-73 0 -130 13.5t-96 43.5t-59.5 78.5t-20.5 118.5v142q0 70 20.5 118.5t59.5 78.5t96 43.5t130 13.5h185q73 0 130 -13.5t96 -43.5t59.5 -78.5t20.5 -118.5v-142q0 -70 -20.5 -118.5t-59.5 -78.5t-96 -43.5t-130 -13.5h-185zM521 203q35 0 56 11.5t21 39.5v128
l-152 -179h75zM259 270l150 177h-73q-35 0 -56 -11.5t-21 -39.5v-126zM551 -27q1 1 2 3l1.5 3t2.5 3q3 4 5 9q6 0 9 -5.5t4.5 -13.5t2 -16t0.5 -12l11 -5l-31 -2zM580 151q12 -3 18.5 -4t9.5 -2q4 -1 5 -1q4 0 6 10.5t2 13.5q-11 0 -23.5 -3t-17.5 -14zM660 151q-2 2 -8 5.5
t-8 3.5t-8.5 -3.5t-8.5 -5.5q2 -6 4 -11.5t9 -5.5t11.5 6t8.5 11zM645 28q1 0 2 1.5t5 1.5q-2 5 -9 10.5t-8 5.5q-4 0 -9 -3t-6 -5zM638 63q0 5 -1.5 13.5t-9.5 10.5l-2 -19zM620 221q5 0 13.5 1.5t10.5 9.5l-25 -3zM627 -25q-9 5 -9 16h9v-16zM563 288l9 8v-16zM346 583
q2 -7 6 -13.5t10 -11.5q7 2 8 6.5t1 9.5q0 11 -5.5 14t-15.5 3t-16 -4t-6 -15q12 0 18 11zM509 628q-3 0 -9 -0.5t-12 -2.5t-10 -6.5t-4 -11.5q2 -1 6.5 -1h6.5q22 0 22 22z" />
    <glyph glyph-name="ugrave" unicode="&#xf9;" horiz-adv-x="847" 
d="M100 287q7 0 10 3t4.5 7.5l3 9t6.5 6.5q-4 9 -12 9q-5 0 -7 -4t-3.5 -9.5t-1.5 -11.5v-10zM695 16q0 -4 5.5 -7t8.5 -3q0 2 0.5 9t1.5 9q0 1 4 7.5t4 8.5t-3 5t-5 3zM229 34q-7 0 -13 -3t-11 -6q2 -8 10 -9.5t14 -1.5v20zM727 418q0 -6 1 -10t7 -6q9 3 9 12q0 6 -5 8
t-12 4v-8zM84 172q-7 -5 -11.5 -16t-4.5 -17q0 -2 3 -5t5 -3zM695 40l-17 8v-4q0 -6 2 -10t7 -10zM188 51h-17q0 -12 10 -16zM205 -24q0 2 3 5.5t5 3.5t8.5 -3.5t7.5 -5.5h-24zM132 351q11 0 16 11h-16v-11zM350 -5q-73 0 -130 13.5t-96 43.5t-59.5 78.5t-20.5 118.5v401
h229v-401q0 -28 21 -39.5t56 -11.5h183q29 0 46 12.5t17 38.5v401h229v-650h-229v68q-35 -39 -90.5 -56t-130.5 -17h-25zM517 696h-165l-52 144h217v-144zM462 790q0 14 -3 28t-19 16q-1 -1 -2 -3q-1 -1 -1 -3v-1q0 -11 7 -28t18 -25v16zM502 766q-2 8 -6 14t-13 6
q0 -7 3 -13.5t11 -6.5h5z" />
    <glyph glyph-name="uacute" unicode="&#xfa;" horiz-adv-x="847" 
d="M100 287q7 0 10 3t4.5 7.5l3 9t6.5 6.5q-4 9 -12 9q-5 0 -7 -4t-3.5 -9.5t-1.5 -11.5v-10zM695 16q0 -4 5.5 -7t8.5 -3q0 2 0.5 9t1.5 9q0 1 4 7.5t4 8.5t-3 5t-5 3zM229 34q-7 0 -13 -3t-11 -6q2 -8 10 -9.5t14 -1.5v20zM727 418q0 -6 1 -10t7 -6q9 3 9 12q0 6 -5 8
t-12 4v-8zM84 172q-7 -5 -11.5 -16t-4.5 -17q0 -2 3 -5t5 -3zM695 40l-17 8v-4q0 -6 2 -10t7 -10zM188 51h-17q0 -12 10 -16zM205 -24q0 2 3 5.5t5 3.5t8.5 -3.5t7.5 -5.5h-24zM132 351q11 0 16 11h-16v-11zM350 -5q-73 0 -130 13.5t-96 43.5t-59.5 78.5t-20.5 118.5v401
h229v-401q0 -28 21 -39.5t56 -11.5h183q29 0 46 12.5t17 38.5v401h229v-650h-229v68q-35 -39 -90.5 -56t-130.5 -17h-25zM352 840h217l-52 -144h-165v144zM512 815q0 -4 -3 -6t-7 -4.5t-7.5 -6t-3.5 -9.5q2 2 4.5 5t6.5 3q5 -4 12 -4q14 0 19 16q0 2 1.5 10t2.5 11h-4
q-12 0 -21 -9v-6zM522 759q13 4 13 12q0 7 -4 9q-7 -2 -8.5 -6t-1.5 -9q0 -1 0.5 -3t0.5 -3z" />
    <glyph glyph-name="ucircumflex" unicode="&#xfb;" horiz-adv-x="847" 
d="M100 287q7 0 10 3t4.5 7.5l3 9t6.5 6.5q-4 9 -12 9q-5 0 -7 -4t-3.5 -9.5t-1.5 -11.5v-10zM695 16q0 -4 5.5 -7t8.5 -3q0 2 0.5 9t1.5 9q0 1 4 7.5t4 8.5t-3 5t-5 3zM229 34q-7 0 -13 -3t-11 -6q2 -8 10 -9.5t14 -1.5v20zM727 418q0 -6 1 -10t7 -6q9 3 9 12q0 6 -5 8
t-12 4v-8zM84 172q-7 -5 -11.5 -16t-4.5 -17q0 -2 3 -5t5 -3zM695 40l-17 8v-4q0 -6 2 -10t7 -10zM188 51h-17q0 -12 10 -16zM205 -24q0 2 3 5.5t5 3.5t8.5 -3.5t7.5 -5.5h-24zM132 351q11 0 16 11h-16v-11zM350 -5q-73 0 -130 13.5t-96 43.5t-59.5 78.5t-20.5 118.5v401
h229v-401q0 -28 21 -39.5t56 -11.5h183q29 0 46 12.5t17 38.5v401h229v-650h-229v68q-35 -39 -90.5 -56t-130.5 -17h-25zM342 840h178l52 -144h-282zM500 809q-12 17 -35 17q0 -8 7.5 -16.5t16.5 -8.5q4 0 6.5 1.5t4.5 6.5z" />
    <glyph glyph-name="udieresis" unicode="&#xfc;" horiz-adv-x="847" 
d="M100 287q7 0 10 3t4.5 7.5l3 9t6.5 6.5q-4 9 -12 9q-5 0 -7 -4t-3.5 -9.5t-1.5 -11.5v-10zM695 16q0 -4 5.5 -7t8.5 -3q0 2 0.5 9t1.5 9q0 1 4 7.5t4 8.5t-3 5t-5 3zM229 34q-7 0 -13 -3t-11 -6q2 -8 10 -9.5t14 -1.5v20zM727 418q0 -6 1 -10t7 -6q9 3 9 12q0 6 -5 8
t-12 4v-8zM84 172q-7 -5 -11.5 -16t-4.5 -17q0 -2 3 -5t5 -3zM695 40l-17 8v-4q0 -6 2 -10t7 -10zM188 51h-17q0 -12 10 -16zM205 -24q0 2 3 5.5t5 3.5t8.5 -3.5t7.5 -5.5h-24zM132 351q11 0 16 11h-16v-11zM350 -5q-73 0 -130 13.5t-96 43.5t-59.5 78.5t-20.5 118.5v401
h229v-401q0 -28 21 -39.5t56 -11.5h183q29 0 46 12.5t17 38.5v401h229v-650h-229v68q-35 -39 -90.5 -56t-130.5 -17h-25zM325 855q36 0 61.5 -25.5t25.5 -61.5t-25.5 -61.5t-61.5 -25.5t-61.5 25.5t-25.5 61.5t25.5 61.5t61.5 25.5zM543 855q36 0 61.5 -25.5t25.5 -61.5
t-25.5 -61.5t-61.5 -25.5t-61.5 25.5t-25.5 61.5t25.5 61.5t61.5 25.5zM512 732q10 0 13.5 -8t10.5 -8q18 0 18 17q-12 0 -20.5 4t-19.5 4zM358 838q-11 -8 -17 -14.5t-6 -18.5q16 0 19.5 8t3.5 21v4zM526 708q-5 0 -8 -3.5t-3 -7.5q0 -1 1 -2l2 -2q2 1 5.5 4.5t3.5 7.5
q0 2 -1 3z" />
    <glyph glyph-name="yacute" unicode="&#xfd;" horiz-adv-x="832" 
d="M226 0q20 0 31 8t11 21q0 8 -4 16l-284 605h243l193 -411l193 411h243l-342 -727q-32 -69 -103.5 -97.5t-177.5 -28.5h-137v203h134zM506 5q2 2 5.5 8t3.5 8q0 1 -3.5 4.5t-5.5 3.5q-2 -2 -5 -8t-3 -9q0 -2 3 -4.5t5 -2.5zM515 101q0 1 0.5 3.5t0.5 4.5q0 5 -1 9.5
t-9 6.5q0 -7 -2 -9t-2 -3q0 -9 13 -12zM306 116q-2 8 -6.5 14t-12.5 6q0 -6 3 -13t11 -7h5zM376 130q1 0 5 -2t8 -4.5l8 -5t6 -2.5q14 0 14 4q0 5 -11 13.5t-16 16.5q-8 0 -11 -7t-3 -13zM266 224q0 5 -1.5 8.5t-7.5 5.5q-2 -2 -4.5 -12t-5 -21.5t-4.5 -22t-2 -13.5
q0 -8 4.5 -15.5t4.5 -15.5q0 -3 -1 -5q3 0 6 11t5.5 25.5t4 28.5t1.5 20v6zM111 431q0 -4 2.5 -10.5t6.5 -6.5q6 0 13 4.5t7 12.5l-24 4zM562 469q11 0 15 8.5t4 17.5l-13 5zM352 840h217l-52 -144h-165v144zM512 815q0 -4 -3 -6t-7 -4.5t-7.5 -6t-3.5 -9.5q2 2 4.5 5t6.5 3
q5 -4 12 -4q14 0 19 16q0 2 1.5 10t2.5 11h-4q-12 0 -21 -9v-6zM522 759q13 4 13 12q0 7 -4 9q-7 -2 -8.5 -6t-1.5 -9q0 -1 0.5 -3t0.5 -3z" />
    <glyph glyph-name="thorn" unicode="&#xfe;" 
d="M535 650q73 0 130 -13.5t96 -43.5t59.5 -78.5t20.5 -118.5v-142q0 -70 -20.5 -118.5t-59.5 -78.5t-96 -43.5t-130 -13.5h-64q-66 0 -116 15t-82 49v-267h-229v953h229v-163q32 34 82 48.5t116 14.5h64zM576 480q6 -2 8 -2q7 0 11.5 5t7.5 11.5t4 13.5t1 11h-8q-8 0 -8 1
q-2 0 -8 3.5t-8 3.5q-7 0 -8 -5.5t-1 -9.5q0 -8 5 -14.5t5 -13.5q0 -3 -1 -4zM778 181q2 2 8 11t8 13v2q0 1 0.5 1t0.5 1q0 10 -11.5 24t-23.5 14q0 -2 0.5 -9t1.5 -9q0 -2 3.5 -12t3.5 -12t-2.5 -5t-4.5 -3zM601 46q8 0 16 7.5t9 11.5q0 2 -4 8.5t-4 7.5q-2 5 -4.5 17
t-3.5 16l-20 -17zM498 180q0 -11 9 -20.5t9 -20.5q0 -3 -1 -5q3 1 6 8t5.5 16t4 17t1.5 11q0 1 -0.5 2.5t-0.5 2.5l-32 -8zM633 470q7 12 8 20t1 20q0 2 -0.5 8t-0.5 8q-11 -6 -14 -21.5t-10 -26.5zM545 84q1 -1 2 -1h2q4 0 6.5 3.5t5 8t6 8.5t10.5 5l-25 24zM536 608
q2 -7 5.5 -12t10.5 -5q11 0 13.5 10t2.5 19q0 2 -0.5 6.5t-0.5 5.5q-11 -18 -31 -24zM512 608l-20 9q-2 -1 -3 -2t-1 -2t-1 -1q0 -8 5 -15.5t11 -12.5zM202 617v8l-14 7l-26 -23zM689 574h-6q-20 0 -20 -16q0 -1 1 -3.5t1 -4.5q6 2 15 7t9 13v4zM161 599q-6 -8 -14 -14.5
t-18 -9.5q2 -2 8 -5t8 -3q6 0 11 11.5t5 16.5v4zM555 -29q-4 -8 -12 -8q-12 0 -12 16q0 2 3 5t5 3zM796 325q0 4 -3 10t-8 6t-11.5 -4t-6.5 -12h29zM149 650q-11 0 -16.5 -5t-12.5 -14q9 0 19 4t10 15zM186 689q2 0 5 3t3 5q0 3 -3 9t-5 8q-8 -5 -8 -12q0 -9 8 -13zM542 526
q0 -7 2.5 -16t12.5 -9h2q1 0 2 1q-4 5 -7 11t-3 13h-9zM180 676l-24 -7q4 -9 12 -9q5 0 8.5 3.5t3.5 8.5v4zM260 104q-2 0 -5 -3t-3 -5q0 -6 3 -11.5t9 -5.5h2q1 0 2 1zM268 551q0 10 -11 16q-4 -3 -6.5 -5t-2.5 -7zM481 478q7 2 8.5 10.5t1.5 13.5h-10v-24zM633 550h-18
q0 -9 10 -16zM224 -25q-8 0 -17.5 -4.5t-15.5 -4.5l9 -15zM184 -87l-9 -5q6 -11 17 -11zM722 277q-7 10 -12 10l-5 -2v-8h17zM278 -216l13 -3q0 -12 -10 -16zM665 108q10 6 10 16l-8 2zM312 534v8h-24zM256 52q-9 -5 -9 -12v-2q0 -1 1 -2q8 4 8 12v4zM564 551q7 0 12 9h-4
q-8 0 -12 -9h4zM496 568l-9 8l-3 -14zM465 582h-9v-15zM535 203q35 0 56 11.5t21 39.5v142q0 28 -21 39.5t-56 11.5h-199q-29 0 -46 -12.5t-17 -38.5v-142q0 -26 16.5 -38.5t46.5 -12.5h199z" />
    <glyph glyph-name="ydieresis" unicode="&#xff;" horiz-adv-x="832" 
d="M226 0q20 0 31 8t11 21q0 8 -4 16l-284 605h243l193 -411l193 411h243l-342 -727q-32 -69 -103.5 -97.5t-177.5 -28.5h-137v203h134zM506 5q2 2 5.5 8t3.5 8q0 1 -3.5 4.5t-5.5 3.5q-2 -2 -5 -8t-3 -9q0 -2 3 -4.5t5 -2.5zM515 101q0 1 0.5 3.5t0.5 4.5q0 5 -1 9.5
t-9 6.5q0 -7 -2 -9t-2 -3q0 -9 13 -12zM306 116q-2 8 -6.5 14t-12.5 6q0 -6 3 -13t11 -7h5zM376 130q1 0 5 -2t8 -4.5l8 -5t6 -2.5q14 0 14 4q0 5 -11 13.5t-16 16.5q-8 0 -11 -7t-3 -13zM266 224q0 5 -1.5 8.5t-7.5 5.5q-2 -2 -4.5 -12t-5 -21.5t-4.5 -22t-2 -13.5
q0 -8 4.5 -15.5t4.5 -15.5q0 -3 -1 -5q3 0 6 11t5.5 25.5t4 28.5t1.5 20v6zM111 431q0 -4 2.5 -10.5t6.5 -6.5q6 0 13 4.5t7 12.5l-24 4zM562 469q11 0 15 8.5t4 17.5l-13 5zM307 855q36 0 61.5 -25.5t25.5 -61.5t-25.5 -61.5t-61.5 -25.5t-61.5 25.5t-25.5 61.5t25.5 61.5
t61.5 25.5zM525 855q36 0 61.5 -25.5t25.5 -61.5t-25.5 -61.5t-61.5 -25.5t-61.5 25.5t-25.5 61.5t25.5 61.5t61.5 25.5zM494 732q10 0 13.5 -8t10.5 -8q18 0 18 17q-12 0 -20.5 4t-19.5 4zM340 838q-11 -8 -17 -14.5t-6 -18.5q16 0 19.5 8t3.5 21v4zM508 708q-5 0 -8 -3.5
t-3 -7.5q0 -1 1 -2l2 -2q2 1 5.5 4.5t3.5 7.5q0 2 -1 3z" />
    <glyph glyph-name="Amacron" unicode="&#x100;" horiz-adv-x="935" 
d="M702 908v-112h-470v112h470zM680 895q-28 0 -28 -25q0 -12 17 -12q1 0 4 3t4 5q1 3 2 14.5t1 14.5zM524 822q5 0 13 3t10 8l-5 5q-2 0 -10.5 -5.5t-11.5 -10.5h4zM511 863q4 2 4 8q0 2 -2 5t-3 3q-2 0 -2 -8t3 -8zM608 750l352 -750h-258l-46 98h-377l-46 -98h-258
l352 750h281zM563 296l-96 203l-95 -203h191zM388 541q0 9 7 10.5t14 1.5h6.5t5.5 -1t3.5 -9.5t3.5 -8.5q8 0 11.5 1.5t4.5 1.5q10 -6 14 -11t7 -9t6.5 -7.5t13.5 -5.5v5q0 5 -7.5 17.5t-9.5 17.5q10 -4 15 -4q16 0 29.5 12t20.5 25q-2 6 -6.5 7t-9.5 1q-9 0 -16 -4
t-13.5 -8.5t-13 -8.5t-13.5 -4q-26 0 -48.5 5.5t-51.5 5.5q0 -11 9.5 -20t17.5 -14v4zM614 568q0 1 1 5l2 8t2.5 7.5l1.5 3.5q1 2 6.5 2t11.5 0.5t11 2.5t5 8t-6 8.5t-12 3.5v50q-5 0 -10.5 -4.5t-10.5 -10.5t-8.5 -12.5t-3.5 -10.5q0 -8 5 -12.5t5 -11.5q0 -5 -2.5 -6.5
t-6 -2t-6 -2t-2.5 -5.5q0 -8 4.5 -16t4.5 -16q0 -2 -0.5 -2.5t-0.5 -2.5zM690 -18q-1 -8 -7.5 -17t-15 -16.5t-18 -12.5t-17.5 -5q0 3 4.5 12.5t10 20t10.5 19l5 8.5q6 0 8.5 -6t3.5 -11zM275 207q0 -2 3.5 -5t5.5 -3q11 0 14 6t3 17t-1 20.5t-8 20.5zM590 195q0 10 -4 23.5
t-17 13.5q-8 0 -11 -11.5t-3 -17.5q23 0 35 -20v12zM315 181q13 0 23 9t10 25q-2 2 -11.5 4.5t-12.5 3.5q-5 -11 -7 -21t-2 -21zM372 641q-2 1 -8 3.5t-7 4.5q-2 1 -8.5 8.5t-9.5 7.5t-8.5 -3t-6.5 -5q5 -6 12 -15t7 -19q8 0 16 5.5t13 12.5zM701 231q9 6 17.5 8t18.5 2
q0 3 -5 7t-11 8.5t-12 8.5t-8 6q-6 -2 -7 -6t-1 -9q0 -13 8 -25zM654 440q-6 -2 -7.5 -4.5t-1.5 -7.5q0 -8 3.5 -14.5t12.5 -6.5q6 0 11.5 2.5t5.5 10.5l-1 2v2q-2 3 -11 9t-12 7zM327 551q0 1 -1 4.5t-2 5.5q-2 1 -6.5 5.5t-9.5 10t-9.5 9.5t-6.5 6q-1 -1 -1 -3v-4
q0 -16 10 -25t26 -9zM758 139q-3 8 -9.5 13t-14.5 7l-8 -17q-1 0 -1 -1v-2h33zM464 214q0 10 -11 16.5t-16 8.5q-1 -1 -1 -3.5v-4.5q0 -11 10 -14t18 -3zM557 484q0 -9 3 -20t15 -11q0 12 -6 22.5t-12 20.5v-12zM637 293q-7 0 -19.5 -4t-12.5 -18q8 6 16 8t16 2v12zM726 167
q2 2 5 11.5t3 12.5q0 2 -3 5t-5 3t-5 -3t-3 -5q0 -3 3 -12.5t5 -11.5zM684 530q0 -8 5 -14.5t12 -11.5q0 2 0.5 4.5t0.5 3.5q0 18 -18 18zM661 157q8 0 13.5 5.5t5.5 12.5h-19v-18zM541 416v4q0 7 -8 12l-8 -8zM260 247h-11q0 -9 11 -16v16zM645 344q11 4 11 15h-11v-15z
M260 207v10q-11 0 -16 -10h16z" />
    </font>
</defs>
</svg>
